<svg width="305" height="282" fill="none" xmlns="http://www.w3.org/2000/svg"><path d="m135.382 260.857.504 14.415a4.456 4.456 0 0 1-.438 1.667c-.342.661-1.174.875-1.905 1.02-3.727.713-7.598-1.388-11.386-1.221a3.982 3.982 0 0 1-1.227-.079c-1.681-.438-1.948-.101-1.988-1.847 0-.542 0-1.155.403-1.527.403-.372.994-.346 1.533-.324 2.422.097 6.7-.24 9.008-.984.235-.047.446-.176.596-.364.105-.246.113-.523.022-.774-.806-3.548-1.614-7.097-2.422-10.647M159.521 261.133v15.946c-.036.32.046.643.232.906.236.192.533.292.837.284a54.658 54.658 0 0 0 15.06-.844.846.846 0 0 0 .557-.263.867.867 0 0 0 .065-.674l-.569-3.229c-2.952 0-6.368-2.687-9.315-2.691a.969.969 0 0 1-.718-.197.955.955 0 0 1-.132-.819 83.75 83.75 0 0 1 1.713-8.695" fill="#FFC9A0"/><path d="M159.184 272.778c1.511.551 4.038-.154 4.817-1.567.193-.35.732-1.335.95-1.829.123-.276 1.314.739 2.492 1.124a50.35 50.35 0 0 0 8.067 1.69c3.451.52 10.353.52 14.802.197 1.424-.101 1.314 5.251-2.294 5.487-9.228.661-19.708 1.243-28.961.95a.88.88 0 0 1-.817-.664.87.87 0 0 1-.011-.373l.955-5.015ZM135.952 272.778c-1.516.551-4.038-.154-4.818-1.567-.188-.35-.731-1.335-.946-1.829-.122-.276-1.313.739-2.496 1.124a50.29 50.29 0 0 1-8.062 1.69c-3.451.52-10.353.52-14.803.197-1.423-.101-1.313 5.251 2.295 5.487 9.228.661 19.707 1.243 28.961.95a.88.88 0 0 0 .817-.664.87.87 0 0 0 .011-.373l-.959-5.015Z" fill="#153A23"/><path d="M40.635 9.667c-1.257-.372-1.261-1.09-.946-1.435a1.454 1.454 0 0 1 1.314-.284c3.065.472 5.509 3.308 5.877 6.393a6.9 6.9 0 0 1-1.222 4.932" fill="#FFC9A0"/><path d="M49.705 28.773c-6.132-7.846-.364-11.942-6.386-17.583-3.021-2.835-9.24-2.32-12.34.438-3.285 2.914-3.504 4.55-2.523 7.658a13.931 13.931 0 0 0 2.264 3.527c1.866 1.807 4.178 1.527 6.425 2.32 1.283.437 1.935 1.82 2.666 2.879l2.992 4.315M288.02 115.795c1.437-.555 2.076-2.936 2.628-4.078a9.787 9.787 0 0 1 1.493-2.424c.946-1.024 2.313-2.258 3.696-2.447 1.384-.188 2.917-.258 4.248.272.486.192 1.415.608 1.376 1.251-.04.644-.657 1.02-2.304.972-.793 0-.661.665-1.274 1.164-1.073.875-.986 2.188-1.695 3.387a5.894 5.894 0 0 1-3.749 2.547" fill="#FFC9A0"/><path d="M285.16 124.688c7.445-.981 7.445 4.638 14.978 1.269 3.784-1.694 4.616-6.941 4.068-11.045-.512-3.795-4.252-6.565-8.058-7.002a5.02 5.02 0 0 0-2.57.232c-2.129.906-2.562 3.636-3.338 5.811-.138.5-.409.954-.783 1.313a3.272 3.272 0 0 1-1.437.556l-7.182 1.523" fill="#FFC9A0"/><path d="M137.953 76.586c-6.569-3.939-8.128-13.369-5.19-20.45 2.939-7.08 9.254-12.178 15.766-16.23 3.254-2.026 6.678-3.895 10.418-4.744 9.692-2.188 19.97 3.063 25.948 11.015 2.124 2.814 3.858 6.126 3.823 9.627-.026 2.481-.928 4.853-1.817 7.168l-4.38 11.4c-1.751 4.52-3.63 9.264-7.418 12.292-3.985 3.19-9.503 3.917-14.54 3.103-5.036-.814-9.735-3.011-14.355-5.182" fill="#32142A"/><path d="M155.343 42.111c-3.898.342-14.64 10.779-15.402 13.129-.526 1.614-1.905 6.179-1.804 9.299.1 3.19 2.216 5.601 4.046 8.038a12.394 12.394 0 0 0 3.254 3.226 77.973 77.973 0 0 0 4.883 2.774c3.096 1.628 6.398 2.998 9.902 3.396 5.75.652 10.882-.04 14.6-4.293 2.527-2.884 4.608-8.236 6.473-11.575 2.054-3.68 3.942-9.627 4.178-12.331.096-1.06 0-.81-.272.223-1.716 6.669-5.877 12.84-9.87 18.41-2.992 4.179-7.218 7.75-12.569 8-3.123.148-6.188-.74-9.022-1.996-1.572-.696-3.092-1.505-4.585-2.35-1.357-.77-2.89-1.488-4.025-2.573a23.153 23.153 0 0 1-2.785-3.501c-.836-1.182-.525-1.085-.954-2.494-.837-2.744.814-11.982 1.353-13.269 1.927-4.603 8.807-8.686 14.933-12.204.924-.53-1.41-.438-2.334.113v-.022Z" fill="#7F4341"/><path d="M175.239 57.244c-.259 2.853-.692 2.722-1.284 4.783-.547 1.912-2.167 5.111-3.569 6.59-2.448 2.582-6.569 3.457-9.989 3.5-1.953.023-4.02-.437-5.571-1.68a9.11 9.11 0 0 1-2.802-3.982c-1.126-3.124-1.17-7.877-.027-10.91 1.227-3.281 4.218-6.804 6.762-7.21 1.042-.167.035-2.045-.832-1.428-5.61 3.974-9.941 13.409-8.382 17.207 1.515 3.69 4.471 8.752 8.47 9.452 2.075.368 2.535-.485 4.589-.875 1.975-.38 5.737-.989 7.41-2.127 2.019-1.37 3.941-2.91 4.463-4.043 1.138-2.416.753-6.127 2.189-8.446.565-.901-.876-1.75-1.427-.831Z" fill="#7F4341"/><path d="m154.327 64.63 5.632-8.913c.097-.188.25-.341.438-.438.195-.061.405-.061.6 0l3.442.753c.26.031.505.134.71.297a1.45 1.45 0 0 1 .267 1.16 175.84 175.84 0 0 1-1.008 10.643" fill="#FFC9A0"/><path d="M154.91 62.215c-7.581 9.19-21.538 9.671-33.183 7.142-24.524-5.322-50.23-26.79-63.43-48.102-8.22 4.197-14.785 9.522-22.033 15.233.267 8.853 7.007 21.198 15.823 28.296 7.081 5.715 15.95 8.704 24.585 11.574 18.788 6.245 38.977 11.33 58.215 6.7-6.324 9.26-15.069 26.173-18.051 36.982 15.713 2.249 35.394 5.16 51.107 7.413 1.44-7.203 2.886-21.67 4.331-28.882 35.035 23.066 62.038 38.103 113.215 41.424a291.051 291.051 0 0 0 .631-36.194c-31.624 4.284-69.225-.565-99.823-15.894-9.197-4.6-18.762-11.177-20.754-21.242l-10.633-4.45Z" fill="#F7BC28"/><path d="M177.551 9.807a21.57 21.57 0 0 0-12.109 7.413c-6.293 7.759-10.397 19.027-10.41 29.01-.022 14.703 12.608 18.265 24.166 10.756 9.853-6.407 20.583-18.712 20.219-31.18-.377-13.04-11.575-18.292-21.866-15.999Z" fill="#FFC9A0"/><path d="M155.759 42.825c-1.568.271-3.192-.403-4.379-1.47a11.36 11.36 0 0 1-2.602-3.965c-.674-1.55-1.208-3.221-1.037-4.902.17-1.68 1.195-3.36 2.802-3.881 1.608-.52 3.32.192 4.507 1.335 1.187 1.142 1.918 2.66 2.628 4.144M180.779 54.505c3.389 1.75 7.133 1.675 10.584.14 2.19-.98 3.464-1.777 5.002-3.703 2.715-3.4.254-5.942-3.031-5.584a27.127 27.127 0 0 0-5.649 1.235" fill="#FFC9A0"/><path d="M156.245 32.974c.036-1.354.276-2.695.714-3.978 2.746-8.065 6.271-10.765 11.759-15.018 2.544-1.97 5.303-3.75 8.399-4.613 3.097-.862 9.635-.385 12.381 1.313-6.731 9.964-13.975 14.914-24.814 21.683-2.592 1.624-5.448 3.204-8.496 2.98l.057-2.367Z" fill="#32142A"/><path d="M186.752 51.1c-4.874-12.187-3.863-29.083.622-41.389 8.264 2.757 11.96 7.92 13.138 14.997.565 3.383-.14 6.967-1.463 10.397a32.37 32.37 0 0 1-7.445 11.124l-4.852 4.87Z" fill="#32142A"/><path d="M182.101 11.89c-.876-3.01.876-6.214 3.18-8.35 2.934-2.725 7.234-4.41 11.005-3.062 3.639 1.312 5.929 5.347 5.662 9.19-.267 3.841-2.82 7.355-6.183 9.26" fill="#32142A"/><path d="M190.943 42.545c-.499-3.733-2.777-8.354-2.829-12.14-.053-3.855.258-8.244 2.627-11.474.631-.875-.341-.831-.963 0-1.752 2.372-2.374 5.304-2.606 8.175-.394 4.883-.788 7.002.219 11.815.158.827 3.688 4.678 3.552 3.624ZM193.413 27.338c.219-1.41.753-2.858 1.861-3.816-.438-.057-.149-.341-.582-.398 1.992 3.938 1.313 6.945-.846 10.56-.547.914-.945 4.651.364 2.397 2.43-4.183 2.628-11.701 1.195-13.566-.648-.84-.621-1.111-1.313-.166-.618.875-1.708 3.807-1.708 4.254 0 .328.074 2.306.538 2.437.39.114.403-1.264.473-1.706l.018.004ZM160.861 29.618a45.338 45.338 0 0 0 20.793-16.63c.596-.874 1.025-2.966-.551-.817-5.089 6.931-13.349 11.771-20.181 14.8-.293.13-1.051 3.063-.061 2.669v-.022ZM168.28 19.054c1.449-2.328 3.42-2.293 5.956-3.37.407-.175 1.055-.25 1.055-.393 0-.254-.683-.478-1.721-.399-3.013.232-5.732 2.565-6.911 5.326-.166.39-.201 2.91.631 1.041.08-.178.183-.346.307-.498l.683-1.707ZM82.681 261.815c-.692 3.707-1.73 8.131-1.796 11.895a.583.583 0 0 0 .383.728c.097.031.2.037.3.015l3.18.11a.828.828 0 0 0 .403-.053.756.756 0 0 0 .31-.394 95.32 95.32 0 0 0 4.612-14.502M72.437 257.825l.587 16.082a.656.656 0 0 1-.127.499.64.64 0 0 1-.517.096l-2.772-.289a1.23 1.23 0 0 1-.683-.206 1.274 1.274 0 0 1-.35-.691 97.757 97.757 0 0 1-2.939-17.067" fill="#7F4341"/><path d="M109.522 131.969a495.24 495.24 0 0 1 .14-23.569c.044-1.54.254-3.343 1.59-4.109 1.655-.954 3.67.437 4.953 1.851a31.137 31.137 0 0 1 5.789 9.19c.749 1.833 1.371 3.816 2.812 5.172 1.314 1.234 3.105 1.772 4.843 2.241a156.114 156.114 0 0 0 15.087 3.286c1.367.228 2.803.438 4.108-.035 1.783-.639 2.895-2.354 4.06-3.842a24.678 24.678 0 0 1 8.11-6.7c.719-.367 1.546-.709 2.313-.464 1.003.324 1.445 1.466 1.712 2.482a34.798 34.798 0 0 1 1.134 8.476 43.407 43.407 0 0 1 12.617-9.907c2.33 1.562 2.369 5.098 1.117 7.605-1.253 2.508-3.425 4.416-4.997 6.735-4.068 5.986-3.679 13.833-3.131 21.049 2.728 35.958 7.445 71.916 10.164 107.878-9.03 1.558-24.747 2.705-33.878 3.44-1.192.096-2.413-84.095-3.605-84.021-1.191.075-.398 84.458-1.607 84.511-10.669.658-21.37.658-32.039 0l-1.875-110.692.583-20.577Z" fill="#E48929"/><path d="M103.246 257.326a291.31 291.31 0 0 0 33.406 0 295.744 295.744 0 0 0 33.314-3.816 293.292 293.292 0 0 0 18.481-3.803c2.067-.494 1.191-3.685-.876-3.186a287.978 287.978 0 0 1-32.429 5.864 291.211 291.211 0 0 1-33.183 2.114 287.368 287.368 0 0 1-18.7-.477c-2.128-.123-2.119 3.181 0 3.304h-.013ZM104.183 247.9a335.693 335.693 0 0 0 62.06-3.313 332.933 332.933 0 0 0 17.124-2.976 1.663 1.663 0 0 0 1.151-2.03 1.677 1.677 0 0 0-2.032-1.155 330.976 330.976 0 0 1-78.303 6.17c-2.128-.083-2.123 3.221 0 3.304ZM104.227 240.32a1470.08 1470.08 0 0 0 66.111-7.605c6.228-.858 12.451-1.755 18.669-2.692.876-.135 1.371-1.247 1.156-2.034-.262-.946-1.147-1.287-2.036-1.151a1520.72 1520.72 0 0 1-32.539 4.533 1399.722 1399.722 0 0 1-32.753 3.812c-6.195.647-12.398 1.259-18.608 1.833a1.7 1.7 0 0 0-1.655 1.654c0 .828.762 1.751 1.655 1.65ZM106.531 229.148a417.413 417.413 0 0 0 62.003-5.422 418.79 418.79 0 0 0 17.193-3.185 1.676 1.676 0 0 0 1.156-2.031 1.692 1.692 0 0 0-2.032-1.155 411.538 411.538 0 0 1-60.846 7.912 415.54 415.54 0 0 1-17.474.577c-2.128.027-2.133 3.331 0 3.304ZM102.349 213.346A82.85 82.85 0 0 0 118 216.112a98.187 98.187 0 0 0 16.204-.232c10.8-.936 21.568-2.398 32.337-3.645l18.284-2.114c.876-.105 1.655-.687 1.655-1.654 0-.814-.762-1.75-1.655-1.65l-32.311 3.746c-10.585 1.225-21.288 2.915-31.969 2.411a78.222 78.222 0 0 1-17.299-2.805c-2.054-.573-2.929 2.626-.876 3.186l-.021-.009ZM102.331 203.238a328.846 328.846 0 0 0 33.664 1.002 328.065 328.065 0 0 0 33.586-2.464 334.374 334.374 0 0 0 18.914-2.914c.876-.162 1.38-1.226 1.156-2.035a1.686 1.686 0 0 0-2.032-1.151 323.786 323.786 0 0 1-32.95 4.319 328.042 328.042 0 0 1-33.507.928 328.328 328.328 0 0 1-18.831-.989 1.663 1.663 0 0 0-1.651 1.649 1.684 1.684 0 0 0 1.651 1.655ZM102.296 191.646c21.144-.114 42.274-.816 63.391-2.105 5.903-.365 11.804-.773 17.701-1.226a1.691 1.691 0 0 0 1.656-1.649 1.674 1.674 0 0 0-1.656-1.655 1130.845 1130.845 0 0 1-81.092 3.331c-2.124 0-2.128 3.317 0 3.304ZM101.363 180.609c21.24.426 42.485.384 63.733-.127 5.944-.14 11.886-.319 17.824-.538 2.12-.074 2.133-3.378 0-3.304-21.231.77-42.474 1.074-63.728.91-5.942-.043-11.884-.125-17.829-.245-2.128-.043-2.128 3.26 0 3.304ZM98.556 170.207c21.62.75 43.251.718 64.893-.096a854.876 854.876 0 0 0 18.1-.875c2.116-.123 2.129-3.431 0-3.304a901.545 901.545 0 0 1-64.88 1.409 943.746 943.746 0 0 1-18.113-.438c-2.128-.074-2.128 3.23 0 3.304ZM98.547 158.488a473.8 473.8 0 0 0 34.856.083 470.165 470.165 0 0 0 34.929-2.525 483.55 483.55 0 0 0 19.659-2.573c.876-.131 1.371-1.243 1.156-2.03-.262-.945-1.147-1.287-2.036-1.155a462.853 462.853 0 0 1-34.352 3.903 473.512 473.512 0 0 1-34.667 1.357c-6.516 0-13.031-.122-19.544-.364-2.124-.083-2.124 3.221 0 3.304ZM99.962 144.555c11.094.187 22.189.278 33.283.275 11.094-.002 22.189-.112 33.283-.328 6.257-.119 12.515-.265 18.775-.437 2.124-.066 2.132-3.37 0-3.304a1846.294 1846.294 0 0 1-85.345.503c-2.129-.035-2.129 3.269 0 3.304l.004-.013ZM95.258 132.67c11.282.411 22.566.606 33.853.586a854.989 854.989 0 0 0 33.852-.731c6.35-.262 12.697-.593 19.042-.993 2.111-.131 2.128-3.435 0-3.304a879.358 879.358 0 0 1-33.826 1.475 856.86 856.86 0 0 1-33.857.153 835.039 835.039 0 0 1-19.064-.49c-2.128-.079-2.123 3.225 0 3.304ZM104.341 110.964a209.228 209.228 0 0 0 32.609 8.315 212.116 212.116 0 0 0 33.647 3.015c6.309.055 12.614-.177 18.914-.696a1.69 1.69 0 0 0 1.656-1.65 1.674 1.674 0 0 0-1.656-1.654c-11.092.91-22.24.932-33.336.066a206.667 206.667 0 0 1-32.788-5.251 206.035 206.035 0 0 1-18.166-5.313 1.65 1.65 0 0 0-1.814.538 1.657 1.657 0 0 0-.124 1.887 1.668 1.668 0 0 0 1.063.761l-.005-.018Z" fill="#FAC7B7"/><path d="M300.243 180.872c0-18.091 6.516-68.525-1.191-70.267-10.866-2.459-20.373-1.343-31.225-3.85-21.332-4.919-42.603-10.184-63.501-16.765-37.737-11.89-74.628-29.32-102.753-57.12-8.285-8.193-16.05-16.905-27.427-20.625a57.643 57.643 0 0 0-33.962-.569c-4.861 1.431-10.41 1.037-12.516 5.636-2.93 6.411-4.051 17.028-4.28 23.894-.945 28.3.084 45.51-6.073 68.918.065 0 2.776.031 2.842.048 2.535.626 1.752 1.252 4.31 1.873 1.865.46 2.189-70.183 2.509-76.279.683-12.45-.053-19.998 16.934-21.005 13.077-.766 31.186 4.219 40.602 13.758a222.054 222.054 0 0 0 36.786 30.038c56.345 36.758 133.811 51.086 175.371 55.471 5.308.555-.705 55.575 0 65.461l3.574 1.383Z" fill="#E48929"/><path d="M192.537 111.415c-.981-.595 8.619-.578 12.389-.95 2.015-.197 4.165-.367 5.939.604 1.222.665 2.11 1.799 2.947 2.915a146.305 146.305 0 0 1 8.321 12.336 228.03 228.03 0 0 1-29.596-14.905Z" fill="#FFAB00"/><path d="M72.98 272.196h-7.256l-.845 2.056-12.906.875a7.74 7.74 0 0 0-7.007 5.541 7.173 7.173 0 0 0-.136.551h28.418a2.195 2.195 0 0 0 1.789-.944 2.186 2.186 0 0 0 .252-2.006l-2.308-6.073Z" fill="#153A23"/><path d="M75.424 279.784H44.966v.66h30.458v-.66ZM69.433 274.996a37.383 37.383 0 0 1-5.194-.188 3.366 3.366 0 0 1-2.334-1.313 2.314 2.314 0 0 1-.359-.757.916.916 0 0 1-.057-.438c.053-.161.167-.1.311-.035.415.25.785.569 1.095.941a34.53 34.53 0 0 0 2.584 2.626.433.433 0 0 0 .438.059.43.43 0 0 0 .267-.352 15.95 15.95 0 0 0-.316-2.731 5.415 5.415 0 0 1-.074-1.247c.026-.236.079-.499.342-.298.191.172.328.395.394.644.271.875-.32 1.846-.714 2.603-.438.876-.898 1.751-.876 2.722a.411.411 0 0 0 .823 0c0-1.212.82-2.262 1.284-3.33.464-1.068.617-2.302-.272-3.181a.99.99 0 0 0-1.485-.066c-.354.398-.341 1.028-.302 1.527.083 1.116.438 2.236.381 3.357l.71-.294c-1.008-.818-1.822-1.855-2.742-2.765a3.747 3.747 0 0 0-1.419-1.042.93.93 0 0 0-.878.128.932.932 0 0 0-.365.809c0 1.378 1.2 2.499 2.395 2.984.876.359 1.958.355 2.9.398 1.16.053 2.316.057 3.476.053a.44.44 0 0 0 .295-.414.434.434 0 0 0-.295-.413l-.013.013Z" fill="#FAC7B7"/><path d="M81 272.196h7.256l.845 2.056 12.906.875a7.75 7.75 0 0 1 7.007 5.541c.053.179.096.363.136.551H80.741a2.195 2.195 0 0 1-1.79-.944 2.186 2.186 0 0 1-.25-2.006l2.298-6.073Z" fill="#153A23"/><path d="M109.014 279.784H78.556v.66h30.458v-.66ZM84.546 275.823c.999 0 2.002 0 3-.035 1.046.022 2.09-.087 3.11-.324a3.743 3.743 0 0 0 2.6-2.625c.128-.595.027-1.361-.713-1.444-.604-.07-1.134.38-1.546.761-1.068.985-1.949 2.188-3.065 3.094l.71.293c-.045-1.12.297-2.24.38-3.356a2.089 2.089 0 0 0-.302-1.528.99.99 0 0 0-1.485.066c-.876.875-.722 2.14-.271 3.181.451 1.042 1.292 2.118 1.279 3.331a.438.438 0 0 0 .827 0c0-.985-.438-1.869-.876-2.722-.394-.757-.985-1.716-.713-2.604.064-.228.184-.435.35-.604.272-.258.35-.026.385.258a5.41 5.41 0 0 1-.074 1.247c-.184.9-.289 1.814-.315 2.731a.44.44 0 0 0 .266.353c.072.03.15.04.228.029a.432.432 0 0 0 .21-.089c.791-.706 1.537-1.46 2.234-2.258.336-.369.694-.717 1.073-1.041.114-.092.495-.407.635-.285.14.123-.088.709-.149.845-.876 1.899-3.223 1.825-4.98 1.877-.932.031-1.86.031-2.789.026a.44.44 0 0 0-.213.668.44.44 0 0 0 .213.16l-.009-.005Z" fill="#FAC7B7"/><path d="M173.583 40.698c.048-.18.092-.363.136-.547.188-.77.412-2.131-.705-2.267a1.898 1.898 0 0 0-1.13.293c-2.058 1.156-3.604 2.884-5.08 4.696-1.607 1.973-1.712 3.413 1.415 4.6.805.305 2.189.721 2.995.275.806-.447 1.117-2.188 1.384-3.304.32-1.344.657-2.495.985-3.746Z" fill="#E48929"/><path d="M176.728 38.182c-.154.875-.395 1.75-.579 2.656a6.706 6.706 0 0 0-.157 2.468 1.444 1.444 0 0 0 1.699 1.256c.71-.123 1.314-.77 1.752-1.313.53-.674.955-1.427 1.515-2.079a.577.577 0 0 0-.409-.987.58.58 0 0 0-.41.17c-.565.66-.998 1.413-1.528 2.095-.207.28-.45.532-.723.749a1.362 1.362 0 0 1-.39.227.254.254 0 0 1-.24-.044c-.163-.118-.163-.555-.163-.783a6.6 6.6 0 0 1 .123-1.173c.188-.984.464-1.951.635-2.94a.602.602 0 0 0-.403-.713.587.587 0 0 0-.714.406l-.008.005ZM170.531 34.89a13.935 13.935 0 0 1-1.542 1.786 14.98 14.98 0 0 1-.836.757 2.15 2.15 0 0 1-.403.285c-.175.087-.057 0-.04 0a.43.43 0 0 1 .119.078 1.665 1.665 0 0 1 0-.41c0-.163.043-.325.074-.487a9.218 9.218 0 0 1 1.253-3.278c.389-.634-.609-1.216-.999-.581a10.54 10.54 0 0 0-1.489 4.345c-.06.353.002.715.175 1.029a1.047 1.047 0 0 0 1.139.437 2.584 2.584 0 0 0 1.012-.63c.289-.24.565-.494.832-.757.622-.614 1.19-1.28 1.699-1.991a.586.586 0 0 0-.21-.792.597.597 0 0 0-.793.21h.009ZM181.365 32.992c.405.438.785.898 1.139 1.378.775 1.256.482 3.247.543 5.041a1.154 1.154 0 0 0 1.156 1.156 1.157 1.157 0 0 0 1.156-1.156c-.057-1.72-.219-3.461-.915-5.05a6.06 6.06 0 0 0-1.388-2.087c-.438-.38-1.783-1.335-2.339-.73-.394.428.149.83.648 1.448ZM173.574 27.692c-2.491-.17-5.255-.245-7.387 1.243a1.183 1.183 0 0 0-.416 1.58c.319.494-.097 1.251.437.875 1.24-.875 2.282-1.505 3.749-1.75a22.94 22.94 0 0 1 3.464-.381c.609 0 1.905.297 1.879-.293-.013-.652-1.077-1.226-1.726-1.274Z" fill="#32142A"/><path d="M160.029 58.395s2.483 3.43 4.901 4.997l.249-2.796s-3.42-.569-5.15-2.201Z" fill="#EFB086"/><path d="M154.292 39.46a7.932 7.932 0 0 1-2.75-4.525 6.424 6.424 0 0 1-.075-2.569c.071-.32.184-.735.548-.818.438-.105.972.367 1.292.639.56.481 1.384-.333.814-.819-.876-.761-2.229-1.514-3.214-.46-.762.815-.74 2.224-.644 3.257a8.991 8.991 0 0 0 3.214 6.126c.57.468 1.393-.346.815-.818v-.013Z" fill="#32142A"/><path d="M154.791 36.488a5.169 5.169 0 0 1-.438-.438 3.674 3.674 0 0 1-.297-.437 4.89 4.89 0 0 1-.342-.639c-.017-.044 0 .04-.022-.052s-.074-.197-.105-.298a1.383 1.383 0 0 1-.109-.538v-.048l.039-.066c-.039.07 0 .022 0 0s-.088.066.026 0c.114-.066-.03 0 .022 0 .053 0 .101 0 0 0H153.71c-.105-.026 0 0 .044.03-.071-.039 0 0 0 .027 0 .026-.062-.092 0 0 .061.092 0-.075 0 .044a.577.577 0 0 0 .711.404.58.58 0 0 0 .405-.71 1.35 1.35 0 0 0-1.537-.955 1.353 1.353 0 0 0-1.112 1.427 4.45 4.45 0 0 0 .587 1.728c.276.501.629.956 1.046 1.348a.584.584 0 0 0 .631.126.574.574 0 0 0 .314-.314.58.58 0 0 0-.126-.63l.118-.009ZM184.711 54.544c3.1.01 6.139-.865 8.759-2.52 1.125-.723 2.365-1.751 2.19-3.23-.176-1.48-1.682-1.878-2.935-2.04-.74-.096-.731 1.064 0 1.156.92.122 2.19.49 1.678 1.693-.438 1.007-1.791 1.641-2.716 2.118a15.084 15.084 0 0 1-6.945 1.663.582.582 0 0 0 0 1.16h-.031Z" fill="#32142A"/><path d="M187.961 51.809a5.231 5.231 0 0 0 3.503-.714c.556-.35 1.165-.984.758-1.68a1.31 1.31 0 0 0-.876-.52l-.994-.28a.582.582 0 0 0-.71.402.595.595 0 0 0 .403.713l.753.21.412.118s.145.044.075 0c-.07-.044-.031 0 0 0l-.04-.03a.181.181 0 0 1-.052-.118.165.165 0 0 1 0-.145c0 .11.043-.048-.022.048-.066.096.022 0 0 .03l-.097.097c.084-.074-.043.03-.065.044l-.149.096a4.064 4.064 0 0 1-.289.166l-.294.14c.07-.03-.035 0-.057.022l-.17.057a4.57 4.57 0 0 1-.635.167l-.149.026h-1.003a.604.604 0 0 0-.714.407.582.582 0 0 0 .407.709l.005.035Z" fill="#32142A"/><path d="M169.331 95.35a12.515 12.515 0 0 0 3.341 3.344l-2.448 12.157-.893-15.5ZM134.34 83.942l.946-.14 8.049-3.523a.838.838 0 0 0 .298-1.129.846.846 0 0 0-1.13-.297l-7.007 3.063-1.156 2.026Z" fill="#E48929"/><path d="m133.429 90.87 4.209-8.385-2.155-.56-7.261 11.85 5.207-2.906Z" fill="#E48929"/><path d="M68.89 116.412c-9.428-9.264-19.041-18.55-30.05-25.954-5.414-3.636-11.22-6.765-17.448-8.752-4.844-1.553-12.967-4.328-16.703.621-5.794 7.68-3.994 21.601-4.06 30.633a335.21 335.21 0 0 0 .942 27.446c.407 5.387.026 16.192 7.252 17.435a8.699 8.699 0 0 0 3.066-.232c12.752-2.521 25.4-5.274 37.759-9.418-4.143 1.392-8.545 5.3-12.263 7.663a95.578 95.578 0 0 0-8.062 5.457c-6.495 5.08-12.53 10.699-17.618 17.202-1.38 1.75-2.75 3.75-2.742 5.991.027 4.967 5.991 9.627 7.997 14.051 1.848 4.096 3.81 8.678 9.008 8.871 2.593.096 5.102-.827 7.498-1.821 14.89-6.179 28.597-14.848 41.713-24.103" fill="#FAC7B7"/><path d="M36.295 124.727c-2.348-.718-4.892-1.532-6.736-3.225a5.757 5.757 0 0 1-1.042-1.186c-.07-.118-.258-.438-.1-.136a.819.819 0 0 1-.066-.214c-.031-.377 0 .398 0 .048 0-.188-.049.201-.053.214-.074.241-.022.083 0 0 .092-.179-.228.28-.092.132.136-.149.153-.04 0-.027-.21.022 0 .114.04 0 0-.048.135-.07.18-.1.161-.097-.325.109-.036 0 .32-.107.646-.195.977-.263l.328-.057.5-.052c.814-.06 1.631-.076 2.447-.048.662 0 1.314.057 1.975.113.215 0 .438.053.649.066.289 0-.408-.087-.145-.022.136.035.276.048.412.07 3.27.682 6.463 1.7 9.525 3.037 1.696.7 3.333 1.534 4.896 2.495.346.223.688.437 1.016.7.048.035.245.197 0 0l.219.179c.136.118.272.232.403.355.242.226.467.468.674.726-.28-.35 0 .031.062.118.06.088.254.503.153.258-.1-.245.035.162.057.215.136.332-.114-.285 0-.031s-.088.385.03 0c-.03.088-.166.591-.091.39.074-.202-.132.227-.158.284-.154.306.144-.087-.114.149l-.363.35c-.136.122.065-.044.078-.057a4.441 4.441 0 0 1-.333.232 5.888 5.888 0 0 1-1.962.845c-.869.27-1.756.482-2.653.634-3.101.486-6.858.324-10.204.849-3.845.608-7.344 1.588-11.141 1.567-.438 0-.92 0-1.38-.057l-.438-.048s-.438-.07-.595-.105c-.42-.083-.834-.193-1.24-.329a3.821 3.821 0 0 1-.968-.437 10.8 10.8 0 0 1-.464-.28 3.593 3.593 0 0 1-.258-.175c.215.153 0 0-.035-.031a6.657 6.657 0 0 1-.955-.967c-.17-.215.114.166-.044-.061-.065-.097-.131-.189-.192-.285a8.317 8.317 0 0 1-.35-.608 6.104 6.104 0 0 1-.517-1.291 43.16 43.16 0 0 1-1.161-5.934 45.98 45.98 0 0 1-.591-7.067 20.165 20.165 0 0 1 .214-3.208 11.02 11.02 0 0 1 .53-2.03c.084-.228-.087.183.027-.066a5.412 5.412 0 0 1 .473-.845c-.202.298.048-.043.144-.135.096-.092.46-.368.145-.149.14-.1.286-.192.438-.276.157-.087.32-.17.481-.24-.328.14.167-.049.267-.079.411-.123.83-.22 1.253-.289.372-.066 0 0 .28-.039.28-.04.438-.04.67-.053.5-.026 1.003-.031 1.502 0 .933.022 2.124.127 2.882.228a51.8 51.8 0 0 1 6.166 1.264 67.782 67.782 0 0 1 11.194 3.864c5.027 2.298 9.858 5.252 13.747 9.225a21.048 21.048 0 0 1 4.042 5.374c.07.144.14.289.201.437-.153-.354.035.114.07.211.114.324.206.656.276.993 0 .061.096.564.057.289-.04-.276 0 .157 0 .223v.963c0 .323.083-.342 0 .022-.03.131-.053.271-.088.402-.035.131-.074.263-.113.394-.04.131-.25.582-.04.131a7.758 7.758 0 0 1-.582 1.046c-.07.101-.342.438-.092.145-.398.483-.838.931-1.314 1.339l-.32.267.044-.035-.197.144c-.294.21-.587.411-.876.604a21.7 21.7 0 0 1-1.94 1.081c-.788.389-1.274.595-1.84.818a46.998 46.998 0 0 1-4.755 1.571 89.844 89.844 0 0 1-9.889 2.083c-.775.123-1.555.236-2.33.35l-1.003.14c-.315.04 0 0 .053 0l-.258.035-.561.075c-1.152.148-2.308.284-3.464.437-4.24.508-8.352 1.821-12.604 2.188-2.11.188-4.668.267-6.442-.976-1.94-1.365-2.308-4.345-2.676-6.494a115.44 115.44 0 0 1 .368-40.575c.237-1.251.36-2.83 1.148-3.885.656-.876 1.751-1.033 2.79-.994 2.474.083 5.018 1.177 7.33 1.987 5.25 1.83 10.353 4.06 15.262 6.669 9.85 5.251 19.156 11.99 26.136 20.769a15.996 15.996 0 0 1 2.251 3.404c.524 1.244.856 2.56.986 3.904.36 2.85-.049 5.745-1.183 8.384-2.413 5.505-6.897 10.113-11.163 14.231-4.419 4.263-9.196 8.148-13.843 12.139-2.352 2.013-4.681 4.053-6.928 6.184-2.247 2.131-4.336 4.223-6.013 6.743-1.576 2.363-2.676 5.182-2.575 8.057a19.456 19.456 0 0 0 1.861 7.189c.964 2.14 2.308 4.263 4.174 5.72a8.037 8.037 0 0 0 6.21 1.567c4.611-.617 8.785-3.466 12.485-6.101 4.445-3.159 8.798-6.402 12.573-10.358a85.08 85.08 0 0 0 7.756-9.382c1.953-2.753 4.542-6.779 3.315-10.31a6.068 6.068 0 0 0-4.256-3.728c-2.067-.547-4.266-.04-6.197.761-4.187 1.729-7.791 4.639-11.211 7.549s-7.104 5.592-10.252 8.839c-1.62 1.676-3.162 3.501-4.051 5.689-.828 2.035-.53 4.424 1.852 5.133 1.861.547 4.06-.039 5.798-.752 2.663-1.094 5.028-2.827 7.931-3.256.876-.131 1.371-1.247 1.157-2.035-.259-.945-1.148-1.282-2.032-1.151-1.62.29-3.186.827-4.642 1.593-.684.328-1.358.687-2.032 1.028-.557.285-1.24.631-1.586.762-.844.335-1.727.565-2.627.682h-.657c-.103 0-.205-.008-.307-.021.324.043.079 0 0 0s-.175-.066-.258-.079c.293.052.14.087.052 0 .066.061.184.241.057.039.175.276 0-.039.088.136.087.175.087-.07 0 .044-.088.113 0-.049 0-.145.07-.258-.053.228 0-.074a4.29 4.29 0 0 1 .087-.324 4.28 4.28 0 0 1 .473-1.112 14.423 14.423 0 0 1 1.853-2.625 48.63 48.63 0 0 1 5.51-5.251c1.72-1.445 3.502-2.814 5.21-4.267 1.463-1.243 2.935-2.49 4.454-3.619a29.907 29.907 0 0 1 6.166-3.733c.338-.14.854-.324 1.275-.437.24-.075.482-.136.727-.193.245-.057.538-.105.53-.101a4.024 4.024 0 0 1 2.163.215c.201.092.39.205.587.31.087.053.175.114.258.171-.228-.157-.03-.026 0 0 .14.124.27.255.394.394.206.228 0 .031 0-.022.07.11.132.223.202.333.131.205-.03-.223.079.192.044.167.087.333.122.499-.074-.372 0 .079 0 .219 0 .206 0 .407-.022.613-.022.205.049-.272 0 0l-.052.284c-.04.197-.088.394-.14.586-.12.434-.266.859-.438 1.274.105-.245-.158.328-.175.372-.101.205-.206.411-.311.617-.237.437-.486.875-.75 1.313-1.922 3.133-4.225 5.789-6.7 8.634-3.792 4.376-8.237 7.876-12.901 11.242a64.544 64.544 0 0 1-5.925 3.894c-1.906 1.077-3.942 2.083-6.158 2.381a4.79 4.79 0 0 1-4.427-1.575c-1.638-1.703-2.711-3.987-3.39-6.223-.714-2.341-.915-4.543-.052-6.945.963-2.665 2.956-4.91 4.918-6.897 8.872-8.997 19.532-16.077 27.892-25.608 4.09-4.665 8.123-10.144 8.412-16.581.145-3.107-.359-6.416-1.787-9.19a21.895 21.895 0 0 0-2.53-3.588 82.341 82.341 0 0 0-2.694-3.155c-7.857-8.621-17.877-15.26-28.356-20.266a112.105 112.105 0 0 0-15.915-6.205c-2.58-.78-5.794-1.374-8.176.267-2.724 1.873-2.974 5.632-3.473 8.612a120.419 120.419 0 0 0-1.66 21.106c.07 6.87.596 13.929 2.041 20.655.57 2.625 1.664 5.36 4.06 6.822 2.22 1.352 5.032 1.523 7.559 1.335 4.379-.329 8.806-1.751 12.962-2.232 6.237-.749 12.503-1.571 18.56-3.278 3.175-.897 6.416-2.017 9.197-3.811 2.29-1.471 4.506-3.593 5.001-6.394.666-3.759-1.515-7.05-3.815-9.811-3.709-4.45-8.657-7.877-13.79-10.481a68.844 68.844 0 0 0-12.372-4.813c-4.125-1.186-8.518-2.25-12.836-2.14-1.813.048-3.796.31-5.36 1.313-1.69 1.076-2.536 2.87-2.947 4.778-1.038 4.814-.224 10.039.643 14.822.373 2.061.719 4.175 1.752 6.026a9.007 9.007 0 0 0 4.524 3.899c3.784 1.531 8.19.818 12.074.127.968-.175 1.927-.359 2.89-.543l1.314-.241.635-.109c.162-.026.876-.109.285-.052 1.55-.158 3.105-.206 4.655-.294a48.935 48.935 0 0 0 6.298-.678c1.751-.328 3.643-.845 5.11-1.939 1.467-1.094 2.448-2.774 2.059-4.616-.302-1.462-1.42-2.626-2.558-3.532-3.18-2.512-7.147-4.048-10.948-5.347-2.628-.902-5.321-1.716-8.115-1.921a23.692 23.692 0 0 0-4.888.083c-1.616.219-3.59.783-4.116 2.551-.63 2.118 1.349 4.113 2.86 5.277 2.163 1.677 4.79 2.626 7.383 3.409 2.04.622 2.912-2.564.876-3.19l.044-.004Z" fill="#fff"/><path d="M102.34 116.412c9.429-9.264 19.041-18.55 30.051-25.954 5.413-3.636 11.22-6.765 17.447-8.752 4.844-1.553 12.968-4.328 16.703.621 5.794 7.68 3.994 21.601 4.06 30.633a335.356 335.356 0 0 1-.942 27.446c-.407 5.387-.026 16.192-7.252 17.435a8.677 8.677 0 0 1-3.087-.232c-12.753-2.521-25.401-5.274-37.759-9.418 4.143 1.392 8.544 5.3 12.262 7.663a95.618 95.618 0 0 1 8.062 5.457c6.495 5.08 12.53 10.699 17.619 17.202 1.379 1.75 2.75 3.75 2.741 5.991-.026 4.967-5.991 9.627-7.997 14.051-1.848 4.096-3.81 8.678-9.008 8.871-2.593.096-5.102-.827-7.497-1.821-14.89-6.179-28.598-14.848-41.714-24.103" fill="#FAC7B7"/><path d="M108.904 166.522c-1.751 3.409-3.503 7.365-3.144 11.299.381 4.026 3.171 6.831 6.727 8.459a38.245 38.245 0 0 0 5.5 1.943c2.037.587 4.06 1.221 6.092 1.808a127.79 127.79 0 0 0 13.983 3.238c3.972.669 8.225.958 11.413-1.969 3.065-2.818 3.643-7.44 2.281-11.229-2.916-8.1-11.43-11.951-17.99-16.629-3.306-2.35-6.398-4.954-9.635-7.396-2.246-1.693-4.458-3.304-6.472-5.36-.39-.399-1.007-1.086-1.209-1.353a9.142 9.142 0 0 1-.718-1.116c-.048-.096-.285-.621-.153-.284a4.36 4.36 0 0 1-.215-.735c-.057-.245 0 .389 0 0v-.381c-.031.438.061-.188.184-.346.18-.153.395-.259.626-.31.804-.19 1.627-.291 2.453-.302a115.54 115.54 0 0 1 10.856-.311c4.861.081 9.711.471 14.522 1.168 2.343.346 4.668.911 7.007 1.195a9.724 9.724 0 0 0 5.255-.831c8.063-3.676 6.6-14.441 6.039-21.561-.766-9.759-.806-19.565-1.48-29.32-.175-2.538-1.191-4.94-3.718-5.881-2.067-.77-4.48-.271-6.499.403-4.546 1.518-8.785 4.192-12.595 7.062-3.285 2.469-6.429 5.138-9.591 7.759-3.7 3.063-7.37 6.184-11.036 9.299a4647.4 4647.4 0 0 1-11.259 9.54c-1.69 1.418-3.263 2.696-4.103 4.814a7.343 7.343 0 0 0 .061 5.61c1.266 2.879 4.449 3.938 7.34 4.315 2.57.328 5.189.14 7.773.087 5.851-.118 11.745-.341 17.517-1.505 5.4-1.094 11.067-3.186 14.768-7.461 3.464-4.004 4.624-9.251 4.274-14.441-.167-2.433-.631-5.252-2.444-7.055-2.654-2.625-6.337-1.137-8.951.723a122.557 122.557 0 0 1-11.746 7.176c-2.062 1.142-4.125 2.276-6.157 3.466-1.528.875-2.855 1.947-3.32 3.737-.757 2.932 1.117 6.21 4.161 6.77a8.82 8.82 0 0 0 2.794-.061c1.279-.171 2.553-.372 3.827-.591 2.19-.376 4.38-.709 6.473-1.462 3.779-1.369 7.187-4.349 7.305-8.629.061-2.127-3.245-2.123-3.307 0-.1 3.754-4.243 5.444-7.331 6.126-2.032.464-4.107.801-6.17 1.116-.867.169-1.745.267-2.628.293a1.957 1.957 0 0 1-1.239-.468c.245.193-.14-.149-.149-.162a2.674 2.674 0 0 1-.215-.236c.18.232-.276-.538-.227-.438 0 0-.136-.459-.171-.634-.053-.28 0 .372 0-.114a3.608 3.608 0 0 0 0-.416 2.43 2.43 0 0 1 .394-.98c.473-.569 1.252-.915 1.988-1.343 3.718-2.153 7.528-4.14 11.22-6.337a83.416 83.416 0 0 0 5.43-3.501 23.549 23.549 0 0 1 2.554-1.689 5.095 5.095 0 0 1 1.642-.547c-.355.048.25 0 .311 0a1.87 1.87 0 0 1 .28 0c-.407-.039 0 0 .088.031l.245.074c.39.118-.28-.175.066.031l.214.127c.351.197-.236-.237.062.039.096.083.569.63.341.324.134.181.256.371.364.569.043.074.324.687.197.372a9.85 9.85 0 0 1 .481 1.614c.107.441.18.888.219 1.339.062.613.097 1.23.106 1.847a26.507 26.507 0 0 1-.163 3.392l-.039.345c-.057.46.057-.345 0 .092l-.101.6c-.092.494-.21.984-.35 1.466a12.767 12.767 0 0 1-1.428 3.273 14.624 14.624 0 0 1-4.773 4.761 24.364 24.364 0 0 1-6.832 2.901c-5.255 1.458-10.51 1.817-15.963 2-2.426.083-4.856.114-7.287.171a28.077 28.077 0 0 1-3.736-.114 10.6 10.6 0 0 1-3.209-.919 3.058 3.058 0 0 1-1.695-2.096 4.701 4.701 0 0 1 1.116-3.969 21.31 21.31 0 0 1 2.339-2.052c.902-.753 1.8-1.514 2.698-2.271 1.751-1.483 3.503-2.969 5.255-4.46 6.924-5.885 13.834-11.789 20.911-17.504.705-.573 1.419-1.138 2.129-1.707l.135-.105c.263-.21-.324.241-.039.031l.508-.381a58.93 58.93 0 0 1 2.264-1.597 53.586 53.586 0 0 1 6.074-3.584 22.114 22.114 0 0 1 3.066-1.313c.482-.166.976-.315 1.476-.437.232-.057.468-.11.709-.153l.416-.075c-.289.048-.052 0 .101 0 .424-.026.85-.026 1.274 0 .469.022-.162-.07.263.044.219.061.438.118.648.197-.438-.166.075.065.193.122.372.184-.092-.153.188.14l.232.241c.263.258-.136-.219 0 0 .133.204.255.416.364.635.114.232-.119-.377 0 .035.035.109.074.218.105.332.077.266.137.536.179.81-.043-.28.035.472.04.577.039.661.065 1.313.096 1.978l.333 6.919c.222 4.612.447 9.226.674 13.841.206 4.311.67 8.617.797 12.932.097 3.338.132 7.238-2.027 10.008a6.898 6.898 0 0 1-3.096 2.28c-1.594.551-3.066.306-4.682 0a121.547 121.547 0 0 0-13.427-1.751c-4.57-.343-9.155-.419-13.734-.227a55.82 55.82 0 0 0-6.354.481c-1.752.276-3.289 1.221-3.854 2.971-.849 2.626 1.112 5.19 2.798 6.976 1.945 2.061 4.24 3.776 6.495 5.47l1.27.954c.368.284-.254-.197.092.074l.193.149c.333.267.657.538.985.805a138.742 138.742 0 0 0 5.365 4.179c3.429 2.551 7.007 4.814 10.554 7.208 2.855 1.916 5.662 4.161 7.467 7.133 1.686 2.774 2.557 6.564.438 9.395-2.067 2.739-5.619 2.507-8.654 2.009a123.924 123.924 0 0 1-13.379-3.029c-1.957-.555-3.897-1.172-5.855-1.75-1.647-.473-3.302-.928-4.905-1.54-2.816-1.073-5.816-2.946-6.07-6.241-.254-3.295 1.244-6.564 2.711-9.399.972-1.891-1.883-3.563-2.855-1.668l-.005.026Z" fill="#fff"/><path d="M110.704 167.678c6.438-.639 12.644 2.875 17.614 6.608a45.783 45.783 0 0 1 3.504 2.936 14 14 0 0 1 1.585 1.562c.2.232.365.491.491.77-.031-.074-.057-.175.021.101.04.184.049.21 0 .088-.048-.123 0-.092 0 .074l.022-.166-.035.131.062-.149c-.097.153-.088.153.026 0 0 0-.232.21-.206.197.245-.122 0-.031-.048 0a4.48 4.48 0 0 1-1.397.324c-1.752.096-3.547-.263-5.255-.608-4.358-.876-8.575-2.324-12.885-3.401-2.062-.512-2.942 2.674-.875 3.186 4.313 1.077 8.526 2.516 12.884 3.4 2.04.438 4.261.876 6.354.709 1.529-.127 3.202-.564 4.112-1.912 2.12-3.142-2.08-6.323-4.177-8.083a46.264 46.264 0 0 0-9.53-6.341c-3.793-1.837-8.027-3.146-12.262-2.726a1.697 1.697 0 0 0-1.656 1.654c0 .823.762 1.751 1.656 1.65l-.005-.004Z" fill="#fff"/><path d="M89.56 108.133c11.216 2.625 14.374 12.41 16.358 18.441 6.84 20.774 13.682 41.549 20.526 62.323.411 1.256.81 2.626.1 3.79a2.513 2.513 0 0 1-1.313.779c-2.991 1.011-7.669-3.707-8.453-6.017-3.779-11.137-7.116-18.712-11.031-29.832-3.591-10.222-7.222-19.74-13.335-28.882M75.437 109.039c-11.784 2.713-14.39 12.31-16.107 18.034a358429.83 358429.83 0 0 1-17.719 59.173c-.354 1.185-.7 2.476-.087 3.597.29.36.687.619 1.134.739 2.584.959 5.61-.311 6.289-2.507 3.262-10.573 7.155-20.97 10.51-31.508 3.105-9.706 6.236-18.742 11.513-27.407" fill="#7F4341"/><path d="M64.454 168.518c-.022-11.316-.368-17.819-.088-30.085.167-7.199.193-14.415 3.867-20.607 3.675-6.192 4.94-10.279 15.481-10.415 2.19-.026 8.588.932 10.3 2.267 2.895 2.258 5.694 5.964 6.337 9.575a66.669 66.669 0 0 1 .806 17.565c-.959 11.063-1.427 21.044-2.846 32.059l-33.857-.359Z" fill="#F7BC28"/><path d="M98.31 168.877c1.612.91 1.928 3.063 2.055 4.905a591.605 591.605 0 0 1-.771 90.992l-47.367.052 2.225-20.834c3.446-36.816.875-45.139 7.37-70.932.385-1.527 1.266-3.728 2.627-4.551l33.862.368Z" fill="#153A23"/><path d="M58.818 264.515a713.13 713.13 0 0 1 5.053-76.712 772.802 772.802 0 0 1 2.93-21.513 1.28 1.28 0 0 0-.876-1.527 1.25 1.25 0 0 0-1.524.875 724.925 724.925 0 0 0-4.782 38.409 705.551 705.551 0 0 0-2.697 38.601 841.803 841.803 0 0 0-.592 21.881c0 1.597 2.462 1.597 2.479 0l.009-.014ZM67.152 265.045a614.933 614.933 0 0 1 1.335-39.293 604.98 604.98 0 0 1 7.147-60.967c.263-1.558-2.128-2.227-2.39-.656a616.391 616.391 0 0 0-5.344 39.284 607.679 607.679 0 0 0-2.785 39.384 565.879 565.879 0 0 0-.438 22.257c0 1.593 2.475 1.597 2.479 0l-.004-.009ZM74.294 267.662a397.435 397.435 0 0 1 4.69-80.861 401.456 401.456 0 0 1 4.288-22.366c.342-1.553-2.05-2.219-2.391-.656a400.893 400.893 0 0 0-9.416 80.957c-.105 7.64.01 15.282.346 22.926.07 1.588 2.549 1.597 2.483 0ZM82.37 265.544c-1.366-13.955.46-27.928 2.295-41.752 1.852-13.903 3.262-27.814 3.705-41.839.248-7.909.238-15.821-.03-23.736-.053-1.593-2.537-1.597-2.48 0a363.96 363.96 0 0 1-1.024 42.207c-1.157 13.938-3.578 27.727-4.818 41.651-.683 7.807-.91 15.662-.144 23.469a1.274 1.274 0 0 0 1.24 1.238 1.246 1.246 0 0 0 1.239-1.238h.017ZM91.054 266.091a841.018 841.018 0 0 0 2.711-40.864c.584-13.583.817-27.177.7-40.78-.055-7.702-.22-15.4-.494-23.093-.057-1.593-2.536-1.597-2.479 0 .479 13.645.625 27.294.438 40.947a836.49 836.49 0 0 1-1.572 40.759 844.376 844.376 0 0 1-1.778 23.031c-.145 1.588 2.334 1.579 2.478 0h-.004ZM101.569 266.091c-.137-14.651-.123-29.304.044-43.958a2140.02 2140.02 0 0 1 1.879-68.634c.07-1.593-2.409-1.593-2.479 0a2135.9 2135.9 0 0 0-2.01 87.893c-.018 8.23.011 16.462.087 24.694 0 1.593 2.492 1.598 2.479 0v.005Z" fill="#FAC7B7"/><path d="M58.967 159.403a15.855 15.855 0 0 1 3.875-1.072c-.398.056.395-.031.412-.035a18.207 18.207 0 0 1 2.956.008l.534.057c-.17 0-.166 0 0 0 .307.053.618.11.924.175.614.132 1.22.298 1.813.499 1.109.371 2.16.893 3.127 1.549.246.162.486.328.723.503-.285-.21.416.342.482.399.443.385.867.793 1.27 1.221a12.175 12.175 0 0 1 1.865 2.52 15.04 15.04 0 0 1 1.958 6.127c.087 1.291 1.073 2.542 2.479 2.477 1.265-.057 2.575-1.094 2.478-2.477a19.773 19.773 0 0 0-5.448-12.341 19.177 19.177 0 0 0-12.888-5.724 18.7 18.7 0 0 0-7.883 1.313c-1.244.503-2.12 1.65-1.752 3.063.325 1.178 1.805 2.241 3.066 1.751l.009-.013ZM100.045 155.154c-.582.126.372.043 0 0H99.248c.534 0 .293.056.123 0-.105-.031-.876-.263-.574-.154.372.145-.184-.092-.21-.109a5.657 5.657 0 0 1-.5-.289c-.157-.1-.683-.525-.302-.197-.262-.227-.516-.437-.762-.7-.245-.262-.394-.411-.582-.626-.118-.14-.237-.28-.35-.437l.052.065c-.07-.092-.131-.183-.197-.275a17.383 17.383 0 0 1-1.025-1.624 18.287 18.287 0 0 1-.722-1.413c0-.04-.311-.714-.105-.224a17.806 17.806 0 0 1-1.213-4.349c0 .1.048.477 0 0-.027-.329-.058-.652-.075-.981a15.969 15.969 0 0 1 .044-1.995s.083-.678.026-.276c-.057.403 0-.083.03-.166.058-.293.11-.586.18-.875.157-.629.357-1.246.6-1.847-.201.503.053-.096.145-.28.144-.284.298-.564.46-.836.162-.271.267-.437.411-.647.07-.105.15-.206.22-.316.31-.463-.255.289.078-.105.372-.449.767-.88 1.183-1.291.236-.227.481-.437.73-.66l.308-.254c.507-.438-.408.276.14-.101.547-.376 1.13-.774 1.751-1.111.342-.193.684-.372 1.034-.543l.486-.227c.101-.049.692-.294.206-.097a25.472 25.472 0 0 1 4.607-1.356c1.314-.263 2.067-1.825 1.752-3.064a2.53 2.53 0 0 0-3.066-1.728c-6.017 1.203-12.179 4.525-14.802 10.341-2.72 6.043-1.388 13.316 2.422 18.615 2.26 3.142 5.544 5.768 9.634 4.875 1.314-.284 2.076-1.807 1.752-3.063a2.532 2.532 0 0 0-3.066-1.729l-.026.049ZM59.58 120.04c-2.3 4.332.092 9.553 2.934 13.001a11.156 11.156 0 0 0 12.941 3.619c5.466-1.986 8.71-6.835 9.332-12.502.587-5.313-1.388-11.553-5.693-14.918-4.545-3.549-11.163-4.113-16.111-1.02a2.495 2.495 0 0 0-1.148 1.512 2.479 2.479 0 0 0 3.653 2.768c.387-.242.787-.463 1.2-.661.411-.201-.184.044.25-.096.249-.087.498-.175.757-.249.432-.122.87-.219 1.314-.294.289-.048-.053 0-.097 0l.342-.03c.268-.021.535-.034.801-.04.438 0 .911.022 1.371.062.46.039-.228-.057.245.035.263.052.526.105.784.166.445.11.884.244 1.314.403l.32.122c-.044 0-.329-.149-.07-.022.258.127.477.228.713.359.397.222.781.465 1.152.727-.324-.224.114.091.215.179.201.175.394.359.582.547.189.188.342.363.504.551.087.105.18.206.258.315-.035-.052-.14-.188 0 .035.337.48.644.98.92 1.497.47.883.825 1.823 1.055 2.796.136.512.246 1.029.333 1.554.048.289 0 .052 0 0 0 .131.03.262.044.394a17.993 17.993 0 0 1 .066 2.512c-.018.262-.04.525-.066.787 0-.057.044-.302 0 0a13.793 13.793 0 0 1-.731 2.779c-.092.245-.022.066 0 0a11.703 11.703 0 0 1-1.1 1.939c-.074.109-.148.218-.227.323.03-.039.206-.253.026-.035-.18.219-.36.416-.547.613a9.792 9.792 0 0 1-1.052.954c.294-.227-.17.109-.262.175-.228.153-.465.298-.705.438-.241.14-.438.227-.631.328l-.32.153c.044-.022.316-.122.048-.022a11.95 11.95 0 0 1-1.458.438 9.652 9.652 0 0 1-.687.135c.438-.074-.114 0-.268 0-.5.035-1.002.035-1.502 0-.293-.021.04 0 .084 0l-.342-.061c-.228-.048-.438-.1-.679-.166-.24-.066-.438-.149-.665-.223-.32-.101.135.057.166.074-.105-.057-.215-.105-.32-.157a9.219 9.219 0 0 1-.941-.596c-.381-.258.227.224-.119-.096-.17-.162-.354-.311-.525-.477a13.797 13.797 0 0 1-1.007-1.081l-.206-.249c.153.188.114.157 0 0-.114-.158-.298-.438-.438-.635a20.76 20.76 0 0 1-.784-1.312 14.447 14.447 0 0 1-.337-.688c0-.03-.154-.358-.044-.1s-.061-.153-.075-.201c-.172-.456-.318-.92-.438-1.392-.052-.228-.087-.46-.135-.687.105.49 0 .026 0-.206a6.504 6.504 0 0 1 0-.652v-.271c0-.311-.114.416 0 .127.061-.184.105-.403.149-.591 0-.061.118-.354 0-.026-.119.328.065-.123.092-.167a2.473 2.473 0 0 0-.892-3.389 2.48 2.48 0 0 0-3.391.891l.048.004Z" fill="#E48929"/><path d="M62.667 57.9c-1.66 6.564-3.424 13.255-2.85 20.003.573 6.748 3.88 13.649 9.919 16.717 5.649 2.866 12.573 1.868 18.367-.683 7.361-3.243 13.93-9.435 15.354-17.347.937-5.212-.438-10.533-1.752-15.657-.521-1.983-1.082-4.044-2.435-5.589a11.185 11.185 0 0 0-3.792-2.581 34.433 34.433 0 0 0-25.554-1.313s-6.092 1.842-7.257 6.45Z" fill="#7F4341"/><path d="M73.204 94.186a22.307 22.307 0 0 1 4.454 14.796c-.071.389-.005.792.188 1.138.232.25.54.416.876.472a13.288 13.288 0 0 0 10.948-2.118 22.56 22.56 0 0 1 1.49-20.2l-17.956 5.912ZM101.446 70.626a6.68 6.68 0 0 1 4.196-1.09c3.591.368 4.861 4.1 4.747 7.238-.149 4.131-2.128 6.394-6.315 6.792-.639.061-7.786-.665-7.383-1.633l4.755-11.307Z" fill="#7F4341"/><path d="M103.824 69.729s-3.551-.438-5.316-1.484c-7.782-4.625-13.957-10.161-16.09-18.953-3.214 9.99-13.366 17.216-22.974 21.443 0 0-1.06-3.396 3.429-15.793 1.835-5.063 7.703-7.794 12.954-8.993a33.368 33.368 0 0 1 7.922-.648c3.1.053 6.28.311 9.096 1.62 0 .013 10.406 4.98 10.979 22.808Z" fill="#32142A"/><path d="M59.873 70.626a6.696 6.696 0 0 0-4.195-1.09c-3.596.368-4.866 4.1-4.752 7.238.153 4.131 2.128 6.394 6.32 6.792.639.061 7.786-.665 7.379-1.633l-4.752-11.307Z" fill="#7F4341"/><path d="M70.782 49.258c-4.94 1.487-10.423-1.388-13.27-5.69-2.846-4.301-3.525-9.68-3.46-14.834.075-5.908 1.275-12.293 5.642-16.279 2.807-2.56 6.569-3.785 10.313-4.503 6.884-1.313 14.224-1.094 20.649 1.715 6.424 2.81 11.824 8.42 13.348 15.255 2.12 9.409-3.245 19.115-10.51 25.451" fill="#32142A"/><path d="M68.29 49.796c-1.962-.123-4.309.494-6.048-.714-1.541-1.072-1.313-3.697.56-4.275a2.59 2.59 0 0 1 2.326.477c.127.105.399.324.438.495.167.63-.289.608-.648.616-.466.008-.93-.06-1.375-.2a4.713 4.713 0 0 1-2.142-1.397c-.346-.398-.875-1.085-.1-1.278.407-.1.876.084 1.314-.021a.4.4 0 0 0 .289-.377c0-1.09-.684-2.188-.53-3.256.057-.437.284-1.028.762-1.146.674-.175 1.13.652 1.401 1.12l.14-.538c-.692.503-1.261-1.182-1.414-1.558l-.407-.989c-.066-.158-.132-.315-.189-.477a.53.53 0 0 1 .206-.735c.32.394.876-.162.556-.551a.92.92 0 0 0-1.362 0c-.613.62-.136 1.553.136 2.214.377.919 1.314 3.886 2.873 2.77a.403.403 0 0 0 .14-.538c-.64-1.086-1.949-2.228-3.066-.968-1.23 1.392-.056 3.094-.03 4.648l.289-.38c-.775.187-2.115-.32-2.4.809-.224.875.85 1.908 1.45 2.393a5.458 5.458 0 0 0 2.807 1.2c.735.083 1.988.096 2.19-.84.2-.937-.806-1.712-1.507-2.044a3.358 3.358 0 0 0-2.628-.11 3.254 3.254 0 0 0-1.9 3.21c.033.44.157.87.363 1.262 1.458 2.652 5.067 1.803 7.502 1.957.504.03.504-.753 0-.784l.004.005ZM64.314 19.553a10.063 10.063 0 0 1-3.433-5.886c-.193-1.05-.438-2.6.437-3.396a3.303 3.303 0 0 1 2.707-.726 3.71 3.71 0 0 1 2.33 1.286c.328.412.731 1.094.438 1.615a1.287 1.287 0 0 1-1.231.538c-1.139-.083-1.795-1.348-2.264-2.24-.259-.49-.661-1.256-.267-1.781.333-.438 1.152-.582 1.668-.696a8.936 8.936 0 0 1 7.375 1.75c.39.311.946-.24.552-.555a9.743 9.743 0 0 0-8.404-1.869c-.622.158-1.358.35-1.787.875a1.92 1.92 0 0 0-.17 1.921c.437 1.208 1.287 2.718 2.53 3.239.968.402 2.379.096 2.773-.968.438-1.133-.526-2.385-1.393-3.023a4.64 4.64 0 0 0-3.403-.832c-1.23.188-2.509.967-2.776 2.258-.329 1.615.127 3.501.749 5.002a10.695 10.695 0 0 0 2.982 4.07c.386.324.942-.228.556-.552l.031-.03ZM77.864 22.778c-1.174.271-3.114-.297-2.672-1.886.412-1.47 2.321-.66 3.184-.175.438.24 1.397.783.736 1.313a.753.753 0 0 1-1.21-.622c-.082-1.566 1.871-1.803 3.005-1.785.364 0 .565-.569.197-.727a2.929 2.929 0 0 1-1.751-2.603c-.062-1.392.875-2.35 2.124-2.84a9.007 9.007 0 0 1 4.125-.644c1.397.158 2.965 1.313 2.452 2.88l.657-.17a1.314 1.314 0 0 0-1.077-.644 57.327 57.327 0 0 1-1.717-.394c-1.143-.28-2.277-.6-3.394-.958a52.44 52.44 0 0 1-3.32-1.186c-.875-.355-2.627-.775-2.907-1.825l-.272.481c.789-.192 1.853-.498 2.549.092.876.735.215 1.554-.718 1.589-1.375.052-2.856-.91-3.11-2.302s.806-2.906 2.357-2.586c.876.175 1.751 1.19.775 1.903a2.492 2.492 0 0 1-2.247.377c-1.283-.504-1.45-2.219-.784-3.27.837-1.312 2.47-1.75 3.942-1.793 2.067-.053 5.807.183 6.477 2.651a.399.399 0 0 0 .578.232c.823-.363 1.279.876 1.314 1.444a2.161 2.161 0 0 1-.548 1.506 1.607 1.607 0 0 1-2.627-.438c-.49-1.124.775-2 1.79-1.89 1.262.135 1.967 1.47 2.103 2.6a.403.403 0 0 0 .394.389 18.943 18.943 0 0 1 7.086 2.354c.819.468 2.58 1.247 1.98 2.42-.39.761-1.078 1.282-1.253 2.162-.101.49.657.7.753.205.21-1.032 1.314-1.64 1.428-2.708.127-1.156-.99-1.812-1.83-2.346a19.813 19.813 0 0 0-8.164-2.866l.39.39c-.215-1.786-1.529-3.716-3.565-3.344-1.682.31-2.689 2.219-1.406 3.575a2.387 2.387 0 0 0 3.985-.744c.618-1.426-.227-4.24-2.216-3.365l.574.232c-.377-1.392-1.541-2.188-2.85-2.626a12.14 12.14 0 0 0-5.366-.507c-1.585.223-3.218 1.05-3.875 2.59-.535 1.247-.206 2.92.98 3.69 1.188.77 3.504.38 4.1-1.025.595-1.404-.964-2.542-2.19-2.586a2.765 2.765 0 0 0-2.825 2.337 3.468 3.468 0 0 0 1.94 3.689c1.135.573 3.683.875 3.863-.95a1.955 1.955 0 0 0-1.073-1.807c-.876-.473-1.97-.223-2.895 0a.393.393 0 0 0-.271.481c.271.967 1.134 1.392 2.001 1.75 1.11.48 2.235.917 3.377 1.314 1.2.437 2.417.8 3.648 1.133.66.18 1.314.346 1.997.495.595.135 1.182.144 1.59.63a.399.399 0 0 0 .656-.171c.486-1.514-.547-3.024-1.944-3.58-1.752-.691-4.126-.25-5.816.469-1.397.59-2.457 1.75-2.483 3.317a3.704 3.704 0 0 0 2.142 3.465l.197-.726c-1.608-.03-3.745.481-3.789 2.468a1.543 1.543 0 0 0 1.735 1.637c.303-.038.588-.164.819-.363 1.45-1.221-.71-2.508-1.713-2.928-1.314-.56-3.267-.543-3.56 1.23-.35 2.14 1.936 3.063 3.674 2.656.49-.11.285-.875-.21-.753l-.026-.013ZM92.697 41.823c-1.314.586-2.54-.622-2.957-1.75a6.887 6.887 0 0 1-.341-1.839c-.048-.586-.201-1.378.1-1.903 1.096-1.882 5.852 1.899 2.874 3.82-2.628 1.685-3.316-3.64-3-5.107.108-.566.39-1.084.805-1.483.408-.377 1.454-.876 1.831-.224.267.473-.438.77-.876.67-.648-.145-.845-.976-.924-1.54-.092-.657-.254-1.75.438-2.14a5.654 5.654 0 0 1 1.673-.46c1.174-.214 2.514-.262 3.368.705l.079-.617c-.85.394-1.7-1.173-2.024-1.75a3.551 3.551 0 0 1-.525-2.583c.53-2.065 2.825-1.51 4.31-.997.476.166.682-.591.21-.753-1.14-.394-2.457-.783-3.64-.346a2.75 2.75 0 0 0-1.721 2.429c-.114 1.313.521 2.503 1.252 3.523.592.831 1.472 1.645 2.536 1.155a.402.402 0 0 0 .079-.617c-1.183-1.313-3.088-1.15-4.664-.792-.784.18-1.695.39-2.054 1.199-.36.81-.18 1.86 0 2.626.32 1.343 1.84 2.472 3.03 1.242a1.124 1.124 0 0 0 .075-1.522 1.87 1.87 0 0 0-2.05-.39c-1.913.687-2.246 2.936-2.001 4.687.219 1.553.692 3.877 2.597 4.13 1.572.21 2.982-1.334 2.886-2.852-.1-1.68-1.7-3.103-3.337-3.265-.924-.092-1.857.28-2.11 1.243-.272 1.028-.036 2.433.21 3.444.46 1.873 2.228 3.636 4.256 2.74.438-.206.061-.876-.398-.679l.013-.004ZM79.734 39.52l-3.675.023c-.582.06-1.17.06-1.751 0-.657-.15-.815-.985-.841-1.571a3.417 3.417 0 0 1 3.538-3.615 3.379 3.379 0 0 1 2.505 1.221c.271.344.406.775.381 1.212-.083.722-.81.827-1.314.385a3.09 3.09 0 0 1-.748-1.5 17.797 17.797 0 0 1-.473-1.782 4.627 4.627 0 0 1 .363-3.29c1.108-1.86 4.02-1.265 4.38.875l.652-.381c-.254-.31.28-.508.438-.473a.877.877 0 0 1 .49.469c.163.472.184.981.062 1.466h.753a10.761 10.761 0 0 1-.679-5.729c.08-.49-.679-.704-.757-.205-.337 2.066-.1 4.184.683 6.126.122.306.692.438.753 0 .158-1.08.14-2.779-1.314-2.936a1.12 1.12 0 0 0-.99 1.816c.276.337.71-.04.653-.38-.377-2.277-3.416-3.397-5.146-1.848-1.108.994-1.384 2.587-1.213 3.996.125.845.323 1.678.591 2.49.147.688.475 1.324.95 1.842.877.81 2.352.626 2.628-.635.246-1.133-.499-2.188-1.397-2.804a4.214 4.214 0 0 0-6.275 1.986c-.438 1.107-.54 3.195.687 3.882.74.416 1.988.184 2.803.18h3.293a.395.395 0 0 0 0-.784l-.03-.035ZM54.977 20.56v5.605c0 .473-.11 1.09.092 1.532.372.823 1.314.38 1.69-.175a5.685 5.685 0 0 0 .754-3.007h-.784l.048 5.663a.394.394 0 0 0 .784 0c0-1.182 1.887-1.103 2.663-.985 1.503.226 2.954.72 4.283 1.458.438.245.84-.438.398-.674a12.597 12.597 0 0 0-5.32-1.641c-1.175-.053-2.8.437-2.808 1.842h.784l-.048-5.663a.395.395 0 0 0-.784 0 5.147 5.147 0 0 1-.548 2.447c-.065.109-.135.27-.254.332-.223.11-.153.026-.17-.162-.031-.437 0-.906 0-1.352v-5.22a.393.393 0 0 0-.784 0h.004Z" fill="#632B25"/><path d="M66.24 33.657a1.81 1.81 0 0 1-1.462-1.09c-.29-.525-.661-1.466-.5-2.065.18-.674 1.021-.875 1.625-.744.784.184 1.393.818 1.945 1.365v-.556c-.438.486-1.183-.875-1.314-1.124a3.101 3.101 0 0 1-.438-1.703 1.539 1.539 0 0 1 .876-1.312.959.959 0 0 1 1.244.6l.652-.381a3.106 3.106 0 0 1 .938-4.613c.337-.162.959-.38 1.077.131a.62.62 0 0 1-.438.74c-.688.232-1.314-.438-1.55-.985-.316-.691-.771-2.573.359-2.774.495-.088.284-.845-.21-.757-1.88.332-1.35 3.207-.605 4.315a2.075 2.075 0 0 0 2.212.954 1.397 1.397 0 0 0 .994-1.62c-.39-2.065-2.952-.437-3.591.578a3.87 3.87 0 0 0 .254 4.586c.262.302.753-.022.652-.38a1.712 1.712 0 0 0-1.922-1.208 2.151 2.151 0 0 0-1.682 1.825c-.21 1.129.329 2.376 1.02 3.242.478.6 1.389 1.125 2.01.438a.398.398 0 0 0 0-.556c-.753-.744-1.637-1.588-2.763-1.637a2.069 2.069 0 0 0-2.058 1.19c-.337.902.114 2.14.574 2.928a2.531 2.531 0 0 0 2.089 1.392c.503.022.503-.762 0-.783l.013.004ZM57.631 33.862c.25.74-.438 1.357-1.069 1.576a6.077 6.077 0 0 1-1.213.24c-.21 0-.678.114-.845-.065-.052-.057-.04-.114 0-.184a.473.473 0 0 1 .438-.17c.225.018.447.07.657.153.1.035.276.083.328.188v-.022l-.091.052a1.021 1.021 0 0 1-.395.08 3.295 3.295 0 0 1-1.077-.084c-.315-.096-.517-.276-.512-.56a.577.577 0 0 1 .105-.315c0-.026 0-.022.065-.057h.04a.394.394 0 0 0 .482-.482l-.294-1.129a.394.394 0 0 0-.758.206l.298 1.13.482-.482c-1.147-.21-1.568 1.4-.801 2.074.481.363 1.08.538 1.681.49.495 0 1.143-.04 1.437-.507a.77.77 0 0 0 0-.832 1.35 1.35 0 0 0-.714-.481c-.613-.219-1.397-.363-1.892.18a.922.922 0 0 0 .245 1.491c.535.254 1.183.119 1.752.031a3.299 3.299 0 0 0 1.914-.845 1.895 1.895 0 0 0 .517-1.877c-.162-.477-.92-.271-.758.206l-.022-.005Z" fill="#632B25"/><path d="M55.638 41.91c.368.906-.639 1.913-1.44 1.09-.684-.705.148-1.926.635-2.512a5.476 5.476 0 0 1 1.655-1.348 5.197 5.197 0 0 1 1.117-.438c.271-.07 1.966-.314 1.45.618l.73.197a.503.503 0 0 1 .767-.333c.328.258.876-.061.613-.477a4.255 4.255 0 0 1-.635-2.114c-.014-.27.014-.54.083-.8.11-.364.635-.972.99-.482a.395.395 0 0 0 .679-.398c-1.218-2.359.193-5.164 1.042-7.44.175-.472-.582-.678-.757-.21-.942 2.508-2.309 5.414-.964 8.026l.679-.398c-.626-.875-1.804-.608-2.269.284-.626 1.195-.162 2.819.478 3.908l.613-.477a1.288 1.288 0 0 0-2.102.875c-.04.394.551.521.731.197a1.22 1.22 0 0 0-.276-1.544c-.538-.46-1.314-.403-1.944-.25a6.188 6.188 0 0 0-3.841 2.867c-.666 1.146-.77 2.844.815 3.238 1.353.341 2.408-1.09 1.905-2.32-.184-.463-.946-.262-.754.206v.035ZM61.892 21.579c-.84-.49-1.944-1.291-1.65-2.416a.915.915 0 0 1 .91-.765c.508.043.876.533 1.156.927.473.731 1.314 2.285.464 3.024a3.453 3.453 0 0 1-1.712.556 3.068 3.068 0 0 1-1.9-.228 1.488 1.488 0 0 1-.877-1.413c.084-.477.662-.98 1.152-.757.377.175.824-.285.473-.613a1.66 1.66 0 0 0-1.541-.346c-.57.106-1.191.412-1.752.215a1.314 1.314 0 0 1-.902-1.313 1.374 1.374 0 0 1 1.191-1.155.382.382 0 0 0 .272-.272 1.373 1.373 0 0 0-.368-1.409c-.36-.35-.916.202-.552.556a.586.586 0 0 1 .162.643l.276-.27a2.06 2.06 0 0 0-1.709 2.297c.047.35.182.684.395.967a2.093 2.093 0 0 0 1.852.805 9.147 9.147 0 0 0 1.144-.24 1.06 1.06 0 0 1 1.011.091l.473-.613a1.603 1.603 0 0 0-1.883.438 1.789 1.789 0 0 0-.24 2.022c.836 1.698 3.043 1.619 4.593 1.146a2.005 2.005 0 0 0 1.563-1.575 4.028 4.028 0 0 0-.556-2.324 3.597 3.597 0 0 0-1.533-1.75 1.59 1.59 0 0 0-1.883.38 2.143 2.143 0 0 0-.337 2.188 4.19 4.19 0 0 0 1.927 1.926.392.392 0 0 0 .399-.674l-.018-.048ZM73.45 16.599a3.507 3.507 0 0 1-3.119-.66l-.079.612a1.225 1.225 0 0 1 1.822.508l.276-.482a4.62 4.62 0 0 1-4.077-.346 2.215 2.215 0 0 1-1.152-1.518c-.052-.56.464-1.204 1.056-1.002.477.166.678-.591.205-.753-.836-.289-1.677.32-1.953 1.098-.302.876.162 1.75.784 2.342a5.257 5.257 0 0 0 5.343.932.398.398 0 0 0 .276-.482 2.012 2.012 0 0 0-2.14-1.276 2.015 2.015 0 0 0-.834.305.394.394 0 0 0-.079.613 4.306 4.306 0 0 0 3.88.875.392.392 0 1 0-.21-.753V16.6ZM94.567 47.109c-1.52.35-3.175.753-4.708.236a3.652 3.652 0 0 1-1.537-.962c-.53-.587-1.082-2.189.262-2.031 1.17.127 2.124 1.54 2.628 2.486a6.735 6.735 0 0 1 .674 4.034l.714-.096c-.617-.958-1.401-3.44.596-3.356 1.703.07 2.168 2.083 2.457 3.413l.753-.21c-.333-1.256-.736-2.687-.29-3.97.364-1.045 1.577-2.038 2.72-1.544a.39.39 0 0 0 .473-.613 6.177 6.177 0 0 1-1.559-3.886c0-.687.119-1.505.67-1.982.552-.477 1.424-.477 1.805.158l.337-.591c-1.362-.092-1.98-1.825-1.52-2.971.609-1.523 2.663-1.716 4.012-1.234a2.305 2.305 0 0 1 1.576 1.588c.114.56-.306 1.033-.876.705a2.017 2.017 0 0 1-.81-1.116 4.909 4.909 0 0 1 1.121-4.858.393.393 0 0 0-.381-.652 2.051 2.051 0 0 1-1.751-.691c-.281-.285-1.078-1.475-.281-1.685.158-.044.5.07.412.298-.044.105-.539.223-.644.258-.436.143-.89.228-1.349.254a5.53 5.53 0 0 1-2.881-.617c-.898-.477-2.076-1.418-1.55-2.552.402-.875 1.418-1.575 2.19-2.074a10.218 10.218 0 0 1 8.368-1.181l-.092-.718a4.597 4.597 0 0 1-5.894-2.25l-.338.591a.877.877 0 0 1 .789.876l.389-.394c-1.349-.118-2.12-1.803-1.427-2.928.263-.438-.438-.823-.68-.394a2.768 2.768 0 0 0 2.107 4.105.397.397 0 0 0 .394-.39 1.669 1.669 0 0 0-1.572-1.659c-.324-.034-.438.351-.337.592a5.38 5.38 0 0 0 6.963 2.53c.324-.145.202-.631-.092-.718a11 11 0 0 0-7.414.437c-1.612.683-4.9 2.525-4.204 4.722.696 2.197 3.727 3.002 5.728 2.757.679-.088 2.334-.328 2.426-1.221.079-.735-.806-1.2-1.445-1.099-1.047.162-1.086 1.449-.705 2.21a3.003 3.003 0 0 0 3.066 1.685l-.381-.652a5.73 5.73 0 0 0-1.314 5.619c.258.77.836 1.628 1.695 1.785a1.314 1.314 0 0 0 1.559-1.085c.28-1.75-1.63-2.857-3.066-3.063-1.668-.236-3.665.464-4.134 2.245-.438 1.64.56 3.593 2.352 3.715a.395.395 0 0 0 .341-.586c-.968-1.62-3.14-.77-3.7.717-.758 2.009.232 4.416 1.554 5.939l.473-.613c-1.287-.56-2.658.03-3.442 1.15-1.073 1.541-.578 3.576-.136 5.252a.39.39 0 0 0 .754-.21c-.386-1.785-1.354-4.42-3.719-3.938-2.229.437-1.642 3.129-.761 4.498.162.25.66.263.713-.096a7.575 7.575 0 0 0-1.169-5.343c-.718-1.068-2.378-2.858-3.85-1.987-1.607.954-.13 3.129.93 3.82 1.878 1.234 4.199.766 6.24.298.494-.114.284-.875-.206-.757h-.026Z" fill="#632B25"/><path d="M89.473 24.848c-1.559 1.172-3.271-.438-3.792-1.886a11.337 11.337 0 0 1-.526-2.412c-.07-.542-.158-1.592.438-1.894.464-.237 1.042.223 1.41.463.466.305.916.634 1.349.985.363.258.68.574.937.937.22.363.329 1.076-.223 1.23-.797.214-1.896-1.134-2.102-1.777a.967.967 0 0 1 .219-1.077.661.661 0 0 1 .98-.04c.299.355.81-.1.614-.476-.486-.945 1.029-2.188 1.72-2.578a4.273 4.273 0 0 1 5.934 1.557c.376.666.565 1.42.548 2.185a3.34 3.34 0 0 1-1.419 2.796 2.296 2.296 0 0 1-2.956-.363c-.643-.792-.78-2.004-.814-2.989-.026-.91.083-1.978.95-2.477a.394.394 0 0 0 .145-.534c-.513-.74-1.16-1.628-1.056-2.577.079-.722.911-1.514 1.625-1.029l-.193-.337.333 4.377.162 2.117c.04.53.267 1.375.066 1.895-.272.683-.876.057-.937-.385-.05-.398.055-.801.293-1.124.84-1.134 2.628-.333 3.543.24.438.272.823-.407.394-.674-1.349-.844-3.661-1.553-4.686.15-.613 1.019-.333 3.15 1.279 2.883.727-.118.933-.875.933-1.514 0-1.23-.18-2.486-.272-3.711l-.297-3.864c-.031-.438-.053-.674-.478-.875a1.504 1.504 0 0 0-1.007-.062 2.19 2.19 0 0 0-1.529 1.75c-.175 1.165.517 2.237 1.148 3.152l.14-.539c-1.752 1.007-1.502 3.659-1.012 5.309a3.129 3.129 0 0 0 1.905 2.188 3.291 3.291 0 0 0 2.869-.438c1.8-1.256 2.036-3.812 1.108-5.658a5.055 5.055 0 0 0-5.102-2.805 5.38 5.38 0 0 0-2.939 1.352c-.784.713-1.629 1.895-1.073 2.971l.614-.477a1.406 1.406 0 0 0-1.975-.048 1.807 1.807 0 0 0-.386 2.284c.438.875 1.366 1.812 2.339 1.983a1.354 1.354 0 0 0 1.559-1.449c0-1.076-1.03-1.807-1.796-2.398-.766-.59-2.032-1.75-3.122-1.282-1.713.722-.876 3.807-.469 5.063a4.312 4.312 0 0 0 2.093 2.691 2.778 2.778 0 0 0 2.917-.144c.399-.298 0-.98-.394-.674l-.009.009ZM83.478 47.542a29.755 29.755 0 0 0 0 3.645c.057.845.088 1.882.823 2.442a1.713 1.713 0 0 0 2.023-.096c.754-.552.96-1.51 1.038-2.385.04-.394-.547-.52-.727-.197a8.645 8.645 0 0 0-1.077 3.816.397.397 0 0 0 .67.28c.264.226.514.467.75.722.208.17.451.293.713.359.71.184 1.45 0 2.19 0a1.876 1.876 0 0 1 1.751.875 1.952 1.952 0 0 1 .14 1.93c-.232.438.438.84.675.394.762-1.47-.066-3.527-1.73-3.912-.942-.22-2.028.288-2.925-.07-.714-.285-1.196-1.576-2.08-.84l.665.275c.056-1.2.387-2.37.968-3.422l-.727-.197c-.066.665-.215 1.48-.845 1.838-.754.438-1.253-.136-1.384-.853a19.621 19.621 0 0 1-.096-4.59c.03-.504-.754-.5-.785 0l-.03-.014ZM103.903 69.256c-1.151.254-2.378.53-3.547.236-.946-.236-1.923-1.054-1.975-2.1-.053-1.046.942-1.68 1.909-1.663 1.174.022 2.098.875 2.812 1.75l-.061-.477c-.351.814-1.446.342-1.231-.507.241-.954 1.358-.827 1.988-.398l.197-.731c-1.314.162-2.461-.902-2.864-2.105-.197-.6-.241-1.383.28-1.838a1.021 1.021 0 0 1 1.111-.222c.124.052.236.127.33.222l-.061-.473c-.438.591-1.244.223-1.642-.192-.228-.24-1.156-1.519-.876-1.799l.613.079a5.023 5.023 0 0 1-.828-4.337.392.392 0 0 0-.568-.427.394.394 0 0 0-.19.217 5.774 5.774 0 0 0 .912 4.94.385.385 0 0 0 .287.189.393.393 0 0 0 .326-.11c.473-.437.021-1.133-.561-1.146-.84 0-.81 1.002-.587 1.545.574 1.374 2.492 3.164 3.775 1.435a.4.4 0 0 0-.061-.477c-1.231-1.37-3.175.03-3.197 1.576-.031 1.912 1.809 3.938 3.784 3.706a.394.394 0 0 0 .197-.726c-1.274-.876-3.434-.29-3.184 1.54.184 1.352 2.146 1.75 2.707.438a.44.44 0 0 0-.062-.477c-.915-1.081-2.159-2.07-3.661-1.952a2.488 2.488 0 0 0-2.382 2.057c-.145 1.199.683 2.363 1.703 2.919 1.467.792 3.263.415 4.818.074.49-.105.284-.875-.211-.753v-.013Z" fill="#632B25"/><path d="M96.76 62.985a3.26 3.26 0 0 1-2.097-.245c-.53-.32-.911-1.059-.565-1.632.346-.573 1.23-.665 1.817-.643.72.022 1.414.275 1.98.721l.079-.617c-1.249.539-2.567-.533-3.101-1.601-.324-.657-.539-1.62-.026-2.24a1.108 1.108 0 0 1 1.555-.224.395.395 0 0 0 .551-.556 6.767 6.767 0 0 1-1.493-3.09 2.247 2.247 0 0 1-.096-.813c.148-.499.543-.38.875-.328.515.034 1.011.21 1.432.507.237.21.6 1.13 0 1.248-.508.096-.648-.788-.713-1.12-.246-1.24-.438-2.495-.657-3.738-.088-.494-.841-.284-.758.21.219 1.243.412 2.495.657 3.733.127.634.355 1.383 1.02 1.632 1.314.482 1.927-1.313 1.314-2.223-.438-.656-1.314-.875-2.058-1.006-.635-.101-1.428-.175-1.752.512-.324.687.035 1.86.272 2.542.322.912.81 1.756 1.44 2.49l.552-.556a1.805 1.805 0 0 0-2.25-.118c-.855.552-1.065 1.62-.877 2.56.438 1.948 2.514 3.72 4.524 2.858a.39.39 0 0 0 .08-.617 4.228 4.228 0 0 0-2.755-.95c-.876.026-1.945.302-2.348 1.147a2.033 2.033 0 0 0 .438 2.21c.762.792 1.945.875 2.974.73.49-.06.499-.844 0-.783h-.014ZM60.202 71.098a23.732 23.732 0 0 1 .087-5.518c.11-.823.272-2.087 1.086-2.538 1.012-.556 2.15.617 2.313 1.558a1.054 1.054 0 0 1-.303 1.072c-.525.372-1.283-.079-1.624-.503a2.323 2.323 0 0 1-.32-2.25c.731-1.79 3.543-.875 3.346.937l.77-.1a2.034 2.034 0 0 1 1.498-2.337 2.016 2.016 0 0 1 2.3 1.811l.499-.38a2.22 2.22 0 0 1 .784-4.298c.503 0 .508-.8 0-.783a3.01 3.01 0 0 0-2.949 2.502 3.004 3.004 0 0 0 1.955 3.335.39.39 0 0 0 .494-.376 2.706 2.706 0 0 0-1.95-2.532 2.71 2.71 0 0 0-3.388 3.263c.096.468.727.302.77-.105.198-1.812-1.965-3.23-3.599-2.538-1.633.691-1.866 3.111-.766 4.402.626.735 1.843 1.2 2.689.547.656-.512.713-1.435.473-2.188a2.862 2.862 0 0 0-2.19-1.943c-1.056-.153-1.835.595-2.212 1.505a10.753 10.753 0 0 0-.587 3.501c-.087 1.313-.07 2.63.053 3.939.053.494.836.499.784 0l-.013.017ZM66.92 55.739c-1.314-.294-1.511-1.75-1.485-2.867 0-.542-.061-1.339.364-1.75.424-.412 1.072-.368 1.58-.28a4.678 4.678 0 0 1 3.71 3.89l.652-.38c-.924-.736-2.19-2.823-.617-3.61 1.813-.915 2.925 1.439 3.201 2.804l.714-.302c-.473-1.068-.937-2.376-.28-3.47a1.445 1.445 0 0 1 1.45-.783 1.018 1.018 0 0 1 .744 1.356h.674c-.403-.831-1.708-5.286.092-5.12 1.594.149 3.236 1.278 4.38 2.341.367.346.92-.205.556-.555a10.412 10.412 0 0 0-3.066-2.022c-.77-.328-1.905-.836-2.728-.411-.824.424-.824 1.803-.797 2.625a8.747 8.747 0 0 0 .876 3.54.393.393 0 0 0 .678 0c.797-1.54-1.029-3.063-2.5-2.35-2.072 1.016-1.507 3.58-.767 5.252.189.437.797.11.714-.302-.223-1.112-.648-2.254-1.59-2.963a2.63 2.63 0 0 0-2.811-.289c-1.94 1.108-.85 3.742.512 4.814a.395.395 0 0 0 .653-.38c-.39-2.469-3.03-5.125-5.724-4.434-1.476.381-1.498 1.965-1.471 3.226.035 1.37.586 2.853 2.062 3.181.49.11.7-.643.21-.753l.014-.008Z" fill="#632B25"/><path d="M62.606 58.08a1.023 1.023 0 0 1 .464-1.44c.635-.359 1.42-.026 1.962.341 1.095.748 2.037 2.009 2.076 3.365l.5-.376a1.016 1.016 0 0 1-.662-1.212 1.392 1.392 0 0 1 1.314-1.002c1.314-.132 2.378.923 3.245 1.776a.394.394 0 0 0 .666-.275.963.963 0 0 1 1.243-.845 2.4 2.4 0 0 1 1.148.74.398.398 0 0 0 .67-.28c0-.71.332-2.801 1.532-1.96a.395.395 0 0 0 .574-.438c-.24-.731-.547-1.585-.31-2.355.179-.573 1.155-1.313 1.668-.634a.398.398 0 0 0 .731-.197l.158-1.344c.057-.499-.727-.494-.784 0l-.158 1.344.732-.202a1.684 1.684 0 0 0-2.466-.157c-1.134.928-.714 2.569-.328 3.755l.578-.438a1.547 1.547 0 0 0-1.91.157c-.714.604-.775 1.61-.801 2.477l.67-.275c-.6-.617-1.441-1.169-2.348-.98a1.669 1.669 0 0 0-1.375 1.627l.666-.28c-1.274-1.256-3.31-2.866-5.124-1.544-1.165.844-1.046 2.892.438 3.29a.39.39 0 0 0 .495-.376c-.057-1.934-1.726-4.162-3.674-4.577-1.467-.316-3.307 1.207-2.29 2.704.28.438.958.022.678-.394l.022.005ZM84.779 41.254a1.104 1.104 0 0 1-1.406-.438c-.193-.477.438-1.107.876-.81l.302-.713a1.074 1.074 0 0 1-.495-1.483 1.095 1.095 0 0 1 1.485-.272.395.395 0 0 0 .586-.337l.285-3.43c.04-.504-.744-.5-.784 0l-.28 3.43.6-.367a1.797 1.797 0 0 0-2.8 1.416 1.793 1.793 0 0 0 1.206 1.765c.438.175.657-.486.302-.713-.977-.63-2.286.438-2.08 1.51.214 1.172 1.638 1.531 2.606 1.107.46-.201.06-.875-.399-.674l-.004.009ZM73.532 43.214a6.819 6.819 0 0 1-4.138.7c-.994-.166-2.51-.901-2.08-2.161.538-1.584 2.588-1.357 3.85-1.055 1.037.245 2.189.525 3.016 1.216.243.165.44.388.574.648.07.184.123.136.048.368-.074.232-.092.157-.328.262-.74.262-1.53.357-2.312.276a4.238 4.238 0 0 1-2.97-1.519 8.91 8.91 0 0 1-1.891-6.27c.175-1.571 1.453-2.324 2.798-2.854a31.89 31.89 0 0 1 4.563-1.387l-.482-.481a1.274 1.274 0 0 1-.775.985l.54.14c-.723-1.038-1.004-2.534-.202-3.62a2.313 2.313 0 0 1 3.153-.538c.394.307.95-.24.552-.551a3.067 3.067 0 0 0-4.069.315c-1.266 1.313-1.082 3.391-.114 4.787a.407.407 0 0 0 .539.14 1.957 1.957 0 0 0 1.13-1.448.394.394 0 0 0-.482-.481 25.741 25.741 0 0 0-5.492 1.785c-1.44.705-2.386 1.825-2.46 3.466-.123 2.682.967 6.126 3.358 7.614 1.463.902 3.219.819 4.817.394.526-.136 1.047-.315 1.038-.95-.008-.634-.556-1.282-1.02-1.671-1.143-.95-2.851-1.361-4.283-1.576-1.432-.214-3.066.097-3.745 1.51-.678 1.414.412 2.704 1.713 3.19 1.782.674 3.884.272 5.54-.56.438-.223.057-.901-.394-.674h.008Z" fill="#632B25"/><path d="M67.8 49.739c1.817-2.578 5.255-3.807 7.926-4.31 2.19-.416 4.437-.215 6.657-.22 4.38 0 6.744-.402 13.178 3.379.67-.512.438-.438.84-1.164-3.1-2.626-8.07-3.724-12.122-3.698-4.629.03-6.748-.035-11.255 1.037-2.014.482-5.662 3.01-6.967 4.617l1.743.359Z" fill="#FAC7B7"/><path d="M102.699 80.42a3.91 3.91 0 0 0 4.121-2.333c.308-.81.353-1.696.129-2.533a4.124 4.124 0 0 0-1.381-2.128.447.447 0 0 0-.631.63 3.263 3.263 0 0 1 1.09 3.615 3.001 3.001 0 0 1-3.091 1.89.442.442 0 0 0-.472.155.455.455 0 0 0-.076.156.443.443 0 0 0 .039.34.449.449 0 0 0 .272.207Z" fill="#32142A"/><path d="M103.295 78.008a1.852 1.852 0 0 0 1.345-1.338 1.846 1.846 0 0 0-.544-1.817.447.447 0 0 0-.631.63c.044.04.084.083.127.131.044.048 0-.035 0 0s.035.048.049.075l.078.144c.027.048 0-.07 0 0l.027.083c0 .053.026.105.039.162.013.057 0-.092 0 0a.462.462 0 0 1 0 .075c.005.06.005.12 0 .179 0-.061 0-.04 0 0l-.022.088v.065c0 .022-.039.1 0 .044.04-.057 0 .03 0 .04a.432.432 0 0 1-.044.074l-.043.074c-.049.07.03-.03 0 0l-.105.114-.066.061c-.035.03-.048.04 0 0a1.164 1.164 0 0 1-.145.096l-.061.031s-.101.044-.039 0h-.044l-.101.03a.44.44 0 0 0-.326.374.463.463 0 0 0 .015.174.444.444 0 0 0 .548.31l-.057.101ZM57.727 80.686a3.133 3.133 0 0 1-3.1-.556 4.612 4.612 0 0 1-1.345-3.356 4.118 4.118 0 0 1 1.27-3.094 3.504 3.504 0 0 1 3.066-.875c.56.127.801-.735.24-.875a4.545 4.545 0 0 0-5.101 2.87c-.815 2.08-.224 5.007 1.695 6.298a4.017 4.017 0 0 0 3.53.437c.534-.188.302-1.05-.241-.875l-.014.026Z" fill="#32142A"/><path d="M57.745 78.704a1.752 1.752 0 0 1-1.258-2.715c.224-.334.557-.58.942-.698a.454.454 0 1 0-.24-.876 2.628 2.628 0 0 0-1.949 2.822 2.625 2.625 0 0 0 2.505 2.342c.574.03.57-.875 0-.875ZM84.971 73.562c.364 1.53.883 3.018 1.55 4.442.307.608.723 1.251 1.498 1.015.999-.306 1.485-1.54 1.796-2.429.552-1.57.797-3.233.722-4.897l-.565.438c.838.15 1.597.586 2.146 1.234.373.438 1.003-.197.631-.63a4.38 4.38 0 0 0-2.54-1.462.44.44 0 0 0-.565.438 12.48 12.48 0 0 1-.517 4.14c-.223.74-.52 1.798-1.2 2.249-.067.037-.137.07-.21.096-.131.061-.04-.022-.03 0 .008.022.056 0 .035 0-.022 0-.049-.065 0 0 .048.066-.062-.07-.084-.096-.022-.026 0 0-.065-.087l-.097-.154c-.087-.148-.162-.297-.236-.437a18.213 18.213 0 0 1-.828-2.188 40.04 40.04 0 0 1-.565-1.89.453.453 0 0 0-.876.236v-.018Z" fill="#32142A"/><path d="M90.157 73.93h-.07c.039 0 .034 0 0 0-.036 0 0 0 0 0s-.092-.049-.04 0l.057.03c.044.027-.083-.07 0 0l.04.035a5.18 5.18 0 0 1 .468.538l.04.044c.06.079-.044-.052 0 0 .03.035.057.071.083.11a8.416 8.416 0 0 1 .477.726.443.443 0 0 0 .77-.438 8.65 8.65 0 0 0-.787-1.124 4.149 4.149 0 0 0-.412-.464 1.054 1.054 0 0 0-.302-.214.877.877 0 0 0-.539-.066.438.438 0 0 0-.311.551.44.44 0 0 0 .547.311l-.021-.04ZM75.709 73.326a26.356 26.356 0 0 1-1.279 3.842c-.124.294-.27.577-.438.849a1.247 1.247 0 0 1-.153.184c.026-.035 0 0 0 0 .18.022 0 0 0 0-.758-.36-1.073-1.313-1.314-2.057a12.352 12.352 0 0 1-.609-4.429.435.435 0 0 0-.358-.449.44.44 0 0 0-.207.012 4.38 4.38 0 0 0-2.54 1.461c-.372.438.259 1.068.631.63a3.653 3.653 0 0 1 2.146-1.234l-.565-.437a13.152 13.152 0 0 0 .604 4.555c.298.924.706 2.096 1.586 2.626a1.079 1.079 0 0 0 1.112.083c.252-.186.453-.43.587-.713.407-.775.74-1.587.994-2.425.25-.743.482-1.496.683-2.253a.454.454 0 1 0-.876-.236l-.004-.01Z" fill="#32142A"/><path d="M71.619 73.068a.846.846 0 0 0-.539.065 1.14 1.14 0 0 0-.293.206 4.314 4.314 0 0 0-.438.472 8.64 8.64 0 0 0-.789 1.125.442.442 0 0 0 .503.646.445.445 0 0 0 .268-.208c.096-.162.197-.324.302-.482l.167-.236.079-.105c.052-.066-.04.048 0 0l.048-.057c.114-.149.236-.289.363-.437l.092-.101.053-.044c.048-.044 0 .022-.03.022-.031 0 .047-.03.056-.035h.022l-.048.022h.048-.114c.116.028.238.01.342-.048a.438.438 0 0 0-.105-.814l.013.009ZM87.507 68.91c.1-.021.201-.039.306-.052l-.477.066a4.467 4.467 0 0 1 1.134 0l-.473-.066a5.97 5.97 0 0 1 1.402.398l-.438-.18a8.79 8.79 0 0 1 1.572.911l.166.123c.049.034.25.188.027 0a2 2 0 0 1 .066.052l.161.131c.241.197.478.403.714.609a1.91 1.91 0 0 0 1.261.52c.473-.002.925-.19 1.262-.52.617-.67.753-1.873 0-2.525a14.95 14.95 0 0 0-3.145-2.267 7.037 7.037 0 0 0-4.501-.67 1.795 1.795 0 0 0-1.249 2.188 1.834 1.834 0 0 0 2.19 1.248l.022.034ZM73.502 65.545a9.531 9.531 0 0 0-7.848 4.118 1.793 1.793 0 0 0 .64 2.438 1.836 1.836 0 0 0 2.443-.64l.114-.157c.11-.149.074-.105-.105.127.092-.088.166-.201.25-.293.172-.194.355-.378.547-.552l.293-.254c.241-.21-.337.241-.057.04.21-.149.438-.298.648-.438a4.6 4.6 0 0 1 .684-.363c.135-.061.411-.122-.07.026.122-.039.24-.096.363-.14a7.78 7.78 0 0 1 1.507-.358l-.474.06a7.806 7.806 0 0 1 1.065-.06 1.783 1.783 0 0 0 1.782-1.782 1.78 1.78 0 0 0-1.782-1.78v.008Z" fill="#32142A"/><path d="m81.507 77.382 1.725 6.753a9.738 9.738 0 0 1-4.996-.342 1.625 1.625 0 0 1-.876-.582c-.28-.437-.105-1.028.092-1.518a24.788 24.788 0 0 1 2.662-4.928s.863-1.453 1.393.617Z" fill="#C05929"/><path d="M83.036 90.62a6.835 6.835 0 0 0 5.39-4.446c.193-.543-.67-.775-.875-.237a5.947 5.947 0 0 1-4.765 3.82.44.44 0 0 0-.31.552.46.46 0 0 0 .546.31h.014Z" fill="#32142A"/><path d="M297.243 109.809c-.876 2.035-1.752 4.162-1.642 6.371.125 1.16.337 2.308.635 3.436.377 1.81.499 3.665.363 5.509a.83.83 0 0 0 .092.565.744.744 0 0 0 .495.236c2.102.381 4.323-.587 5.715-2.188a9.026 9.026 0 0 0 2.015-5.947 8.059 8.059 0 0 0-1.336-4.634c-1.432-2.009-3.941-3.939-6.319-3.331" fill="#FFC9A0"/><path d="M301.29 123.979c1.173-.539 1.467.398-.561 1.654a6.885 6.885 0 0 1-3.219.735 2.96 2.96 0 0 1-2.627-2.214 2.722 2.722 0 0 1 1.668-3.387c1.218-.491 2.532 0 3.793-.211l-.167 1.449c-2.132-.363-4.817-.639-5.347-3.523-.28-1.54.315-2.989 1.603-3.501a6.399 6.399 0 0 1 2.995-.437l-.262 2.293c-1.984-.342-4.441-2.074-3.854-4.814.587-2.739 3.162-2.84 5.211-2.84.303 0 1.2 1.479 1.2 1.479-.976 0-3.092.385-3.941 1.05-.089.08-.172.164-.25.254-.179.193-.026-.026-.144.21-.048.088-.189.464-.083.14-.031.092-.057.18-.079.272-.022.092-.053.372-.027.105.027-.267 0-.04 0 0 .013.269.086.533.215.77.504.744 1.506 1.006 2.264 1.138 1.104.192.837 2.428-.267 2.293a5.43 5.43 0 0 0-2.063.205c-.613.171-.784.508-.477 1.313a2.575 2.575 0 0 0 1.458 1.497 12.22 12.22 0 0 0 2.251.564.876.876 0 0 1 .771.985c-.061.626-.438.438-.946.525-.948.088-1.891.223-2.825.407-.565.149-1.773.81-1.278 1.799.017-.014 1.296 1.479 4.988-.21Z" fill="#EFB086"/><path d="M29.533 20.091c2.216 0 5.102-3.063 6.517-1.606.81.84 3.153-3.614 4.12-2.958 1.678 1.138 2.733.74 3.75-.757.109-.162.389-.136.49-.302a.778.778 0 0 0 .026-.547c-.464-2.083-2.212-3.76-4.248-4.416a9.045 9.045 0 0 0-6.258.438c-1.507.639-3.595 2.263-4.458 3.65-1.314 2.091-1.432 4.52.061 6.48" fill="#FFC9A0"/><path d="M41.05 10.888c-.95-.875-.197-1.505 1.752-.118a6.844 6.844 0 0 1 1.919 2.683 2.947 2.947 0 0 1-1.03 3.273 2.725 2.725 0 0 1-3.77-.228c-.92-.932-.99-2.328-1.66-3.417l1.401-.407c.486 2.109 1.275 4.695-1.187 6.293-1.313.875-2.881.875-3.853-.123a6.278 6.278 0 0 1-1.55-2.6l2.215-.643c.438 1.965-.201 4.901-2.973 5.418-2.772.516-4.152-1.711-4.634-3.707-.14-.595.701-2.568.701-2.568.388.975.863 1.914 1.419 2.805.556.77 1.121 1.312 2.08 1.5 1.498-.043 1.366-2.07 1.134-3.063-.25-1.094 1.923-1.71 2.22-.643.207.665.542 1.284.986 1.82.399.504.77.53 1.393-.06a2.588 2.588 0 0 0 .819-1.922 12.946 12.946 0 0 0-.346-2.293.874.874 0 0 1 .608-1.094c.6-.184.592.245.85.67.5.81.876 1.689 1.467 2.45.355.46 1.432 1.313 2.155.482-.013-.005.863-1.755-2.115-4.508Z" fill="#EFB086"/><path d="M50.742 182.469a27.984 27.984 0 0 0-.805 6.196c0 1.033 0 2.07-.035 3.103 0 .521 0 1.068-.049 1.584-.039.333-.188.552-.556.547-.648 0-.784-.525-1.038-1.028a14.615 14.615 0 0 1-1.064-4.687" fill="#7F4341"/><path d="M42.986 181.681c-2.43 6.078-4.817 10.371-5.32 14.594-.031.237.052 1.151.271 1.313.377.298 1.218.438 1.542.088.404-.41.719-.898.924-1.436a9.133 9.133 0 0 0 0 1.313 1.502 1.502 0 0 0 1.314 1.505c.626.062.959.119 1.248-.306.289-.424.6-.643.643-1.116.057.801-.1.35.057.875a1.543 1.543 0 0 0 1.511 1.051c.85-.04 1.599-3.877 1.704-4.503.762-4.665.854-5.654 2.54-10.179" fill="#7F4341"/><path d="M40.363 196.757c.736-2.088 1.45-4.184 2.212-6.262.18-.499-.618-.714-.797-.219-.762 2.079-1.476 4.175-2.19 6.262-.175.503.622.718.797.219h-.022ZM43.906 198.31a39.405 39.405 0 0 1 1.187-5.837c.158-.512-.64-.731-.797-.224a39.587 39.587 0 0 0-1.187 5.842.436.436 0 0 0 .29.508.416.416 0 0 0 .508-.289Z" fill="#32142A"/><path d="m123.702 180.806 2.089 6.127c1.13 3.317.876 2.328 1.861 6.498.57 2.42 1.065 3.501.741 6.026-.487 3.79-4.248 8.428-6.088 5.833-1.265-1.781-1.554-4.056-1.808-6.227l-.946-8.091c.184 1.566-.955 6.826-2.676 6.673-1.314-.118-.342-2.814-.302-3.82.175-4.499.175-4.499-1.826-11.982" fill="#7F4341"/><path d="M125.485 194.569c.47 1.265.87 2.555 1.2 3.864.304 1.316.533 2.649.687 3.991.066.521.876.525.824 0a31.247 31.247 0 0 0-1.914-8.052c-.18-.499-.977-.285-.797.219v-.022ZM123.672 194.73a41.149 41.149 0 0 1 1.511 5.471c.261 1.575.426 3.165.494 4.761.035.525.876.529.828 0a41.873 41.873 0 0 0-.504-4.858 40.395 40.395 0 0 0-1.532-5.592c-.167-.504-.964-.289-.797.218ZM121.648 196.004a40.868 40.868 0 0 1 1.516 5.474c.259 1.575.424 3.163.495 4.757.03.53.876.534.823 0a42.09 42.09 0 0 0-.499-4.857 40.25 40.25 0 0 0-1.537-5.593c-.167-.503-.964-.289-.798.219Z" fill="#32142A"/><path d="M162.403 49.34c-.556 1.506.565 3.23 2.001 3.725a4.421 4.421 0 0 0 4.27-.836c.56-.495-.263-1.313-.815-.814a3.283 3.283 0 0 1-3.03.573c-.907-.276-1.664-1.383-1.314-2.341a.588.588 0 0 0-.403-.713.59.59 0 0 0-.714.407h.005Z" fill="#E48929"/><path d="m135.474 263.583.07 1.93-6.424-.783-.232-1.002 6.586-.145ZM159.504 264.393l7.331-1.873.328-1.378-7.659.687v2.564Z" fill="#EFB086"/></svg>