<svg width="105" height="176" fill="none" xmlns="http://www.w3.org/2000/svg"><path d="M11.643 130.115c-2.479 2.341-4.783 6.236-5.115 9.627-.123 1.265-.07 2.6.696 3.685.256.366.595.666.99.875 1.603.805 3.11-.332 3.941-1.641 1.752-2.726 1.314-5.352 3.364-7.877a7.366 7.366 0 0 0 1.913 5.737.636.636 0 0 0 .719.181.637.637 0 0 0 .407-.618 48.808 48.808 0 0 1 .482-7.497l-7.397-2.472Z" fill="#FFC9A0"/><path d="m9.641 132.395 9.158 2.184.162-1.318-7.739-2.735-1.58 1.869ZM9.54 135.069a24.944 24.944 0 0 0-1.839 4.065 40.04 40.04 0 0 0-1.099 4.337c-.144.682.902.971 1.047.289a40.298 40.298 0 0 1 1.064-4.228 22.985 22.985 0 0 1 1.752-3.938c.337-.613-.6-1.16-.937-.547l.013.022ZM11.739 136.093a24.574 24.574 0 0 0-1.84 4.083 39.064 39.064 0 0 0-1.103 4.336c-.144.683.902.972 1.047.289.28-1.427.635-2.838 1.064-4.227a22.831 22.831 0 0 1 1.752-3.939c.337-.612-.6-1.159-.938-.547l.018.005Z" fill="#EFB086"/><path d="M81.13 169.81c-.175-.205-.539-.162-.71-.372-.902-1.129-1.147-3.273-1.751-4.043a6.186 6.186 0 0 0-4.485-2.188c-7.34-.245-14.28.818-20.806-2.551l-.105 8.143c-.05 1.546.057 3.093.32 4.617.074.503.192 1.072.635 1.313.274.123.577.17.875.136l4.651-.057a.88.88 0 0 0 .85-.771c.06-.458.039-.923-.066-1.374 2.628 2.088 1.98 2.215 3.981 2.442.797.088 2.44.118 4.38.118.13-.284.291-.552.481-.8a.314.314 0 0 1 .158-.127c.105-.022.201.065.271.148l.684.771c1.72 0 3.543-.053 5.154-.092.16-.302.399-.553.692-.727.215.219.438.438.609.692 1.314-.035 2.369-.07 2.965-.097.315.025.628-.07.875-.266.162-.21.25-.467.254-.731.179-1.126.268-2.265.267-3.405a1.164 1.164 0 0 0-.179-.779Z" fill="#32142A"/><path d="M53.286 169.456c1.537.162 3.609.245 5.15.288 4.07.126 8.141.135 12.214.027 1.879-.053 3.762-.123 5.636-.276a16.078 16.078 0 0 0 3.504-.516c.665-.21.95.835.289 1.046a18.673 18.673 0 0 1-4.147.582c-4.073.306-8.177.337-12.263.315-3.28 0-7.103.039-10.365-.307l-.018-1.159Z" fill="#7F4341"/><path d="M24.25 169.81c.176-.205.54-.162.706-.372.907-1.129 1.152-3.273 1.752-4.043a6.183 6.183 0 0 1 4.489-2.188c7.34-.245 14.627 1.387 21.152-1.983l-.074 6.416a35.304 35.304 0 0 1-.487 5.776c-.074.503-.192 1.072-.635 1.313a1.688 1.688 0 0 1-.876.136l-4.646-.057a.88.88 0 0 1-.85-.771 3.747 3.747 0 0 1 .066-1.374c-2.628 2.088-1.98 2.215-3.98 2.442-.802.088-2.44.118-4.38.118a4.209 4.209 0 0 0-.477-.8.309.309 0 0 0-.158-.127c-.105-.022-.202.065-.272.148l-.683.771c-1.721 0-3.547-.053-5.159-.092a1.797 1.797 0 0 0-.692-.727 7.816 7.816 0 0 0-.608.692c-1.314-.035-2.365-.07-2.96-.097a.94.94 0 0 1-.82-.211.936.936 0 0 1-.31-.786 22.212 22.212 0 0 1-.264-3.405c-.04-.271.02-.548.167-.779Z" fill="#32142A"/><path d="M52.204 169.451c-3.236.346-7.16.368-10.405.385-4.02.022-8.05 0-12.06-.293a18.142 18.142 0 0 1-4.148-.564c-.666-.21-.955.835-.29 1.046 1.172.308 2.373.488 3.583.538 1.857.157 3.718.232 5.575.284 4.16.117 8.321.117 12.481 0 1.546-.048 3.657-.109 5.194-.271" fill="#7F4341"/><path d="m66.525 125.568-25.44-.223c.521 13.316 2.028 26.615 3.324 39.879l7.848-.044c.17-9.719.5-19.451.359-29.166a.543.543 0 0 1 1.086 0c.03 2.31 0 4.625 0 6.94-.074 7.404-.263 14.813-.372 22.217l6.13-.03c2.887-12.743 4.853-26.729 7.065-39.573ZM17.962 101.373c-2.807-8.179-2.772-17.019-2.71-25.666.083-11.255.166-22.514.779-33.752.24-4.376.565-8.787 1.752-13.01 2.36-8.389 8.119-15.645 15.384-20.471 7.266-4.827 15.95-7.308 24.66-7.798C64.721.286 71.771 1.113 78.1 3.9c6.329 2.787 11.895 7.544 14.89 13.754 2.286 4.708 3.04 9.999 3.504 15.21a149.34 149.34 0 0 1-12.538 73.694" fill="#32142A"/><path d="M76.046 8.728c9.774 3.645 16.024 18.54 16.247 20.602 1.502 13.702-5.102 35.411-8.57 48.421-1.976 7.409-3.29 10.783-2.387 18.458.114.976 1.668.99 1.55 0-1.677-14.248 5.667-29.122 9.324-42.579 1.813-6.66 1.857-13.412 1.498-20.348-.276-5.308-.119-6.464-2.72-11.115-2.847-5.086-8.842-12.162-14.351-14.218-.933-.35-1.34 1.146-.412 1.492l-.18-.713ZM23.515 87.671c-.552-18.13-.219-19.167 2.593-30.908.232-.967 1.716-6.817-.119-1.75-4.177 11.465-4.9 24.2-4.633 36.4 0 .993 1.572.998 1.55 0l.61-3.742ZM36.421 73.349c0-7.111-.604-14.608-1.24-21.692-.306-3.379-1.02-.876-.914.109a89.42 89.42 0 0 1 0 21.333c-.123.99 1.55.998 1.55 0l.604.25Z" fill="#7F4341"/><path d="m85.312 92.258-4.769-15.413c-1.423-4.595-3.801-10.02-8.588-10.502.353-4.303.711-8.604 1.073-12.9-6.293.936-21.459 3.062-27.765 3.986l-.801 9.294c-.727.692-1.722 1.003-2.667 1.34A29.607 29.607 0 0 0 25.889 81.69L3.554 128.006c8.036 2.849 16.642 5.689 24.704 8.537.438-.875.876-1.75 1.314-2.599l1.195-2.669c1.314-3.313 2.028-6.652 2.82-10 .084-.367 1.095-.262 1.052.101-.307 2.582-.21 3.308-.618 4.91-.17.678-.35 1.352-.547 2.026l35.788-.201c-.092-.683-.162-1.541-.311-2.963-.17-1.637.937-1.483 1.165-.437.206.958.25.875.482 1.829 1.033 4.306 1.541 6.319 3.621 10.559l21.359-5.649c-2.265-13.352-6.272-26.296-10.266-39.192Z" fill="#E48929"/><path d="m1.46 122.19 37.186.459 37.185.438 21.073.258c.999 0 .999-1.536 0-1.549l-37.185-.438-37.19-.437-21.068-.258c-.999 0-.999 1.536 0 1.549v-.022ZM1.46 133.445l37.186.438 37.185.459 21.073.258c.999 0 .999-1.536 0-1.549l-37.185-.437-37.19-.482-21.068-.258c-.999 0-.999 1.536 0 1.549v.022ZM4.07 113.153a975.779 975.779 0 0 1 38.977.254c12.99.344 25.973.953 38.95 1.825 7.278.49 14.551 1.06 21.818 1.711.994.092.985-1.457 0-1.545a955.286 955.286 0 0 0-38.897-2.708 970.781 970.781 0 0 0-38.977-1.134 974.565 974.565 0 0 0-21.896.053c-.999 0-1.003 1.562 0 1.544h.026ZM7.995 104.449h88.9a.776.776 0 0 0 .776-.774.777.777 0 0 0-.775-.775H7.995a.777.777 0 0 0-.548 1.323.776.776 0 0 0 .548.226ZM13.224 93.146l59.12.35 16.717.096c.998 0 .998-1.54 0-1.544l-59.121-.35-16.716-.097c-.999 0-.999 1.54 0 1.545ZM19.324 75.572h72.351a.776.776 0 1 0 0-1.55h-72.35a.775.775 0 1 0 0 1.55ZM19.324 84.433h72.351a.775.775 0 1 0 0-1.549h-72.35a.775.775 0 1 0 0 1.55Z" fill="#FAC7B7"/><path d="M16.346 138.696a959.147 959.147 0 0 1 7.314-51.864 921.67 921.67 0 0 1 2.557-14.441c.18-.976-1.314-1.392-1.493-.412a965.874 965.874 0 0 0-8.128 51.852c-.637 4.96-1.237 9.919-1.8 14.879-.11.989 1.44.98 1.55 0v-.014ZM26.9 141.952l8.391-57.383 2.365-16.192c.14-.975-1.353-1.395-1.498-.41l-8.382 57.378-2.36 16.191c-.145.976 1.349 1.396 1.493.412l-.008.004ZM36.968 141.952l8.396-57.383 2.365-16.192c.144-.975-1.35-1.395-1.494-.41l-8.382 57.378-2.365 16.191c-.14.976 1.354 1.396 1.494.412l-.014.004ZM54.026 133.064c-.617-16.887.696-33.778 2.79-50.53.598-4.825 1.26-9.639 1.984-14.44.14-.977-1.353-1.397-1.498-.438-2.496 16.948-4.528 34.006-4.918 51.147-.105 4.752-.083 9.509.092 14.257.035.993 1.585.998 1.55 0v.004ZM66.608 134.373a405.023 405.023 0 0 1 1.721-52.662 370.45 370.45 0 0 1 1.752-14.786c.136-.976-1.358-1.4-1.493-.438a404.383 404.383 0 0 0-3.53 67.903c.03.994 1.58.998 1.55 0v-.017ZM77.863 133.134a391.284 391.284 0 0 1 1.721-51.563 363.39 363.39 0 0 1 1.752-14.646c.136-.976-1.358-1.4-1.494-.438a396.029 396.029 0 0 0-3.718 51.817c-.026 4.936.043 9.872.206 14.808.03.994 1.581.998 1.55 0l-.017.022Z" fill="#FAC7B7"/><path d="M35.366 38.279c-1.502 3.265.665 7.269 3.788 9.05 3.122 1.78 6.889 1.912 10.48 1.995l10.204.245c3.788.092 7.628.175 11.311-.704 3.683-.88 7.266-2.845 9.289-6.048 1.633-2.595 2.11-5.724 2.553-8.752.815-5.588 1.467-11.864-1.97-16.34-2.597-3.387-7.09-4.919-11.36-4.814-4.27.105-8.378 1.606-12.263 3.352a98.205 98.205 0 0 0-11.342 6.013l-10.69 16.003Z" fill="#FFC9A0"/><path d="M38.974 44.134c-2.487.394-5.163.219-7.326-1.072-2.164-1.29-3.657-3.881-3.136-6.35a2.84 2.84 0 0 1 .7-1.44c.763-.752 1.967-.756 3.04-.713l9.7.403" fill="#FFC9A0"/><path d="M73.181 13.042a27.249 27.249 0 0 0 7.895 11.441 27.28 27.28 0 0 0 12.513 6.064c2.19-5.506-.622-12.048-5.255-15.72-4.633-3.67-10.72-5.005-16.615-5.64a88.29 88.29 0 0 0-8.141-.499" fill="#32142A"/><path d="M35.02 41.233a4.618 4.618 0 0 1-4.17-3.365.543.543 0 0 0-1.046.288 5.688 5.688 0 0 0 5.216 4.162c.696.026.696-1.059 0-1.085ZM35.256 38.756c-.064.019-.13.033-.197.044l.145-.022a1.358 1.358 0 0 1-.377 0h.145a1.5 1.5 0 0 1-.237-.048l-.11-.04c-.078-.026.11.053.049.022l-.044-.022a1.623 1.623 0 0 1-.21-.118l-.053-.039c-.052-.03.097.079.048.04l-.096-.084c-.057-.052-.105-.11-.158-.166-.052-.057.08.11.031.04l-.026-.04a.722.722 0 0 1-.066-.11c0-.035-.035-.07-.052-.1-.018-.03.048.131 0 .048a.204.204 0 0 1 0-.048 1.165 1.165 0 0 1-.057-.245v.144-.026a.604.604 0 0 0-.158-.385.574.574 0 0 0-.385-.158.536.536 0 0 0-.381.158.517.517 0 0 0-.158.385c.03.312.133.612.302.875.171.253.39.47.644.64a2.055 2.055 0 0 0 1.673.275.542.542 0 1 0-.29-1.046l.018.026Z" fill="#B26D55"/><path d="M18.694 37.378c10.703 1.785 24.344 1.536 34.421-2.486C63.192 30.87 71.92 22.722 75.012 12.33c.21-.704.385-5.063 0-5.689a2.724 2.724 0 0 0-1.555-.997c-3.915-1.348-12.761-2.04-16.886-2.114-15.915-.289-30.402 12.73-37.124 27.131l-.753 6.718ZM69.603 29.269a17.805 17.805 0 0 1 3.101.836c.17.06.333.13.5.192.166.061.166.07 0 0l.183.083c.634.281 1.25.601 1.844.959.306.18.609.372.902.577l.438.307.215.162c-.136-.11-.136-.105 0 0 .3.272.689.427 1.094.437.41.002.804-.155 1.1-.438.512-.56.678-1.658 0-2.188a19.306 19.306 0 0 0-8.562-3.912 1.59 1.59 0 0 0-1.91 1.081c-.17.753.233 1.75 1.087 1.904h.008Z" fill="#32142A"/><path d="m60.192 35.649 2.19 3.063c.604.845 1.213 1.96.574 2.783a2.592 2.592 0 0 1-1.213.731 11.865 11.865 0 0 1-4.62.63 2.38 2.38 0 0 1-1.288-.363c-.723-.551-.477-1.588-.17-2.398l1.545-4.074s.806-3.418 2.982-.372Z" fill="#C05929"/><path d="M22.153 38.944c-.263-2.91 1.914-5.25 4.38-6.485a19.283 19.283 0 0 1 9.976-1.825c7.83.622 11.92-2.512 16.41-6.293a18.936 18.936 0 0 0 5.723-8.117c2.19-6.407-.723-.832-1.23.022-3.066 5.177-7.919 8.472-13.454 10.83a29.797 29.797 0 0 1-8.978 2.189c-3.253.315-7.296-.307-10.217 1.312-2.728 1.515-3.42 4.814-3.42 8.105 0 3.474.981 3.474.815.276l-.005-.014Z" fill="#7F4341"/><path d="M47.755 32.323c8.47-3.163 16.085-9.855 19.707-18.13 1.025-2.34.591-4.66.753-8.266.044-.989-.438-.438-.626.56a32.597 32.597 0 0 1-13.725 20.961 39.392 39.392 0 0 1-6.525 3.383c-6.31 2.726-4.353 2.932.412 1.492h.004ZM61.532 4.072C49.314 2.899 36.811 7.765 28.25 16.495c-2.443 2.494-5.05 5.08-6.25 8.354-2.754 7.527.802 1.624 1.341.783C32.646 11.073 39.81 8.006 51.486 5.984c3.31-.573 8.698-.718 12.052-.718 2.715 0-1.038-1.103-2.023-1.194h.017Z" fill="#7F4341"/><path d="M39.154 20.293c4.34-6.848 10.694-9.106 18.805-9.272.998 0 .254-.77-.745-.753-8.666.175-17.01 3.728-22.334 13.837-.465.875 1.559-.053 2.093-.875l2.18-2.937ZM22.355 46.913a24.261 24.261 0 0 0 7.777-9.26c-.293.123-.582.876-.876.976 8.518 1.431 17.352-.398 25.177-4.052 7.345-3.43 13.541-8.454 17.798-15.316 2.365-3.825 4.305-8.345 4.38-12.84.043-2.883-.482-1.553-.714-.582a41.126 41.126 0 0 1-11.194 19.767c-5.794 5.689-11.053 9.413-19.033 10.84a54.45 54.45 0 0 1-15.997.092.789.789 0 0 0-.876.354c-1.647 3.457-2.956 5.444-6.333 8.966-.683.714-4.668 3.781-.105 1.073l-.004-.018Z" fill="#7F4341"/><path d="m68.54 53.504-17.807 2.485a34.11 34.11 0 0 1 1.2-8.358c.044-.274.175-.527.372-.722.287-.179.631-.243.964-.18a66.55 66.55 0 0 0 15.327-.849c.225-.063.463-.055.683.022.438.21.438.827.338 1.313l-1.095 6.297" fill="#FFC9A0"/><path d="M52.44 109.709a47.005 47.005 0 0 1-10.553-18.314c-.504-1.658-.916-3.395-.653-5.106.263-1.711 1.353-3.396 3.013-3.9 1.66-.503 3.57.32 4.77 1.62 1.2 1.3 1.878 2.989 2.526 4.634l2.536 6.446c.63-4.704 1.313-9.627 4.015-13.522 1.017-1.483 2.484-2.87 4.28-2.94a4.858 4.858 0 0 1 3.437 1.505c2.536 2.463 2.925 6.52 1.879 9.898-1.047 3.379-3.276 6.236-5.466 9.01l-8.43 10.704" fill="#fff"/><path d="M70.97 33.365c-1.2.372-2.107 1.934-2.098 3.16a1.312 1.312 0 0 0 .613 1.154c1.283.692 2.886-2.008 3.228-2.905.403-1.064-.254-1.598-1.279-1.501a2.565 2.565 0 0 0-.464.092Z" fill="#32142A"/><path d="M44.212 58.418c9.67-2.245 19.54-3.335 29.399-4.376.687-.07.692-1.156 0-1.081-9.955 1.041-19.926 2.14-29.684 4.406-.683.158-.394 1.204.285 1.046v.005ZM43.612 67.778c9.436.43 18.892-.027 28.242-1.365.688-.1.395-1.147-.289-1.046a148.939 148.939 0 0 1-27.953 1.313c-.7-.035-.696 1.05 0 1.085v.013Z" fill="#FAC7B7"/><path d="M45.403 66.597c0-2.78.583-5.523.591-8.315a.543.543 0 0 0-1.086 0c0 2.779-.578 5.523-.59 8.315a.542.542 0 1 0 1.085 0ZM51.412 65.76v-7.285a.543.543 0 0 0-1.082 0v7.286a.542.542 0 0 0 1.082 0ZM48.451 65.179v-7.3a.542.542 0 1 0-1.086 0v7.3a.542.542 0 0 0 1.086 0ZM54.377 64.58v-7.278a.543.543 0 0 0-1.087 0v7.29a.542.542 0 1 0 1.087 0v-.013ZM60.297 62.803v-7.291a.543.543 0 0 0-1.081 0v7.29a.543.543 0 0 0 1.081 0ZM66.823 62.212v-7.29a.542.542 0 0 0-1.082 0v7.29a.543.543 0 0 0 1.082 0ZM57.04 66.802v-10.73a.543.543 0 0 0-1.083 0v10.73a.543.543 0 0 0 1.082 0ZM63.2 65c.135-3.4.16-6.803.075-10.21a.542.542 0 1 0-1.086 0c.088 3.404.063 6.808-.074 10.21-.026.695 1.06.695 1.086 0ZM70.282 64.544v-10.41a.542.542 0 1 0-1.086 0v10.41a.542.542 0 0 0 1.086 0ZM72.257 65.345v-10.41a.542.542 0 1 0-1.086 0v10.41a.542.542 0 1 0 1.086 0Z" fill="#FAC7B7"/><path d="M69.284 49.228s-12.346.827-17.763.144l17.018 4.131.745-4.275Z" fill="#EFB086"/></svg>