<svg width="82" height="75" fill="none" xmlns="http://www.w3.org/2000/svg"><path d="M26.24 3.046c-5.822 2.552-10.988 6.669-14.104 11.69-7.79 12.597-7.708 31.697 5.494 40.67 15.99 10.867 44.28 5.352 46.166-16.877C65.682 16.136 50.266-7.327 26.24 3.046Z" fill="#F7BC28"/><path d="M28.946 9.55c-4.346 1.893-8.118 4.94-10.414 8.644-5.822 9.386-5.74 23.546 4.1 30.214 11.89 8.069 32.882 3.952 34.276-12.513C58.22 19.347 46.822 1.894 28.946 9.55Z" fill="#FBFAF7"/><path d="M48.708 52.69c4.018 5.104 6.478 7.573 10.25 10.702 2.706 2.223 5.412 4.446 8.036 6.668 2.214 1.811 4.838 3.787 7.626 3.293 2.952-.494 5.002-3.951 4.018-6.833-.328-.988-.984-1.893-1.722-2.717C71.832 57.3 65.928 51.454 59.368 46.35l-10.66 6.34Z" fill="#F7BC28"/><path d="m63.14 66.767 9.43-8.315 1.804 2.058-9.184 7.904-2.05-1.647ZM66.42 69.566l8.938-7.738 1.558 1.975-8.61 7.328-1.886-1.565Z" fill="#E48929"/></svg>