<svg width="211" height="329" fill="none" xmlns="http://www.w3.org/2000/svg"><path d="M41.287 173.97a97.57 97.57 0 0 0-39.568 4.734 1.263 1.263 0 0 0-.872 1.131c-.008.169.017.338.075.497.19.454.516.838.933 1.099.819.507 1.822.573 2.785.621 4.146.204 8.298.273 12.455.206 2.142-.035 4.349-.123 6.302-1.011 1.27-.578 2.374-1.47 3.635-2.066 4.349-2.043 9.516-.162 14.268-.875M192.059 306.227a27.72 27.72 0 0 0 1.314 12.454c.25.722.53 1.536.193 2.228-.394.801-1.415 1.024-2.304 1.151a282.152 282.152 0 0 1-38.591 2.77c-.801 0-1.681-.031-2.264-.582-.788-.749-.569-2.14.167-2.941.735-.801 1.83-1.16 2.868-1.479a277.251 277.251 0 0 1 25.081-6.499 2.828 2.828 0 0 0 2.724-2.188l2.627-6.699M188.784 62.822a318.23 318.23 0 0 1 2.75-49.764c.171-1.265.954-2.941 2.163-2.525a166.49 166.49 0 0 1 7.791 26.414c.368 1.78.688 3.715-.118 5.347-.845 1.702-2.772 2.735-3.407 4.53-.482 1.347-.119 2.83.245 4.213l2.763 10.503M127.035 31.547c-.368-4.727-1.984-10.543-2.886-15.23-.815-4.23-2.225-8.826-.46-12.69a1.257 1.257 0 0 1 1.635-.61c.198.086.371.22.502.391a7.551 7.551 0 0 1 1.182 2.762l2.558 10.187a49.3 49.3 0 0 1 1.011-12.874c.154-.72.441-1.406.846-2.022a1.272 1.272 0 0 1 1.97-.124c.172.185.285.417.324.667.929 5.689 1.411 8.376 1.45 14.147 0-.402 3.42-.052 3.687 0 2.304.495 2.497 1.974 2.532 4.136.074 4.223-3.263 5.295-5.01 8.564a8.967 8.967 0 0 0-.946 3.3" fill="#B26D55"/><path d="M39.299 183.404a3.536 3.536 0 0 1-.999 2.626 2.785 2.785 0 0 1-2.654.722 3.322 3.322 0 0 1-2.054-2.135 9.92 9.92 0 0 1-.438-3.029c-.162-4.533-.32-9.119.618-13.565.054-.497.276-.96.63-1.313.392-.249.85-.373 1.314-.355.758-.039 1.572-.065 2.19.35.924.609 1.09 1.869 1.165 2.967l.67 9.759" fill="#39B55D"/><path d="m117.006 146.856-3.009-11.137c-3.543-34.177 0-68.888 6.793-102.566l20.386.752c10.891 25.294 15.507 71.024 7.006 101.148l20.61 1.751c.981.083 2.049.205 2.746.906.696.7.805 1.781.875 2.765a368.749 368.749 0 0 1-.525 56.85c-.075.875-.188 1.789-.801 2.389-.876.875-2.326.626-3.504.289-3.793-1.077-3.477-1.536-7.55-2.718-3.722-1.081-26.508-10.852-31.606-13.657-.258-.145-3.442 3.684-3.893 4.082a17.279 17.279 0 0 1-7.568 3.742s-36.445 6.77-83.107-6.958c0 0-.385-11.014-.087-15.601 21.546-7.465 55.153-9.557 79.205-8.966" fill="#39B55D"/><path d="M167.408 196.445a1181.107 1181.107 0 0 0 6.906 110.714l25.637 1.807c5.965-42.408 11.929-85.6 4.975-127.859l-37.518 15.338Z" fill="#153A23"/><path d="M122.892 36.063c-1.082.091-2.225.078-3.18-.438-.954-.516-1.655-1.68-1.314-2.735.438-1.475 2.335-1.785 3.854-1.83 6.131-.157 12.263-.236 18.354.329.986.092 2.102.271 2.658 1.103.557.831.241 2.188-.521 2.91s-1.821 1.063-2.846 1.313a36.683 36.683 0 0 1-13.703.726M113.051 159.384c-2.294-1.934-2.448-5.584-1.843-8.214l1.217-5.321a23.492 23.492 0 0 1 1.445-4.774 1.48 1.48 0 0 1 1.043-.958c.333-.032.669.032.967.183 2.663 1.169 3.206 3.913 2.996 6.289-.285 3.273-1.454 6.481-2.628 9.666-.315.876-.665 1.782-1.498 2.438" fill="#39B55D"/><path d="M184.575 60.245c-9.941 26.147-14.776 56.271-15.766 76.581l-1.248 65.535c15.525 5.606 34.597-3.728 40.176-19.648 1.984-5.689 2.391-11.78 2.584-17.802.972-30.05-2.886-74.953-6.735-104.758l-19.011.092ZM126.43 127.155c2.877.341 5.772.914 8.68.923 1.826 0 7.69.341 8.084-2.262.351-2.289-2.715-3.615-4.379-4.337-4.165-1.777-8.019-3.904-12.021-5.982a312.597 312.597 0 0 0-17.058-8.24c-9.95-4.442-20.145-8.372-30.471-11.816-2.378-.792-5.102-1.435-7.445-.984a2.339 2.339 0 0 0-1.895 2.58c.047.39.193.763.423 1.082 6.131 8.42 16.379 14.551 27.275 17.282" fill="#153A23"/><path d="M112.416 141.714c4.095 12.349 13.138 10.668 17.224 10.738 2.628.044 5.483-.468 7.309-2.367 2.777-2.884-3.542-14.879-4.423-18.795l-2.544-11.317a13.158 13.158 0 0 0-1.06-3.312 11.806 11.806 0 0 0-2.96-3.317 56.297 56.297 0 0 0-32.526-13.102 135.687 135.687 0 0 1 14.045 32.317l4.935 9.155Z" fill="#FAC8B8"/><path d="M113.27 141.819c-1.896-4.333-1.314-6.783-1.108-8.726-1.773.836-5.159 1.05-5.864 2.59-.153.329-2.36.569-2.338.906.315 5.326 4.252 12.975 6.753 17.833" fill="#B26D56"/><path d="M93.436 100.242a68.84 68.84 0 0 0-4.13 23.258c-.043 4.044.438 8.315 2.628 11.706a12.295 12.295 0 0 0 10.436 5.711c3.998-.105 7.773-2.394 10.073-5.855 3.503-5.282 3.455-12.428 3.275-19.067l-22.282-15.753Z" fill="#B26D55"/><path d="M93.436 100.242c.254 4.52 2.488 9.627 4.498 13.706 1.944 3.938 4.62 5.82 7.164 6.564 4.161 1.221 8.759-4.517 11.203-8.105l-22.865-12.165Z" fill="#FAC7B7"/><path d="M103.246 130.59a.246.246 0 0 1-.329.039c-.823-.573-1.751-.984-2.601-1.523-.85-.538-1.752-1.365-2.071-2.398-.578-1.943 1.313-3.501 3.092-2.428.492.324.935.72 1.313 1.172.009.01.021.016.034.019.013.002.027 0 .038-.006a.061.061 0 0 0 .028-.027.056.056 0 0 0 .005-.038 2.126 2.126 0 0 1 .329-1.615c.539-.818 1.782-1.602 2.807-1.532 1.445.101 1.594 1.751 1.314 2.845-.324 1.343-1.52 2.625-2.391 3.649l-1.568 1.843Z" fill="#F1673C"/><path d="M91.334 117.978c.211.783.491 1.546.837 2.28.38.875 1.147 1.672 2.19 1.348.954-.302 1.493-1.313 1.895-2.158a8.486 8.486 0 0 0 .614-2.761l-.719.197a4.71 4.71 0 0 0 3.066 2.262c.486.105.696-.638.206-.743a3.987 3.987 0 0 1-2.628-1.908.39.39 0 0 0-.718.192 7.767 7.767 0 0 1-.46 2.258c-.293.657-.71 1.593-1.423 1.891-.841.35-1.266-.757-1.516-1.344a11.238 11.238 0 0 1-.6-1.72.39.39 0 0 0-.181-.233.39.39 0 0 0-.563.439Z" fill="#010101"/><path d="M96.077 118.932c.238.273.493.532.762.775a1.76 1.76 0 0 0 1.117.512.4.4 0 0 0 .385-.39.389.389 0 0 0-.385-.385h-.101.035-.053c-.039 0-.148-.066-.03 0-.035 0-.075-.031-.11-.053a1.534 1.534 0 0 1-.214-.135l-.053-.04c.096.066.026.022 0 0l-.105-.087a9.253 9.253 0 0 1-.71-.727.394.394 0 0 0-.547 0 .399.399 0 0 0 0 .547l.009-.017Z" fill="#010101"/><path d="M94.29 112.762a.848.848 0 0 1-.534-.937c.056-.298.176-.582.35-.831a.587.587 0 0 1 .153-.176.587.587 0 0 1 .21-.1.675.675 0 0 1 .39.114 15.444 15.444 0 0 1 3.066 2 5.8 5.8 0 0 1 1.712 2.555.21.21 0 0 1-.315.237l-1.778-1.173a17.175 17.175 0 0 0-3.245-1.689h-.009Z" fill="#FAC7B7"/><path d="M89.7 116.403c-.709 1.999-1.559 4.717-2.268 6.717-.219.612-.438 1.291-.206 1.899.464 1.238 2.22 1.186 3.504.902l-1.03-9.518Z" fill="#C63D32"/><path d="M115.442 125.99c-3.354-.175-4.664 4.635-4.931 7.142-.735 6.814 1.857 15.5 8.978 17.894.841.284 3.166.437 3.648-.324a2.38 2.38 0 0 0 .188-1.602 73.847 73.847 0 0 0-5.531-20.567" fill="#FAC8B8"/><path d="M98.008 100.728c1.218 5.898-1.34 9.299 8.36 16.629 1.967 1.487-.411-.937-.849-1.313-5.347-4.481-6.57-11.325-6.403-14.774.03-.564-.928-2.726-.81-2.188l-.298 1.646Z" fill="#fff"/><path d="M113.235 116.389a25.809 25.809 0 0 0-4.489-3.99 19.232 19.232 0 0 0-4.51-2.525c-.526-.215-1.883-.346-1.362-.132 1.716.7 3.902 2.311 5.404 3.4 1.502 1.09 2.627 3.024 3.81 4.438 0 0 .473-.438 1.025-1.059l.122-.132Z" fill="#fff"/><path d="M105.282 103.743c1.608 5.378 5.234 7.693 9.083 11.312 1.003.945 3.596 2.433 4.358 3.588.998 1.51 1.55 2.241 2.189 3.938 1.41 3.624 2.961 8.249 3.631 12.096.334 1.639.379 3.325.131 4.98a21.545 21.545 0 0 1-1.086 4.223c-.18.529-.092 1.313.162.792 1.261-2.547 2.444-8 2.107-10.21-.377-2.446-1.673-5.085-2.978-8.55-1.231-3.274-2.628-8.433-4.94-11.116-1.853-2.135-3.718-2.319-6.075-3.855-3.604-2.35-5.899-5.063-6.827-8.17-.162-.538.07.438.232.989l.013-.017Z" fill="#fff"/><path d="M118.688 148.317c1.826.403 2.789.972 4.642 1.212 1.778.228 4.931.438 6.713.031 2.895-.661 3.031-4.499 2.588-7.146-.306-1.851-1.611-2.845-2.299-4.573a35.243 35.243 0 0 1-1.673-5.855c-.753-3.667-1.156-7.409-2.093-11.041-.937-3.632-2.448-7.273-5.084-10.065a.44.44 0 0 0-.64.604c4.616 4.897 4.739 12.314 5.838 18.646.613 3.501 1.371 5.772 3.862 9.334 1.559 2.223 1.962 6.74-.731 8.753-1.59 1.19-3.941.735-5.763.52a60.186 60.186 0 0 1-5.982-1.015c-.548-.118-1.774 0-1.222.109l1.844.486Z" fill="#fff"/><path d="M113.187 140.725a3.634 3.634 0 0 0 3.162-1.602c.85-1.173 2.19-2.941 2.334-4.345.324-3.331-.841-6.468-2.111-9.628-.21-.521-.981-.1-.775.438 1.073 2.66 1.161 5.566.95 8.393-.157 2.131-.367 6.665-3.394 6.442-.564-.044-.731.267-.166.306v-.004Z" fill="#fff"/><path d="M115.854 144.12a8.894 8.894 0 0 0 5.597-3.137c1.782-2.158.061-5.173-.587-7.755-.136-.547-.972-3.089-1.077-2.533-.123.656 1.462 7.68.346 9.955-1.117 2.276-3.539 2.705-5.759 3.063-.561.092-.806.753-.25.661l1.73-.254Z" fill="#fff"/><path d="m93.436 100.242 35.486 16.419-2.628-24.034-20.71-9.434-12.148 17.049Z" fill="#153A23"/><path d="M114.365 115.055c1.559-.486 2.737-.81 4.515.114a5.688 5.688 0 0 1 3.101 4.813c.022 2.302-1.651 4.402-3.753 5.339-2.102.936-4.55.875-6.78.284" fill="#B26D56"/><path d="M115.552 123.05a4.316 4.316 0 0 0 4.13-2.626 2.215 2.215 0 0 0 .122-1.545 3.61 3.61 0 0 0-.569-1.01 4.22 4.22 0 0 0-1.555-1.357 4.458 4.458 0 0 0-2.921-.223c-.486.109-.28.853.206.748a3.508 3.508 0 0 1 2.575.28 3.895 3.895 0 0 1 1.388 1.492c.513.924-.188 1.996-.875 2.626a3.534 3.534 0 0 1-2.484.875c-.499-.026-.499.749 0 .775l-.017-.035Z" fill="#010101"/><path d="M115.359 121.089a3.558 3.558 0 0 0 1.108-.267c.307-.139.553-.382.697-.687a1.169 1.169 0 0 0-.062-1.085 1.629 1.629 0 0 0-.827-.665 3.404 3.404 0 0 0-1.244-.149.388.388 0 0 0-.386.385.395.395 0 0 0 .386.39h.644l.144.03c.085.017.168.04.25.07-.066-.022.048.027.057.031l.109.066c.083.052-.057-.049 0 0a.575.575 0 0 1 .092.087c.026.031.092.118.039.04 0 .03.04.056.057.091.018.035.053.119 0 .027a.642.642 0 0 1 .035.113c0 .044 0 .04 0 0v.062a.204.204 0 0 1 0 .092c.035-.101 0 .021 0 .043 0 .022 0 .035 0 0l-.026.053-.066.101c.04-.053 0 0 0 0l-.087.087c-.035.026-.031.026 0 0l-.048.035a1.267 1.267 0 0 1-.202.109c.075-.03-.061 0-.074.022a.747.747 0 0 1-.14.04c-.082.022-.166.04-.25.052l-.14.022h-.07a.394.394 0 0 0-.386.39c0 .183.171.411.386.385l.004.03Z" fill="#010101"/><path d="m160.042 197.298 8.5 3.851 5.054-64.271c-2.834-.328-5.041-.035-7.883-.363l-5.671 60.783Z" fill="#153A23"/><path d="M205.837 187.032s-7.126 14.003-29 16.957c0 0 17.561.7 30.265-5.553l-1.265-11.404Z" fill="#122D1C"/><path d="M35.016 169.318a20.37 20.37 0 0 1 3.13.197.564.564 0 0 0 .67-.381.545.545 0 0 0-.38-.665 21.75 21.75 0 0 0-3.42-.237.546.546 0 0 0-.544.543.543.543 0 0 0 .544.543ZM33.456 172.403a15.491 15.491 0 0 1 4.883.254.545.545 0 0 0 .61-.789.54.54 0 0 0-.32-.257 16.52 16.52 0 0 0-5.172-.293.554.554 0 0 0-.544.542.548.548 0 0 0 .544.543ZM33.903 175.672c.474-.053.951-.07 1.428-.053.232 0 .464.031.696.057h.079l.166.022.386.075a.561.561 0 0 0 .67-.381.548.548 0 0 0-.381-.665c-1-.209-2.028-.26-3.044-.153a.554.554 0 0 0-.543.542.55.55 0 0 0 .543.543v.013ZM33.54 178.897h3.503a.542.542 0 1 0 0-1.085l-3.503.022a.545.545 0 0 0-.543.542.555.555 0 0 0 .543.543v-.022ZM33.584 185.089l3.503-.026a.54.54 0 0 0 .546-.759.546.546 0 0 0-.546-.322l-3.504.022a.542.542 0 1 0 0 1.085ZM32.944 182.17h3.705a.554.554 0 0 0 .543-.542.548.548 0 0 0-.543-.543h-3.705a.54.54 0 0 0-.546.759.546.546 0 0 0 .546.322v.004ZM121.411 34.754a19.367 19.367 0 0 1-.162-1.523 21.863 21.863 0 0 1-.048-1.606.54.54 0 0 0-.541-.591.545.545 0 0 0-.54.591 21.252 21.252 0 0 0 .249 3.418.545.545 0 0 0 .666.376.556.556 0 0 0 .376-.665ZM124.6 35.266a15.56 15.56 0 0 1-.39-4.87.542.542 0 0 0-.539-.543.55.55 0 0 0-.543.543 16.353 16.353 0 0 0 .438 5.159c.162.678 1.209.39 1.047-.289h-.013ZM127.884 34.378a6.578 6.578 0 0 1-.144-.788v-.14c0-.07 0-.14-.022-.21 0-.166-.031-.328-.044-.49a14.198 14.198 0 0 1 0-1.75.548.548 0 0 0-.543-.543.553.553 0 0 0-.539.542 13.037 13.037 0 0 0 0 1.79c.033.626.12 1.249.259 1.86a.542.542 0 1 0 1.046-.284l-.013.013ZM130.923 34.855l-.153-2.888a.555.555 0 0 0-.543-.543.548.548 0 0 0-.543.543l.153 2.888a.555.555 0 0 0 .543.538.544.544 0 0 0 .543-.538ZM136.998 34.041l-.5-3.475a.549.549 0 0 0-.67-.38.563.563 0 0 0-.376.67l.499 3.474a.545.545 0 0 0 .666.376.558.558 0 0 0 .381-.665ZM133.748 34.614c-.022-1.234-.035-2.468-.061-3.702a.54.54 0 0 0-.541-.591.545.545 0 0 0-.541.591c.022 1.234.035 2.468.057 3.702a.541.541 0 0 0 .927.384.541.541 0 0 0 .159-.384ZM139.708 34.697v-3.82a.542.542 0 1 0-1.086 0v3.82a.546.546 0 0 0 .543.543.542.542 0 0 0 .543-.543ZM142.494 35.013v-2.687a.545.545 0 0 0-.543-.543.554.554 0 0 0-.543.543v2.687a.542.542 0 1 0 1.086 0ZM128.436 183.641c1.34-4.206 2.089-7.47 2.032-13.089l2.79 15.403-4.822-2.314ZM113.406 159.625a81.302 81.302 0 0 0 4.563-9.562c.263-.648-.788-.932-1.046-.289a78.132 78.132 0 0 1-4.454 9.304.539.539 0 0 0 .205.725.547.547 0 0 0 .732-.178ZM109.797 156.351h-.03.079l.157.027.333.057c.258.048.512.105.766.17.254.066.487.136.723.219l.162.066c.066 0-.101-.048 0 0l.066.026.289.157a.544.544 0 0 0 .74-.192.558.558 0 0 0-.193-.744 5.294 5.294 0 0 0-1.489-.573 13.044 13.044 0 0 0-1.594-.298.542.542 0 0 0-.538.543.55.55 0 0 0 .158.375.55.55 0 0 0 .371.167ZM111.155 152.592c-.206.031 0 0 .044 0h.635c.368 0 .736.057 1.099.101l.272.031h.048l.14.022.512.078c.263.044.523.101.78.171a.552.552 0 0 0 .418-.045.547.547 0 0 0 .276-.544.549.549 0 0 0-.212-.364.532.532 0 0 0-.193-.093 12.94 12.94 0 0 0-2.041-.35 8.075 8.075 0 0 0-2.054-.074.547.547 0 0 0-.381.669.557.557 0 0 0 .666.377l-.009.021ZM111.015 150.133c.276-.023.554-.012.828.031h.188l.298.048.639.122c.8.153 1.585.372 2.347.657a.537.537 0 0 0 .411-.051.54.54 0 0 0-.122-.991 14.233 14.233 0 0 0-2.408-.669 17.14 17.14 0 0 0-1.314-.219 3.427 3.427 0 0 0-.876-.035.549.549 0 0 0-.543.538.543.543 0 0 0 .543.543l.009.026ZM110.122 154.513c.582.035 1.169.036 1.751.079a5.575 5.575 0 0 1 1.673.355.547.547 0 0 0 .67-.381.556.556 0 0 0-.381-.665c-1.182-.464-2.474-.394-3.718-.473a.55.55 0 0 0-.543.543.554.554 0 0 0 .543.542h.005ZM111.606 148.037c.885.006 1.766.11 2.628.311.876.162 1.751.354 2.667.512a.558.558 0 0 0 .665-.377.539.539 0 0 0-.376-.665c-.92-.162-1.826-.363-2.742-.529a13.3 13.3 0 0 0-2.824-.337c-.697.03-.701 1.116 0 1.085h-.018Z" fill="#153A23"/><path d="M207.212 114.98a1.23 1.23 0 0 1-.276 1.445 1.49 1.49 0 0 1-1.708.121 1.492 1.492 0 0 1-.442-.41 1.255 1.255 0 0 1-.019-1.153 1.261 1.261 0 0 1 .925-.69s1.091-.236 1.52.687ZM207.212 101.975a1.213 1.213 0 0 1-.276 1.439 1.474 1.474 0 0 1-1.707.125 1.479 1.479 0 0 1-.443-.409c-.438-.705.087-1.799.906-1.842 0 0 1.091-.241 1.52.687ZM207.212 88.96a1.227 1.227 0 0 1-.276 1.444 1.489 1.489 0 0 1-1.708.122 1.486 1.486 0 0 1-.442-.41 1.253 1.253 0 0 1-.019-1.153 1.257 1.257 0 0 1 .925-.69s1.091-.231 1.52.688ZM207.212 75.959a1.214 1.214 0 0 1-.276 1.44 1.481 1.481 0 0 1-1.707.125 1.484 1.484 0 0 1-.443-.41c-.438-.704.087-1.798.906-1.842 0 0 1.091-.24 1.52.687ZM207.212 62.95a1.228 1.228 0 0 1-.276 1.444 1.486 1.486 0 0 1-2.15-.29 1.259 1.259 0 0 1 .906-1.838s1.091-.24 1.52.683ZM207.212 179.4a1.214 1.214 0 0 1-.276 1.44 1.484 1.484 0 0 1-2.15-.285 1.264 1.264 0 0 1 .906-1.842s1.091-.241 1.52.687ZM207.212 166.417a1.213 1.213 0 0 1-.276 1.439 1.49 1.49 0 0 1-2.15-.284c-.438-.705.087-1.799.906-1.842 0-.022 1.091-.263 1.52.687ZM207.212 153.385c.116.238.152.507.103.768a1.23 1.23 0 0 1-.379.676 1.49 1.49 0 0 1-1.708.121 1.479 1.479 0 0 1-.442-.41 1.254 1.254 0 0 1-.019-1.153 1.261 1.261 0 0 1 .925-.689s1.091-.241 1.52.687ZM207.212 140.379a1.213 1.213 0 0 1-.276 1.44 1.488 1.488 0 0 1-1.706.123 1.467 1.467 0 0 1-.444-.408c-.438-.704.087-1.798.906-1.842 0 0 1.091-.241 1.52.687ZM207.212 127.369a1.227 1.227 0 0 1-.276 1.444 1.479 1.479 0 0 1-1.138.322 1.49 1.49 0 0 1-1.012-.611 1.254 1.254 0 0 1-.019-1.153 1.258 1.258 0 0 1 .925-.689s1.091-.236 1.52.687ZM178.076 114.98a1.228 1.228 0 0 1-.276 1.445 1.497 1.497 0 0 1-1.138.322 1.486 1.486 0 0 1-1.012-.611 1.258 1.258 0 0 1-.018-1.155 1.273 1.273 0 0 1 .929-.688s1.086-.236 1.515.687ZM178.076 101.975a1.214 1.214 0 0 1-.267 1.426 1.492 1.492 0 0 1-1.137.325 1.483 1.483 0 0 1-1.013-.609 1.253 1.253 0 0 1 .361-1.612c.162-.12.351-.199.549-.23 0 0 1.078-.228 1.507.7ZM178.076 88.96a1.226 1.226 0 0 1-.276 1.445 1.484 1.484 0 0 1-2.15-.29 1.257 1.257 0 0 1-.018-1.154 1.27 1.27 0 0 1 .929-.688s1.086-.231 1.515.688ZM178.076 75.959a1.214 1.214 0 0 1-.276 1.44 1.481 1.481 0 0 1-1.707.125 1.484 1.484 0 0 1-.443-.41 1.259 1.259 0 0 1 .911-1.842s1.086-.24 1.515.687ZM178.076 62.95a1.22 1.22 0 0 1-.276 1.443 1.486 1.486 0 0 1-2.15-.288 1.254 1.254 0 0 1-.018-1.154 1.264 1.264 0 0 1 .929-.684s1.086-.241 1.515.682ZM178.076 179.4a1.22 1.22 0 0 1-.267 1.458 1.5 1.5 0 0 1-1.137.324 1.483 1.483 0 0 1-1.013-.609 1.255 1.255 0 0 1-.018-1.155 1.265 1.265 0 0 1 .929-.687s1.077-.258 1.506.669ZM178.076 192.406a1.22 1.22 0 0 1-.276 1.444 1.474 1.474 0 0 1-1.138.322 1.485 1.485 0 0 1-1.012-.611 1.254 1.254 0 0 1-.018-1.153 1.262 1.262 0 0 1 .929-.685s1.086-.24 1.515.683ZM178.076 166.417a1.213 1.213 0 0 1-.276 1.439 1.482 1.482 0 0 1-1.137.322 1.481 1.481 0 0 1-1.013-.606 1.26 1.26 0 0 1 .911-1.842s1.086-.263 1.515.687ZM178.076 153.385a1.226 1.226 0 0 1-.276 1.444 1.497 1.497 0 0 1-1.138.322 1.486 1.486 0 0 1-1.012-.611 1.258 1.258 0 0 1-.018-1.155 1.265 1.265 0 0 1 .929-.687s1.086-.241 1.515.687ZM178.076 140.379a1.213 1.213 0 0 1-.276 1.44 1.491 1.491 0 0 1-2.15-.285 1.257 1.257 0 0 1 .362-1.612c.162-.119.35-.198.549-.23 0 0 1.086-.241 1.515.687ZM178.076 127.369a1.227 1.227 0 0 1-.276 1.444 1.474 1.474 0 0 1-1.138.322 1.485 1.485 0 0 1-1.012-.611 1.255 1.255 0 0 1-.018-1.155 1.262 1.262 0 0 1 .929-.687s1.086-.236 1.515.687ZM192.953 107.55a1.213 1.213 0 0 1-.276 1.44 1.484 1.484 0 0 1-2.151-.285c-.437-.704.088-1.798.911-1.842 0 0 1.091-.241 1.516.687ZM192.953 94.54a1.228 1.228 0 0 1-.276 1.444 1.49 1.49 0 0 1-1.708.122 1.474 1.474 0 0 1-.442-.41 1.257 1.257 0 0 1-.018-1.156 1.268 1.268 0 0 1 .928-.687s1.091-.236 1.516.687ZM192.953 81.521a1.214 1.214 0 0 1-.276 1.44 1.483 1.483 0 0 1-1.707.125 1.5 1.5 0 0 1-.444-.41c-.437-.704.088-1.798.911-1.842 0 .013 1.091-.228 1.516.687ZM192.953 68.524a1.228 1.228 0 0 1-.276 1.444 1.49 1.49 0 0 1-1.708.122 1.474 1.474 0 0 1-.442-.41 1.258 1.258 0 0 1-.018-1.155 1.269 1.269 0 0 1 .928-.688s1.091-.236 1.516.687ZM192.953 55.519a1.213 1.213 0 0 1-.276 1.44 1.48 1.48 0 0 1-1.137.323 1.48 1.48 0 0 1-1.014-.608c-.437-.705.088-1.799.911-1.843 0-.004 1.091-.24 1.516.688ZM192.953 171.965a1.226 1.226 0 0 1-.254 1.453 1.479 1.479 0 0 1-1.138.322 1.483 1.483 0 0 1-1.013-.611c-.438-.7.088-1.794.911-1.838-.022-.008 1.069-.249 1.494.674ZM192.953 184.975a1.215 1.215 0 0 1-.276 1.44 1.484 1.484 0 0 1-2.151-.284c-.437-.705.088-1.799.911-1.843 0 0 1.091-.24 1.516.687ZM192.953 197.981a1.227 1.227 0 0 1-.276 1.444 1.479 1.479 0 0 1-1.138.322 1.483 1.483 0 0 1-1.012-.611 1.255 1.255 0 0 1-.018-1.154 1.265 1.265 0 0 1 .928-.688s1.091-.245 1.516.687ZM192.953 158.977a1.215 1.215 0 0 1-.276 1.44 1.484 1.484 0 0 1-2.15-.284 1.262 1.262 0 0 1 .91-1.843s1.091-.258 1.516.687ZM192.953 145.954a1.213 1.213 0 0 1-.276 1.44 1.496 1.496 0 0 1-1.706.123 1.483 1.483 0 0 1-.445-.408c-.437-.704.088-1.798.911-1.842 0 0 1.091-.241 1.516.687ZM192.953 132.944a1.224 1.224 0 0 1-.276 1.444 1.479 1.479 0 0 1-1.138.322 1.483 1.483 0 0 1-1.012-.611 1.255 1.255 0 0 1-.018-1.154 1.265 1.265 0 0 1 .928-.688s1.091-.241 1.516.687ZM192.953 119.939a1.213 1.213 0 0 1-.276 1.439 1.498 1.498 0 0 1-1.137.322 1.481 1.481 0 0 1-1.014-.606c-.437-.705.088-1.799.911-1.843 0 0 1.091-.24 1.516.688ZM163.199 107.55a1.213 1.213 0 0 1-.276 1.44 1.488 1.488 0 0 1-1.706.125 1.474 1.474 0 0 1-.444-.41 1.27 1.27 0 0 1-.151-.575 1.268 1.268 0 0 1 .513-1.037c.162-.12.35-.198.549-.23 0 0 1.086-.241 1.515.687ZM163.199 94.54a1.22 1.22 0 0 1-.276 1.444 1.478 1.478 0 0 1-1.137.322 1.484 1.484 0 0 1-1.013-.61 1.269 1.269 0 0 1 .364-1.611c.161-.12.349-.2.547-.232 0 0 1.086-.236 1.515.687ZM163.199 81.521a1.214 1.214 0 0 1-.276 1.44 1.485 1.485 0 0 1-2.15-.285 1.272 1.272 0 0 1-.151-.575 1.27 1.27 0 0 1 .513-1.037c.162-.12.35-.198.549-.23 0 0 1.086-.228 1.515.687ZM163.199 68.524a1.22 1.22 0 0 1-.276 1.444 1.477 1.477 0 0 1-1.137.322 1.484 1.484 0 0 1-1.013-.61 1.27 1.27 0 0 1-.018-1.155 1.261 1.261 0 0 1 .929-.688s1.086-.236 1.515.687ZM163.199 55.519a1.214 1.214 0 0 1-.276 1.44 1.483 1.483 0 0 1-2.15-.285 1.272 1.272 0 0 1-.151-.576 1.27 1.27 0 0 1 .513-1.036c.162-.12.35-.199.549-.23 0 0 1.086-.241 1.515.687ZM163.199 171.965a1.225 1.225 0 0 1-.28 1.453 1.474 1.474 0 0 1-1.138.322 1.482 1.482 0 0 1-1.012-.611 1.25 1.25 0 0 1-.018-1.153 1.268 1.268 0 0 1 .929-.685s1.09-.249 1.519.674ZM163.199 184.975a1.215 1.215 0 0 1-.276 1.44 1.488 1.488 0 0 1-1.706.125 1.483 1.483 0 0 1-.444-.409 1.267 1.267 0 0 1 .911-1.843s1.086-.24 1.515.687ZM163.199 197.981a1.22 1.22 0 0 1-.276 1.444 1.476 1.476 0 0 1-1.707.122 1.486 1.486 0 0 1-.443-.411 1.266 1.266 0 0 1 .911-1.842s1.086-.245 1.515.687ZM163.199 158.977a1.215 1.215 0 0 1-.276 1.44 1.488 1.488 0 0 1-1.706.125 1.483 1.483 0 0 1-.444-.409 1.274 1.274 0 0 1-.018-1.155 1.276 1.276 0 0 1 .929-.688s1.086-.258 1.515.687ZM163.199 145.954a1.213 1.213 0 0 1-.276 1.44 1.48 1.48 0 0 1-1.136.322 1.487 1.487 0 0 1-1.014-.607 1.27 1.27 0 0 1-.151-.575 1.274 1.274 0 0 1 .513-1.037c.162-.119.35-.198.549-.23 0 0 1.086-.241 1.515.687ZM163.199 132.944a1.22 1.22 0 0 1-.276 1.444 1.476 1.476 0 0 1-1.707.122 1.486 1.486 0 0 1-.443-.411 1.266 1.266 0 0 1 .911-1.842s1.086-.241 1.515.687ZM163.199 119.939a1.213 1.213 0 0 1-.276 1.439 1.482 1.482 0 0 1-1.136.322 1.486 1.486 0 0 1-1.014-.606 1.267 1.267 0 0 1 .911-1.843s1.086-.24 1.515.688Z" fill="#FAC7B7"/><path d="M60.661 177.111c-.473-.897.328-2.297 1.401-2.122 1.073.175 1.433 1.514.876 2.302-.346.508.438 1.111.854.656.732-.809 1.542-1.75 2.65-2.043.483-.141 1-.109 1.463.092.402.201.617.612.99.875.831.547 1.73-.026 2.627 0 .898.026 1.844.521 2.102 1.448a.54.54 0 0 0 .659.355.54.54 0 0 0 .388-.639 3.03 3.03 0 0 0-2.046-2.048 3.935 3.935 0 0 0-1.546-.188c-.27.025-.537.07-.8.135a1 1 0 0 1-1.121-.332 3.039 3.039 0 0 0-3-.749c-1.315.337-2.265 1.361-3.128 2.324l.85.657c1.003-1.466 0-3.799-1.835-3.939-1.918-.149-3.188 2.14-2.334 3.759.328.617 1.261.07.937-.547l.013.004ZM114.746 184.516a5.687 5.687 0 0 1-2.286-1.589 5.874 5.874 0 0 1-.819-1.221c-.109-.214-.547-1.028-.372-1.238.083-.101.508-.052.613-.052.276 0 .547 0 .819.035.52.054 1.033.159 1.533.315a7.852 7.852 0 0 1 2.807 1.527.544.544 0 0 0 .587.108.548.548 0 0 0 .337-.493l.114-1.597-.543.547 2.426-.022a.547.547 0 0 0 .543-.543.543.543 0 0 0-.543-.543l-2.426.022a.553.553 0 0 0-.543.543l-.114 1.597.924-.381a9.187 9.187 0 0 0-3.644-1.908 8.877 8.877 0 0 0-2.058-.284c-.609 0-1.401-.035-1.752.556-.35.591-.109 1.247.114 1.807a6.85 6.85 0 0 0 4.003 3.864c.652.245.937-.801.289-1.046l-.009-.004ZM95.306 165.769l.062 3.82a.55.55 0 0 0 .928.385c.665-.674 1.633-1.601 2.601-.936a8.1 8.1 0 0 0 1.047.717c.35.168.715.302 1.09.403 1.213.333 3.066.315 3.675 1.641.284.639 1.221.088.937-.547-.762-1.707-2.886-1.72-4.436-2.188a3.934 3.934 0 0 1-1.148-.512c-.495-.333-.876-.735-1.502-.836-1.204-.197-2.247.679-3.03 1.475l.924.381-.062-3.821a.54.54 0 0 0-.543-.542.542.542 0 0 0-.543.542v.018ZM83.241 192.927a3.194 3.194 0 0 1 .048-3.646 3.126 3.126 0 0 1 3.56-.949 2.071 2.071 0 0 1 1.363 1.343c.135.595-.381.915-.92.805-.666-.135-.933-.875-.946-1.483a2.665 2.665 0 0 1 .683-1.834 1.81 1.81 0 0 1 .833-.581c.327-.111.68-.127 1.015-.044a1.502 1.502 0 0 1 1.152 1.466c-.03.7 1.055.695 1.086 0a2.514 2.514 0 0 0-1.392-2.285 2.77 2.77 0 0 0-2.781.11c-1.62 1.028-2.435 3.816-.824 5.251a2.054 2.054 0 0 0 2.588.118c.85-.674.714-1.873.127-2.674-1.2-1.636-3.744-1.881-5.4-.814a4.212 4.212 0 0 0-1.13 5.781c.39.573 1.315.031.938-.547v-.017ZM159.035 138.812c-.202-.971-.46-2.096-.057-3.063.267-.634.854-1.221 1.594-1.138 1.344.149 1.861 2.14 2.093 3.208.149.687 1.169.389 1.047-.289-.101-.538.7-.809 1.103-.722.71.153 1.187.875 1.537 1.444.351.569 1.314.048.938-.547-.592-.976-1.502-2.052-2.759-2.004a1.871 1.871 0 0 0-1.866 2.118l1.047-.289c-.359-1.645-1.275-4.043-3.32-4.008a2.724 2.724 0 0 0-2.352 1.68c-.565 1.243-.315 2.626-.052 3.89.144.683 1.187.394 1.047-.288v.008ZM142.919 184.673a.873.873 0 0 1 .797-1.391c.77.122.757.967 1.164 1.466.784.958 1.914.437 2.803-.035.346-.18.876-.552 1.314-.438.307.088.486.486.701.696.228.23.522.383.841.438a9.75 9.75 0 0 0 1.134 0c.376.033.74.146 1.068.332a2.753 2.753 0 0 1 1.314 1.751.542.542 0 0 0 1.047-.289 3.784 3.784 0 0 0-3.788-2.858c-.491 0-.753 0-1.082-.376a1.776 1.776 0 0 0-1.406-.783 3.324 3.324 0 0 0-1.454.472c-.354.184-.95.644-1.384.565-.433-.079-.613-1.05-.928-1.396a2.065 2.065 0 0 0-1.629-.63c-1.66.105-2.19 2.048-1.274 3.242.437.552 1.191-.223.766-.766h-.004ZM158.947 175.93a.982.982 0 0 1-.932-.86.984.984 0 0 1 .056-.453l-.469.267 1.643-.157a.567.567 0 0 0 .269-.078.543.543 0 0 0 .268-.47.546.546 0 0 0-.069-.271c-.547-1.037-1.313-2.38-.915-3.597.232-.735 1.147-1.58 1.958-1.16.617.324 1.165-.608.547-.932-1.314-.678-2.794.145-3.385 1.383-.771 1.624.096 3.409.876 4.853l.464-.814-1.042.101c-.303.031-.749 0-.986.214a1.68 1.68 0 0 0-.263 1.409 2.075 2.075 0 0 0 1.997 1.655c.697-.022.701-1.108 0-1.086l-.017-.004ZM143.97 158.347c-.438-.49.245-1.063.691-1.151a2.602 2.602 0 0 1 1.919.517 3.394 3.394 0 0 1 1.392 3.338l.797-.323c-.954-.543-1.121-1.869-.67-2.801.591-1.234 2.01-1.816 3.272-2.07.683-.14.394-1.181-.289-1.046-1.656.337-3.394 1.221-4.056 2.875-.56 1.396-.166 3.204 1.196 3.978a.554.554 0 0 0 .477.032.555.555 0 0 0 .32-.356 4.5 4.5 0 0 0-2.431-4.875c-.928-.437-2.132-.59-3.017.035a1.767 1.767 0 0 0-.775 1.231 1.785 1.785 0 0 0 .407 1.395c.469.521 1.235-.249.767-.766v-.013ZM123.251 155.126c-.85 1.046-.333 2.551.81 3.16 1.454.77 3.087-.289 3.99-1.414l-.907-.236c.289 1.002.565 2.013.876 3.015.219.731.578 1.374 1.384 1.545.806.17 1.493-.175 2.19-.407.319-.105 1.414-.315 1.44.232a.552.552 0 0 0 .819.468l.924-.648c.565-.398 0-1.339-.552-.936l-.919.648.814.468c-.083-1.602-1.983-1.576-3.1-1.173a3.59 3.59 0 0 1-1.196.302c-.438 0-.587-.254-.718-.635-.35-1.037-.609-2.118-.911-3.168a.544.544 0 0 0-.664-.377.55.55 0 0 0-.242.136c-.561.696-1.459 1.532-2.444 1.313-.565-.122-1.279-.976-.823-1.536.455-.56-.324-1.313-.767-.766l-.004.009ZM141.74 116.092a1.492 1.492 0 0 1-1.046-1.641 1.509 1.509 0 0 1 1.721-1.133.547.547 0 0 0 .527-.647.545.545 0 0 0-.146-.277l-2.063-1.715v.766a2.965 2.965 0 0 1 1.174-.674c.438-.2.79-.551.99-.989.565-1.239.937-2.595 1.397-3.877.232-.657-.815-.941-1.047-.285-.438 1.19-.793 2.429-1.283 3.597-.346.827-1.459.775-1.997 1.462a.553.553 0 0 0 0 .766l2.062 1.715.386-.923a2.574 2.574 0 0 0-2.794 2.105 2.597 2.597 0 0 0 1.83 2.835c.67.206.955-.84.289-1.046v-.039ZM146.715 88.825a1.5 1.5 0 0 1-.03-1.584 1.784 1.784 0 0 1 1.546-.959 2.998 2.998 0 0 1 2.067.753c.321.235.539.584.608.976 0 .267-.201.586-.49.494l.394.526c-.048-1.663 1.62-3.19 3.293-2.871.679.127.973-.915.285-1.046-2.334-.438-4.734 1.505-4.66 3.916a.55.55 0 0 0 .399.521 1.424 1.424 0 0 0 1.607-.639 1.744 1.744 0 0 0 .031-1.75 3.94 3.94 0 0 0-3.066-1.943 2.961 2.961 0 0 0-2.903 1.392 2.628 2.628 0 0 0 .153 2.984.544.544 0 0 0 .766 0 .552.552 0 0 0 0-.766v-.004ZM132.877 40.132a1.668 1.668 0 0 1 2.851 1.72c-.219.438.249 1.055.74.74.324-.206.657.118.906.324.391.362.818.683 1.275.958.569.289 1.23.162 1.791.437a1.466 1.466 0 0 1 .801 1.405c-.03.7 1.056.696 1.086 0a2.538 2.538 0 0 0-.876-2.004 2.461 2.461 0 0 0-.981-.534 7.501 7.501 0 0 1-1.313-.236c-1.047-.486-1.958-2.118-3.276-1.278l.744.74a2.746 2.746 0 0 0 .21-2.026 2.756 2.756 0 0 0-4.935-.788c-.412.56.53 1.102.937.547l.04-.005ZM131.112 68.319c-.933.24-2.037-.928-1.507-1.825a1.417 1.417 0 0 1 1.052-.614 1.411 1.411 0 0 1 1.138.434c.363.438 1.038-.035.906-.53a4.96 4.96 0 0 1-.131-1.995l-.521.399c.649.049 1.261.323 1.73.774a.543.543 0 0 0 .849-.656c-.332-.64.5-1.4 1.117-1.173.618.228.937-.8.289-1.046-1.563-.582-3.087 1.348-2.343 2.766l.854-.661a3.98 3.98 0 0 0-2.496-1.09.55.55 0 0 0-.526.399 6.292 6.292 0 0 0 .132 2.573l.906-.53c-1.033-1.208-3.267-.875-3.941.538-.832 1.729.998 3.746 2.803 3.283a.545.545 0 0 0 .117-.99.543.543 0 0 0-.406-.056h-.022ZM113.756 72.72a5.712 5.712 0 0 0 .053 5.252c.394.722 1.038 1.418 1.896 1.514a1.656 1.656 0 0 0 1.783-1.068.55.55 0 0 0-.381-.665 3.908 3.908 0 0 0-2.081-.1.521.521 0 0 0-.376.376c-.438 2.38 2.369 4.468 4.515 3.269l-.819-.468c.055.783.4 1.518.968 2.06.508.478 1.279-.288.771-.77a1.969 1.969 0 0 1-.653-1.29.552.552 0 0 0-.274-.465.547.547 0 0 0-.541-.003c-1.265.708-3.188-.583-2.925-2.044l-.377.38a2.803 2.803 0 0 1 1.507.101l-.381-.67c-.175.473-.845.268-1.121.044a3.088 3.088 0 0 1-.876-1.448 4.615 4.615 0 0 1 .245-3.466c.311-.621-.622-1.173-.933-.547v.009Z" fill="#153A23"/><path d="M178.05 256.975a1.213 1.213 0 0 1-.276 1.439 1.475 1.475 0 0 1-1.707.125 1.479 1.479 0 0 1-.443-.409c-.438-.705.087-1.799.906-1.842 0 0 1.091-.241 1.52.687ZM178.05 243.965c.116.238.152.507.103.768a1.23 1.23 0 0 1-.379.676 1.49 1.49 0 0 1-1.708.121 1.467 1.467 0 0 1-.442-.41 1.254 1.254 0 0 1-.02-1.153 1.262 1.262 0 0 1 .926-.689s1.091-.237 1.52.687ZM178.05 230.959a1.213 1.213 0 0 1-.276 1.44 1.484 1.484 0 0 1-2.15-.285c-.438-.704.087-1.798.906-1.842 0 0 1.091-.241 1.52.687ZM178.05 217.949a1.227 1.227 0 0 1-.276 1.444 1.479 1.479 0 0 1-1.138.322 1.483 1.483 0 0 1-1.012-.611 1.254 1.254 0 0 1 .36-1.606c.161-.12.348-.199.546-.232 0 0 1.09-.24 1.52.683ZM178.05 204.926a1.213 1.213 0 0 1-.276 1.44 1.5 1.5 0 0 1-1.137.324 1.483 1.483 0 0 1-1.013-.609 1.254 1.254 0 0 1-.02-1.153 1.27 1.27 0 0 1 .926-.689s1.091-.223 1.52.687ZM178.05 321.394a1.217 1.217 0 0 1-.276 1.44 1.498 1.498 0 0 1-1.137.322 1.481 1.481 0 0 1-1.013-.606c-.438-.705.087-1.799.906-1.843 0 0 1.091-.253 1.52.687ZM178.05 308.385c.116.238.152.507.103.768a1.23 1.23 0 0 1-.379.676 1.49 1.49 0 0 1-1.708.121 1.467 1.467 0 0 1-.442-.41 1.254 1.254 0 0 1-.02-1.153 1.274 1.274 0 0 1 .926-.69s1.091-.236 1.52.688ZM178.05 295.379a1.213 1.213 0 0 1-.276 1.439 1.483 1.483 0 0 1-1.137.323 1.5 1.5 0 0 1-1.013-.607c-.438-.705.087-1.799.906-1.842 0 0 1.091-.241 1.52.687ZM178.05 282.382a1.227 1.227 0 0 1-.276 1.444 1.479 1.479 0 0 1-1.138.322 1.483 1.483 0 0 1-1.012-.611 1.254 1.254 0 0 1-.02-1.153 1.27 1.27 0 0 1 .926-.689s1.091-.25 1.52.687ZM178.05 269.363a1.213 1.213 0 0 1-.276 1.44 1.484 1.484 0 0 1-2.15-.285c-.438-.704.087-1.798.906-1.842 0 0 1.091-.241 1.52.687ZM192.926 263.167a1.219 1.219 0 0 1-.276 1.444 1.493 1.493 0 0 1-1.707.122 1.499 1.499 0 0 1-.443-.411 1.28 1.28 0 0 1-.149-.574 1.274 1.274 0 0 1 .51-1.035c.161-.12.348-.2.546-.233 0 0 1.09-.228 1.519.687ZM192.926 250.161a1.213 1.213 0 0 1-.276 1.44 1.482 1.482 0 0 1-2.141-.289c-.438-.705.088-1.799.907-1.842-.009.004 1.081-.237 1.51.691ZM192.926 237.151a1.22 1.22 0 0 1-.276 1.444 1.476 1.476 0 0 1-1.707.122 1.486 1.486 0 0 1-.443-.411 1.276 1.276 0 0 1-.149-.574 1.27 1.27 0 0 1 1.056-1.268s1.09-.236 1.519.687ZM192.926 224.145a1.215 1.215 0 0 1-.276 1.44 1.488 1.488 0 0 1-1.706.125 1.483 1.483 0 0 1-.444-.409c-.438-.705.088-1.799.907-1.843 0 0 1.09-.24 1.519.687ZM192.926 211.135a1.222 1.222 0 0 1-.275 1.445 1.493 1.493 0 0 1-1.708.121 1.495 1.495 0 0 1-.443-.41 1.26 1.26 0 0 1 .907-1.838s1.09-.241 1.519.682ZM192.926 327.586a1.217 1.217 0 0 1-.276 1.44 1.488 1.488 0 0 1-1.706.125 1.483 1.483 0 0 1-.444-.409 1.27 1.27 0 0 1 .907-1.843s1.09-.24 1.519.687ZM192.926 314.581a1.213 1.213 0 0 1-.276 1.44 1.483 1.483 0 0 1-1.136.322 1.504 1.504 0 0 1-1.014-.607c-.438-.704.088-1.798.907-1.842 0-.005 1.09-.241 1.519.687ZM192.926 301.571a1.219 1.219 0 0 1-.276 1.444 1.476 1.476 0 0 1-1.707.122 1.486 1.486 0 0 1-.443-.411 1.28 1.28 0 0 1-.149-.574 1.274 1.274 0 0 1 .51-1.035c.161-.12.348-.2.546-.233 0 0 1.09-.241 1.519.687ZM192.926 288.565a1.215 1.215 0 0 1-.276 1.44 1.493 1.493 0 0 1-2.15-.284c-.438-.705.088-1.799.907-1.843 0 0 1.09-.245 1.519.687ZM192.926 275.555a1.22 1.22 0 0 1-.276 1.444 1.481 1.481 0 0 1-2.141-.306 1.267 1.267 0 0 1 .36-1.609c.161-.12.349-.2.546-.233 0 0 1.082-.219 1.511.704ZM205.942 256.975a1.213 1.213 0 0 1-.276 1.439 1.488 1.488 0 0 1-1.135.324 1.483 1.483 0 0 1-1.011-.608c-.438-.705.083-1.799.907-1.842 0 0 1.09-.241 1.515.687ZM205.942 243.965c.116.238.152.507.103.768a1.23 1.23 0 0 1-.379.676 1.47 1.47 0 0 1-1.136.321 1.474 1.474 0 0 1-1.01-.61 1.27 1.27 0 0 1-.022-1.155 1.263 1.263 0 0 1 .929-.687s1.09-.237 1.515.687ZM205.942 230.959a1.213 1.213 0 0 1-.276 1.44 1.488 1.488 0 0 1-1.135.324 1.485 1.485 0 0 1-1.011-.609c-.438-.704.083-1.798.907-1.842 0 0 1.09-.241 1.515.687ZM205.942 217.949a1.227 1.227 0 0 1-.276 1.444 1.47 1.47 0 0 1-1.136.322 1.474 1.474 0 0 1-1.01-.611 1.25 1.25 0 0 1-.022-1.153 1.252 1.252 0 0 1 .929-.685s1.09-.24 1.515.683ZM205.942 204.926a1.213 1.213 0 0 1-.276 1.44 1.486 1.486 0 0 1-2.146-.285 1.27 1.27 0 0 1-.022-1.155 1.263 1.263 0 0 1 .929-.687s1.09-.223 1.515.687ZM205.942 321.394a1.215 1.215 0 0 1-.276 1.44 1.483 1.483 0 0 1-1.703.124 1.502 1.502 0 0 1-.443-.408c-.438-.705.083-1.799.907-1.843 0 0 1.09-.253 1.515.687ZM205.942 308.385c.116.238.152.507.103.768a1.23 1.23 0 0 1-.379.676 1.47 1.47 0 0 1-1.136.321 1.474 1.474 0 0 1-1.01-.61 1.27 1.27 0 0 1-.022-1.155 1.255 1.255 0 0 1 .929-.688s1.09-.236 1.515.688ZM205.942 295.379a1.213 1.213 0 0 1-.276 1.439 1.486 1.486 0 0 1-2.146-.284c-.438-.705.083-1.799.907-1.842 0 0 1.09-.241 1.515.687ZM205.942 282.382a1.227 1.227 0 0 1-.276 1.444 1.487 1.487 0 0 1-1.704.121 1.467 1.467 0 0 1-.442-.41 1.269 1.269 0 0 1-.022-1.154 1.258 1.258 0 0 1 .929-.688s1.09-.25 1.515.687ZM205.942 269.363a1.213 1.213 0 0 1-.276 1.44 1.488 1.488 0 0 1-1.135.324 1.479 1.479 0 0 1-1.011-.609c-.438-.704.083-1.798.907-1.842 0 0 1.09-.241 1.515.687Z" fill="#FAC7B7"/><path d="M137.379 16.195c0 .792 0 1.584-.075 2.372a8.812 8.812 0 0 1-.525 2.188.533.533 0 0 0 .188.57.545.545 0 0 0 .599.045.542.542 0 0 0 .255-.326c.587-1.567.639-3.195.639-4.853a.541.541 0 0 0-1.081 0v.004Z" fill="#7F4341"/><path d="M178.22 309.557c.022 2.411-3.013 3.435-5.399 3.829a127.966 127.966 0 0 0-22.707 5.934 2.966 2.966 0 0 0-1.34.779c-1.043 1.26-1.354 4.639-1.244 6.612a189.081 189.081 0 0 0 44.293-1.973c1.524-.258 3.179-.613 4.147-1.821-.876-2.726-1.988-7.233-3.32-9.767a4.621 4.621 0 0 0-1.313-1.729l-13.117-1.864Z" fill="#FAC7B7"/><path d="m147.35 326.418 19.458-1.129c6.363-.368 12.7-.661 18.923-2.219 3.416-.875 6.757-1.969 10.073-3.142.932-.328.529-1.824-.416-1.492-5.882 2.074-11.847 3.908-18.074 4.573-6.333.683-12.74.875-19.098 1.23l-10.874.63c-.994.057-.999 1.606 0 1.549h.008Z" fill="#fff"/><path d="M188.565 41.034c.367-9.514.499-18.983 2.85-28.213 1.678-6.594 7.734-4.673 9.364.617a107.6 107.6 0 0 1 2.868 10.604c.933 4.682 1.235 12.559 1.537 17.324a4.725 4.725 0 0 1-.144 1.904 4.648 4.648 0 0 1-1.205 1.597c-2.089 2.07-4.081 1.816-6.271 3.112l-8.999-6.945Z" fill="#FAC8B8"/><path d="M203.993 45.489c-.363-6.32-.876-12.647-1.826-18.91-.74-4.774-1.752-9.587-3.67-14.042a20.701 20.701 0 0 0-3.206-5.278c-.652-.761-1.751.342-1.099 1.094 2.509 2.924 3.828 6.766 4.817 10.429 1.375 5.15 2.089 10.471 2.628 15.753.363 3.641.622 7.29.832 10.94.061.99 1.607.998 1.55 0l-.026.014Z" fill="#fff"/><path d="M19.618 178.179c-1.664-.096-3.329-.179-4.997-.179-1.905 0-3.977 0-5.812.578a2.7 2.7 0 0 0-1.58 1.046 1.358 1.358 0 0 0 .197 1.61 3.617 3.617 0 0 0 1.97.827c1.03.173 2.07.265 3.114.276 2.238.052 4.467-.101 6.705-.184.692-.026.696-1.112 0-1.085-1.752.065-3.451.175-5.181.192-1.73.018-3.744.14-5.365-.507a1.29 1.29 0 0 1-.516-.333.619.619 0 0 1 0-.206c.144-.324.713-.529 1.134-.647 1.668-.46 3.481-.46 5.207-.46 1.725 0 3.416.079 5.124.175.696.044.692-1.041 0-1.081v-.022Z" fill="#7F4341"/></svg>