<svg width="154" height="329" fill="none" xmlns="http://www.w3.org/2000/svg"><path d="M17.74 39.36c2.518-3.654 3.998-7.907 5.465-12.095a9.059 9.059 0 0 1 1.248-2.626 3.113 3.113 0 0 1 2.492-1.313 1.963 1.963 0 0 1 1.668 1.02c.163.403.243.834.237 1.269.225 4.253.33 8.508.315 12.765 0 .569-.065 1.243-.56 1.523-.326.14-.688.172-1.034.092l-9.888-1.283" fill="#39B55D"/><path d="M23.091 36.082a23.968 23.968 0 0 1 2.045-6.66.792.792 0 0 0-.276-1.059.78.78 0 0 0-1.06.28 25.244 25.244 0 0 0-2.19 7.028.8.8 0 0 0 .544.954.776.776 0 0 0 .95-.543h-.013ZM26.17 36.844a82.276 82.276 0 0 1 1.068-7.164.791.791 0 0 0-.538-.954.785.785 0 0 0-.955.543 88.023 88.023 0 0 0-1.126 7.575.779.779 0 0 0 .776.774.793.793 0 0 0 .775-.774ZM29.108 35.754V26.04a.774.774 0 0 0-1.546 0v9.715a.774.774 0 0 0 1.546 0Z" fill="#153A23"/><path d="M69.635 310.439a28.351 28.351 0 0 0 3.403 12.432l-6.521 1.48a71.374 71.374 0 0 1-2.067-5.768 12.158 12.158 0 0 1-5.931 8.079 12.182 12.182 0 0 1-9.988.887 2.619 2.619 0 0 1-1.156-.682c-.688-.81-.254-4.613.587-5.251.84-.639 1.935-.828 2.969-1.086 6.267-1.549 10.628-6.625 12.122-16.939l6.582 6.848Z" fill="#32142A"/><path d="M120.624 127.831a32.17 32.17 0 0 1 .061-5.313c.01-.419.118-.829.315-1.199.911-1.435 4.533-1.234 5.961-1.378a88.378 88.378 0 0 1 8.242-.49 97.092 97.092 0 0 1 12.7.621c1.655.193 3.941.066 5.137 1.475.99 1.19.972 1.947-.749 2.464-3.617 1.089-7.883.603-11.64.542-2.856-.048-8.956-1.711-10.673 1.313l-1.953 3.453M41.213 101.518v-5.545c0-3.82-23.158-1.36-25.978-1.055-1.314.145-4.511.753-4.253 2.91.29 2.425 7.034 1.62 9.083 1.528 3.609-.158 8.846-.687 12.113 1.046 1.205.639 2.063 1.549 1.48 2.787" fill="#B26D55"/><path d="M56.501 160.892c-11.386-3.724-19.869-13.61-24.726-24.532-4.856-10.923-6.569-22.944-8.22-34.786 6.85.09 13.691-.496 20.426-1.75 5.027 18.502 10.659 23.933 22.934 26.641 7.546 1.668 15.385.302 23.11.298 7.725-.004 16.204 1.803 20.872 7.969.073-2.171.151-4.344.232-6.521a149.195 149.195 0 0 1 25.523-1.592 138.521 138.521 0 0 1 1.721 32.045c-.28 4.464-.849 9.12-3.385 12.805-2.242 3.26-5.811 5.395-9.521 6.787a34.697 34.697 0 0 1-28.903-2.293l-39.56-6.704-.503-8.367Z" fill="#F7BC28"/><path d="m45.667 241.744 5.465 70.45h24.98v-64.98l-30.445-5.47Z" fill="#153A23"/><path d="M66.587 259.532c-6.525-6.424-14.18-11.587-20.92-17.788-5.317-4.888-10.029-10.385-14.724-15.868l-18.157-21.18C7.01 197.953.94 190.509.524 181.643c-.551-11.251 8.886-21.303 19.782-24.169 10.896-2.866 22.606.197 32.582 5.444 9.977 5.247 18.674 12.555 27.94 18.966.784.538 1.652 1.098 2.597 1.024.947-.075 1.682-.736 2.37-1.361 4.068-3.72 16.812-7.44 20.881-11.155.245 1.93.849 5.129 1.011 5.912a54.549 54.549 0 0 1 1.253 9.102c.438 10.779.284 25.819-8.54 33.517-4.073 3.562-8.899 4.704-14.12 5.347-2.95.363-8.171.337-11.315-1.523l12.227 19.369-20.605 17.416Z" fill="#153A23"/><path d="M58.525 118.286c-.321-6.242-.072-12.501.744-18.698.998-7.623 3.43-15.006 8.947-20.568 5.356-5.395 14.916-8.104 21.542-3.124 4.817 3.619 6.468 10.84 6.757 16.515.328 6.39.237 12.797-.271 19.176a9.274 9.274 0 0 1-.57 2.936c-1.178 2.761-4.515 3.772-7.444 4.376a175.36 175.36 0 0 1-21.398 3.063l-8.307-3.676Z" fill="#B26D55"/><path d="m95.416 109.574 3.78-.845a2.907 2.907 0 0 0 2.29-2.879c-.026-1.221-.32-2.972-1.007-3.961-.85-1.22-4.458-.647-5.181-.065l.118 7.75ZM60.145 111.263c-2.023.792-4.782 1.374-5.97-.438a3.934 3.934 0 0 1-.525-1.571c-.25-1.575-.127-3.312.876-4.568 1.003-1.256 4.817-1.724 5.991-.652l-.372 7.229Z" fill="#B26D55"/><path d="M83.145 106.152c14.115-.438 15.1 2.888 15.1 2.888-2.001 2.503-.941 6.393 1.314 8.691 2.255 2.297 5.325 3.501 8.133 5.037.805.437 1.707 1.133 1.576 2.039-.101.718-.806 1.168-1.441 1.518l-9.84 5.418a4.377 4.377 0 0 0-1.537 1.343c-.99 1.458-.324 2.381.438 3.064 3.275 2.958 9.319 3.374 10.282 7.684.762 3.413-2.491 6.262-5.299 8.354-2.807 2.092-5.846 5.352-4.541 8.599 1.047 2.625 4.318 3.457 6.306 5.461 4.204 4.24.929 12.432-4.637 14.489a6.645 6.645 0 0 0-3.504 2.888c-1.752 3.037.837 4.446 1.664 6.564.929 2.394-.477 4.998-1.83 7.173l-2.497 4.013a2.631 2.631 0 0 1-3.998.511 2.618 2.618 0 0 1-.766-1.299 14.142 14.142 0 0 0-.977-2.722c-1.752-3.636-5.943-6.494-9.99-4.547a3.98 3.98 0 0 1-3.783-.087c-2.5-1.541-.622-4.206-1.012-6.459-.438-2.486-3.38-3.606-5.899-3.829-2.96-.267-6.332-.083-8.11-2.897a6.434 6.434 0 0 1-.675-4.862c1.104-4.906 5.62-7.916 6.49-12.957a6.165 6.165 0 0 0-.59-4.061c-2.957-5.326-10.857-.968-13.809-6.674a6.59 6.59 0 0 1-.578-4.192c.683-3.834 3.504-6.455 6.263-8.936l7.445-6.752a5.065 5.065 0 0 0 1.348-1.611c.828-1.877-.836-3.938-2.627-4.936-2.3-1.265-5.172-1.864-5.978-4.853-.438-1.61 2.71-8.862 3.578-10.284-.013.009 5.798-3.207 23.981-3.776ZM66.21 98.275a1.5 1.5 0 0 1-2.14-.934 1.495 1.495 0 0 1 .03-.878c.048-.131.105-.258.162-.38a9.825 9.825 0 0 1 2.281-2.836 25.963 25.963 0 0 1 4.454-3.361 2.383 2.383 0 0 1 1.13-.403 1.875 1.875 0 0 1 1.524.897c.317.532.54 1.113.661 1.72.188.493.21 1.034.061 1.54-.547 1.314-2.08 1.812-3.28 2.294-1.69.682-3.271 1.51-4.883 2.34ZM86.74 89.085a1.104 1.104 0 0 0-1.484.906c-.341 2.009-.985 2.993.753 4.275 1.897 1.396 4.84 2.258 7.196 2.385a.877.877 0 0 0 .617-.122.906.906 0 0 0 .267-.52c.346-1.314-1.445-3.475-2.925-4.377-2.216-1.392-2.015-1.55-4.423-2.547Z" fill="#32142A"/><path d="M81.81 100.712c1.256 1.917 3.17 3.961 2.588 6.175-.438 1.628-2.4 2.21-4.06 2.516-1.362.25-3.162.25-3.552-1.063a2.814 2.814 0 0 1 .062-1.449 78.016 78.016 0 0 1 1.432-5.404s1.48-3.89 3.53-.775Z" fill="#C05929"/><path d="M72.595 113.805c-1.602.574 1.152 3.274 2.694 3.991 1.541.718 3.337.709 5.01.385 3.328-.638 6.709-2.932 7.112-6.297 0 0-5.251-1.509-14.816 1.921Z" fill="#B26D55"/><path d="M77.78 115.687a5.812 5.812 0 0 0 5.356-1.566c.491-.499-.275-1.265-.766-.766a4.7 4.7 0 0 1-4.3 1.286.561.561 0 0 0-.67.381.545.545 0 0 0 .38.665Z" fill="#32142A"/><path d="m95.907 145.562.376-1.811a.357.357 0 0 0-.687-.188l-.377 1.811a.357.357 0 1 0 .688.188ZM79.563 139.922a5.086 5.086 0 0 0 .78 3.527.37.37 0 0 0 .49.127.362.362 0 0 0 .127-.486 4.375 4.375 0 0 1-.71-2.98.355.355 0 0 0-.388-.448.363.363 0 0 0-.237.135.361.361 0 0 0-.062.125ZM71.917 160.708v2.542a.362.362 0 0 0 .355.359.366.366 0 0 0 .358-.359v-2.542a.363.363 0 0 0-.359-.354.357.357 0 0 0-.355.354ZM61.73 175.499a4.208 4.208 0 0 1 .662-3.002.354.354 0 0 0-.396-.521.357.357 0 0 0-.218.162 4.903 4.903 0 0 0-.735 3.549.347.347 0 0 0 .167.216.363.363 0 0 0 .27.034.368.368 0 0 0 .25-.438ZM74.457 181.42v1.453a.36.36 0 1 0 .713 0v-1.453a.36.36 0 0 0-.355-.355.369.369 0 0 0-.36.355ZM94.015 194.548a5.006 5.006 0 0 0-.697-3.917c-.25-.38-.875-.026-.613.359a4.322 4.322 0 0 1 .622 3.37c-.105.437.583.634.688.188ZM94.453 173.91a3 3 0 0 0 2.627 2.35.356.356 0 0 0 .355-.354.368.368 0 0 0-.355-.359h-.131l-.188-.044-.189-.061-.087-.035c.066.026 0 0-.035 0a2.218 2.218 0 0 1-.342-.192l-.079-.053s-.078-.061-.03-.022a2.707 2.707 0 0 1-.43-.424l-.026-.04-.057-.078-.105-.167a3.53 3.53 0 0 1-.087-.17c-.027-.057-.044-.097-.031-.062.013.035 0-.052-.022-.061a2.379 2.379 0 0 1-.11-.394.365.365 0 0 0-.437-.249.367.367 0 0 0-.25.437l.009-.022ZM84.266 169.526a3.77 3.77 0 0 0 .701 3.632.355.355 0 0 0 .504 0 .356.356 0 0 0 0-.503 3.067 3.067 0 0 1-.517-2.941.354.354 0 0 0-.518-.4.37.37 0 0 0-.17.212ZM88.26 162.423a3.057 3.057 0 0 1 .605-2.555.364.364 0 0 0 0-.503.345.345 0 0 0-.252-.105.355.355 0 0 0-.252.105 3.813 3.813 0 0 0-.788 3.251.357.357 0 0 0 .45.286.353.353 0 0 0 .226-.186.363.363 0 0 0 .011-.293ZM86.01 189.481l.464-3.256a.373.373 0 0 0-.25-.438.36.36 0 0 0-.438.25l-.464 3.26a.366.366 0 0 0 .25.437.355.355 0 0 0 .27-.035.356.356 0 0 0 .167-.214v-.004ZM58.74 144.455l.367-2.188a.366.366 0 0 0-.25-.437.365.365 0 0 0-.438.249l-.368 2.188a.362.362 0 0 0 .25.438.36.36 0 0 0 .438-.25ZM71.89 145.567l.723-1.816a.354.354 0 0 0-.518-.403.365.365 0 0 0-.17.21l-.722 1.821a.352.352 0 0 0 .517.398.371.371 0 0 0 .17-.21ZM72.267 132.027v-2.901a.36.36 0 0 0-.714 0v2.901a.359.359 0 0 0 .714 0ZM95.46 128.133c-.048.122 0 0 .026-.044a1.15 1.15 0 0 1 .075-.123c0-.03.061-.114.092-.127l-.027.035.027-.039.048-.053c.158-.184.33-.355.517-.512l.135-.113c-.07.057 0 0 .027 0l.074-.053c.093-.068.19-.13.29-.188l.135-.07s.07-.022.083-.039c.013-.018-.07.026 0 0l.132-.044h.052c.092-.026-.066 0 0 0a.367.367 0 0 0 .36-.359.359.359 0 0 0-.36-.354 2.725 2.725 0 0 0-1.397.726 3.192 3.192 0 0 0-.963 1.195.352.352 0 0 0 .518.399.367.367 0 0 0 .17-.211l-.014-.026ZM60.776 114.182a8.035 8.035 0 0 0-.224 4.533c.105.438.797.259.688-.188a7.334 7.334 0 0 1 .223-4.153c.153-.437-.539-.621-.688-.192ZM67.542 121.499v-3.265a.36.36 0 0 0-.714 0v3.265a.359.359 0 0 0 .714 0ZM69.017 110.038a1.92 1.92 0 0 0 .876 1.75.36.36 0 0 0 .131.046.359.359 0 0 0 .355-.173.362.362 0 0 0-.127-.486l-.087-.061c-.044-.03 0 0 0 0l-.04-.035c-.008-.009-.096-.087-.14-.136l-.035-.039s-.048-.061 0 0l-.03-.044a1.471 1.471 0 0 1-.106-.179v-.039c-.026-.049 0 0 0 0a1.46 1.46 0 0 1-.088-.289.128.128 0 0 0 0-.04s0-.083 0 0v-.043a1.753 1.753 0 0 1 0-.215.352.352 0 0 0-.354-.354.36.36 0 0 0-.355.354v-.017ZM84.67 126.404a8.775 8.775 0 0 1 1.077 3.444.36.36 0 0 0 .713 0 9.585 9.585 0 0 0-1.173-3.807c-.224-.398-.841-.039-.618.363ZM89.049 116.781v3.265c.01.087.051.169.117.228a.364.364 0 0 0 .48 0 .362.362 0 0 0 .117-.228v-3.265a.36.36 0 0 0-.714 0ZM86.964 108.852c.067-.005.134-.005.201 0h-.035.053l.096.022c.066 0 .123.039.184.061-.105-.035 0 0 .027 0l.087.048.079.048.044.031s.057.043 0 0c-.057-.044 0 0 0 0l.04.03.065.066.07.074a.107.107 0 0 0 .03.035c.027.035-.052-.074 0 0 .04.055.075.112.106.171a.36.36 0 0 0 .49.127.363.363 0 0 0 .127-.486 1.867 1.867 0 0 0-1.673-.967.36.36 0 0 0-.354.355.365.365 0 0 0 .354.358l.009.027ZM95.543 112.077l-.026-.127a.345.345 0 0 0 0-.061c0 .044 0 .044 0 0v-.223a2.37 2.37 0 0 1 0-.25.642.642 0 0 1 0-.092v-.061a3.21 3.21 0 0 1 .131-.438v-.03c0-.035.04-.075.057-.11.018-.035.084-.148.127-.218a.362.362 0 0 0 .038-.27.351.351 0 0 0-.165-.216.36.36 0 0 0-.486.127 2.828 2.828 0 0 0-.385 2.188.359.359 0 0 0 .438.249.363.363 0 0 0 .25-.437l.021-.031ZM76.603 124.295c.068.84.225 1.67.468 2.477a.357.357 0 0 0 .688-.188 10.796 10.796 0 0 1-.438-2.289.368.368 0 0 0-.36-.355.36.36 0 0 0-.354.355h-.004ZM66.64 138.688a3.629 3.629 0 0 1-.574 2.472.36.36 0 0 0 .127.486c.04.024.085.039.13.045a.361.361 0 0 0 .355-.172 4.224 4.224 0 0 0 .675-2.831.361.361 0 0 0-.354-.355.357.357 0 0 0-.36.355ZM83.325 151.663c.025-.103.057-.204.096-.302.026-.079-.026.052 0 0l.035-.075.075-.135c.026-.048.057-.092.083-.136l.048-.065c.044-.066-.04.048 0 0a3.04 3.04 0 0 1 .223-.246l.119-.105.03-.021.066-.044c.086-.063.176-.119.272-.166l.07-.036H84.525l.074-.026c.106-.035.214-.061.324-.079a.34.34 0 0 0 .214-.168.35.35 0 0 0 .031-.269.362.362 0 0 0-.437-.25 2.68 2.68 0 0 0-2.09 1.974.359.359 0 1 0 .688.193l-.004-.044ZM78.46 163.478l.026.07.039.105.079.245c.045.155.082.313.11.473a.826.826 0 0 1 0 .109v.311c.008.172.008.344 0 .516a.357.357 0 0 0 .354.359.366.366 0 0 0 .36-.359 5.025 5.025 0 0 0-.417-2.188.358.358 0 0 0-.49-.127.363.363 0 0 0-.127.486h.065ZM70.607 172.847c-.602.661-1 1.482-1.147 2.363a.373.373 0 0 0 .25.438.37.37 0 0 0 .437-.25 4.51 4.51 0 0 1 .132-.586c.052-.174.118-.344.197-.508.084-.175.178-.344.284-.507.03-.039.058-.08.084-.123l.052-.07.03-.039.18-.215a.354.354 0 0 0 0-.503.355.355 0 0 0-.503 0h.004ZM77.548 190.535l.526-1.636a.356.356 0 0 0-.245-.438.37.37 0 0 0-.438.249l-.526 1.633a.363.363 0 0 0 .25.437.367.367 0 0 0 .438-.249l-.005.004ZM94.562 164.161c0 .109 0 .1.03.214.032.114 0 .184 0 .276.012.169.012.338 0 .507a1.286 1.286 0 0 1-.025.193c0 .083-.031.166-.048.249-.041.179-.095.355-.163.525a.358.358 0 0 0 .25.438.373.373 0 0 0 .438-.249 4.539 4.539 0 0 0 .206-2.342.354.354 0 0 0-.438-.249.37.37 0 0 0-.25.438ZM89.644 178.151a5.919 5.919 0 0 0 .132 1.864.36.36 0 0 0 .438.25.364.364 0 0 0 .25-.438 6.39 6.39 0 0 1-.08-.438c-.022-.153 0 .04 0-.039V179.018a5.848 5.848 0 0 1 0-.876.352.352 0 0 0-.604-.248.368.368 0 0 0-.11.248l-.026.009ZM89.793 140.189a2.694 2.694 0 0 1 0-.324v-.263c.023-.105.05-.21.079-.315l.052-.144.027-.07c.026-.066-.035.074 0-.035a3.18 3.18 0 0 1 .31-.547l.027-.035.044-.057.1-.118c.08-.083.162-.162.246-.237a.354.354 0 0 0 .106-.404.364.364 0 0 0-.204-.206.364.364 0 0 0-.29.012.363.363 0 0 0-.116.091 3.505 3.505 0 0 0-1.16 2.652.361.361 0 0 0 .359.354.36.36 0 0 0 .354-.354h.066ZM75.223 152.674c.04.074.079.153.114.231l.026.066c0 .039 0 .044 0 0l.04.101c.06.157.118.319.166.481.048.162.088.328.123.499 0 .083.03.166.043.249v.197a.363.363 0 0 0 .355.355c.18 0 .381-.158.36-.355a6.35 6.35 0 0 0-.645-2.188.354.354 0 0 0-.355-.172.358.358 0 0 0-.13.045.368.368 0 0 0-.132.486l.035.005ZM53.348 149.667a2.255 2.255 0 0 0 1.222 2.096.364.364 0 0 0 .486-.131.355.355 0 0 0-.127-.486 1.78 1.78 0 0 1-.223-.131l-.053-.035c-.04-.026.048.044 0 0l-.1-.087a2.148 2.148 0 0 1-.176-.193l-.04-.052-.07-.11c-.021-.039-.039-.079-.06-.114a.567.567 0 0 0-.022-.048.086.086 0 0 0 0-.035c0-.026 0 0 0 0a1.111 1.111 0 0 0-.044-.122 1.106 1.106 0 0 1-.035-.11c0-.043-.022-.087-.026-.127a.353.353 0 0 1 0-.065c0 .083 0 .03 0 0a1.956 1.956 0 0 1 0-.276.359.359 0 0 0-.714 0l-.018.026ZM63.329 149.475V148.704a.43.43 0 0 1 0-.07v-.091l.04-.193c.03-.132.068-.262.113-.389a.362.362 0 0 0-.104-.41.359.359 0 0 0-.584.217 4.696 4.696 0 0 0-.236 1.707.36.36 0 0 0 .714 0h.057ZM66.67 155.032c.044.069.083.141.118.215l.053.1.026.062c0-.035 0-.035 0 0 .056.143.105.289.145.437 0 .075.03.149.048.223.017.075 0 .088 0 .132v.035c.01.163.01.327 0 .49a.359.359 0 0 0 .355.354.367.367 0 0 0 .359-.354 3.726 3.726 0 0 0-.521-2.057.364.364 0 0 0-.487-.127.368.368 0 0 0-.13.49h.034ZM79.265 176.698a3.537 3.537 0 0 0 1.888 3.72.369.369 0 0 0 .268.034.367.367 0 0 0 .218-.161.355.355 0 0 0-.127-.486 2.834 2.834 0 0 1-1.56-2.919.354.354 0 0 0-.249-.437.363.363 0 0 0-.376.125.357.357 0 0 0-.062.124ZM96.056 152.17a3.367 3.367 0 0 0 3.066-2.376.357.357 0 0 0-.25-.438.36.36 0 0 0-.438.25 2.623 2.623 0 0 1-2.383 1.851.36.36 0 0 0-.355.354.364.364 0 0 0 .355.359h.005ZM102.962 143.856l.228 1.155a.364.364 0 0 0 .061.125.365.365 0 0 0 .238.135.36.36 0 0 0 .388-.448l-.228-1.155a.359.359 0 0 0-.438-.25.357.357 0 0 0-.249.438ZM100.527 121.555c.181.71.59 1.34 1.165 1.795.068.063.156.1.249.105a.358.358 0 0 0 .254-.609 3.016 3.016 0 0 1-.354-.324.985.985 0 0 1-.158-.183c0 .035.026.035 0 0a.32.32 0 0 1-.031-.044l-.074-.105a3.273 3.273 0 0 1-.232-.438.193.193 0 0 0 0-.048c.039.053 0 .031 0 0l-.04-.109a2.304 2.304 0 0 1-.074-.245.363.363 0 0 0-.438-.25.359.359 0 0 0-.25.438l-.017.017Z" fill="#BA6542"/><path d="M75.963 135.471c-1.835.683-3.503 2.048-3.862 3.339-.67 2.53 2.513 3.247 4.379 2.626a8.446 8.446 0 0 0 3.004-1.926c.832-.765 2.02-2.188 1.213-3.352-.972-1.374-2.925-1.369-4.734-.687Z" fill="#FAC7B7"/><path d="M76.839 136.154c-1.2.63-2.707 1.151-3.346 2.459a1.178 1.178 0 0 0 .32 1.571c.585.35 1.28.472 1.949.342a5.25 5.25 0 0 0 3.604-2.136c.276-.438.46-1.063.026-1.453a1.097 1.097 0 0 0-1.152-.03 6.186 6.186 0 0 0-1.45.875 4.953 4.953 0 0 0-.971.875.39.39 0 0 0 .16.496.39.39 0 0 0 .51-.107c-.084.114.026-.021.048-.043.037-.042.076-.081.118-.118.131-.123.263-.237.403-.351.296-.244.609-.466.937-.665.16-.1.326-.188.5-.262l.157-.057.118-.035s.123-.022.04 0h.096c-.105 0 0 0 0 0s-.079-.044-.061-.048c.017-.005.026.048 0 .092a.666.666 0 0 1-.088.253c-.504.954-1.612 1.545-2.628 1.816a2.962 2.962 0 0 1-1.576.057c-.17-.048-.438-.135-.5-.319a.564.564 0 0 1 .084-.438c.604-1.142 1.957-1.558 3.04-2.131.437-.232.052-.901-.39-.665l.052.022Z" fill="#fff"/><path d="M67.747 156.914c-1.751-.875-3.906-1.155-5.084-.517-2.3 1.248-.64 4.053 1.082 4.98 1.08.532 2.26.83 3.464.876 1.13.078 2.99-.044 3.275-1.418.338-1.659-1.007-3.072-2.737-3.921Z" fill="#F1673C"/><path d="M67.84 158.021c-1.284-.437-2.602-1.116-3.99-.766a1.209 1.209 0 0 0-1.03 1.09c-.026.757.548 1.457 1.113 1.904a5.296 5.296 0 0 0 4.016 1.142c.482-.083 1.077-.377 1.077-.946 0-.437-.385-.713-.74-.875a6.288 6.288 0 0 0-1.616-.437 4.66 4.66 0 0 0-1.279-.114.407.407 0 0 0-.39.389.39.39 0 0 0 .39.385 5.395 5.395 0 0 1 1.953.272c.183.046.361.106.535.179.064.027.127.058.188.092l.07.044c.079.048.026 0 .066.048a.512.512 0 0 1 .066.07c-.075-.07 0 0 0 0v-.079c0-.004 0 .044-.049.07a.836.836 0 0 1-.236.114c-1.007.289-2.19-.092-3.066-.608a2.856 2.856 0 0 1-1.257-1.265c-.166-.411-.039-.608.364-.713 1.23-.328 2.444.359 3.604.757.473.162.675-.587.206-.744l.004-.009Z" fill="#fff"/><path d="M96.056 154.166c-1.936.28-3.872 1.256-4.485 2.446-1.191 2.332 1.752 3.707 3.714 3.501a8.58 8.58 0 0 0 3.346-1.243c.972-.573 2.439-1.75 1.896-3.019-.666-1.563-2.575-1.956-4.471-1.685Z" fill="#FAC7B7"/><path d="M96.77 155.019c-1.314.368-2.887.56-3.806 1.702a1.178 1.178 0 0 0-.03 1.602 2.76 2.76 0 0 0 1.82.748 5.21 5.21 0 0 0 3.99-1.313c.36-.354.688-.954.325-1.422a1.139 1.139 0 0 0-1.143-.258 6.35 6.35 0 0 0-1.599.565 4.69 4.69 0 0 0-1.1.643c-.376.328.176.875.548.547.066-.057-.048.03.044-.031l.149-.096c.144-.088.298-.171.438-.25a7.994 7.994 0 0 1 1.03-.437c.305-.134.637-.201.971-.197h.035c.049 0 0 .031 0 0 0 .035.031-.022 0 0-.03.022.027-.088 0 0-.026.087.049-.074 0 .057a.957.957 0 0 1-.131.219 3.156 3.156 0 0 1-1.09.783 4.725 4.725 0 0 1-1.844.438 2.944 2.944 0 0 1-1.568-.28c-.364-.197-.534-.438-.258-.806.784-1.006 2.29-1.137 3.424-1.453a.39.39 0 0 0-.206-.748v-.013Z" fill="#fff"/><path d="M97.006 115.451c-1.94.276-3.871 1.256-4.484 2.446-1.192 2.328 1.751 3.702 3.713 3.501a8.58 8.58 0 0 0 3.346-1.243c.972-.573 2.439-1.728 1.896-3.019-.652-1.554-2.562-1.961-4.471-1.685Z" fill="#F1673C"/><path d="M97.728 116.304c-1.313.363-2.885.556-3.8 1.702a1.17 1.17 0 0 0-.031 1.598 2.767 2.767 0 0 0 1.821.752 5.21 5.21 0 0 0 3.99-1.312c.359-.355.688-.954.324-1.418a1.13 1.13 0 0 0-1.143-.263 6.574 6.574 0 0 0-1.598.565 4.834 4.834 0 0 0-1.1.643c-.376.328.175.875.548.547.066-.057-.048.031.044-.026l.148-.097c.145-.091.298-.175.438-.253.333-.17.677-.316 1.03-.438.306-.134.637-.201.972-.197h.035c.048 0 0 .035 0 0 0 .04.03 0 0 0s.026-.087 0 0c-.026.088.048-.074 0 .057a.937.937 0 0 1-.132.219 3.124 3.124 0 0 1-1.09.783 4.726 4.726 0 0 1-1.844.438 2.973 2.973 0 0 1-1.568-.276c-.363-.201-.534-.438-.258-.81.784-1.006 2.29-1.137 3.425-1.452a.386.386 0 0 0-.21-.744v-.018Z" fill="#fff"/><path d="M68.198 178.654c-1.826-.704-3.993-.801-5.11-.061-2.19 1.448-.276 4.096 1.52 4.866a8.552 8.552 0 0 0 3.53.551c1.13 0 2.973-.306 3.13-1.702.193-1.672-1.274-2.958-3.07-3.654Z" fill="#F1673C"/><path d="M68.422 179.757c-1.314-.324-2.755-.915-4.104-.407a1.195 1.195 0 0 0-.875 1.199c.065.766.705 1.409 1.313 1.803a5.263 5.263 0 0 0 4.051.744c.482-.131 1.056-.486.981-1.068-.057-.438-.481-.661-.876-.792a6.084 6.084 0 0 0-1.66-.293 4.739 4.739 0 0 0-1.313 0c-.49.1-.285.844.206.744h.744c.386.013.771.052 1.152.118.327.05.642.157.933.315-.04-.022.035.031 0 0 .022-.057-.04-.026 0-.022-.035 0 .039-.07 0-.022-.101.131.03 0-.035.053a.604.604 0 0 1-.215.131c-.937.389-2.19.109-3.066-.302a2.941 2.941 0 0 1-1.405-1.16c-.193-.363-.127-.599.25-.744 1.186-.463 2.517.132 3.665.412.482.122.687-.626.206-.744l.048.035Z" fill="#fff"/><path d="M68.755 100.642a5.37 5.37 0 0 0 .578 2.293c.355.735 1.016 1.479 1.91 1.418 1.69-.118 2.057-2.337 2.224-3.654.092-.722.118-1.448.144-2.188.027-.74-1.055-.696-1.081 0a13.442 13.442 0 0 1-.438 3.571c0 .07-.044.14-.07.206-.027.065-.092.24-.057.161-.06.135-.129.265-.206.39-.032.041-.06.083-.088.127a.98.98 0 0 0-.1.109c-.022.027-.15.114-.049.048l-.087.053s-.136.074-.057.039c.079-.035-.1.027-.127.035-.026.009-.105 0 0 0h-.223l-.114-.035c.074.031 0 0 0 0s-.07-.039-.101-.065c-.03-.027.07.065 0 0a1.153 1.153 0 0 1-.149-.145 1.644 1.644 0 0 1-.271-.389 3.974 3.974 0 0 1-.403-1.033 2.952 2.952 0 0 1-.136-.923.543.543 0 0 0-1.086 0l-.013-.018ZM88.514 100.069c.005.266-.03.532-.105.788a4.784 4.784 0 0 1-.31.936c-.07.152-.15.298-.242.438a1.812 1.812 0 0 1-.302.337s-.083.061 0 0l-.083.052-.083.048c.092-.048 0 0-.026 0l-.119.031c.027 0 .105 0 0 0h-.096c-.145 0 .083.026-.03 0l-.154-.048c.131.052-.052-.039-.083-.057-.03-.017.048.057-.053-.044-.1-.1-.1-.1-.144-.157.079.096-.048-.066-.062-.088-.013-.022-.074-.122-.109-.184a1.657 1.657 0 0 1-.088-.179c-.07-.144 0 .057 0-.035l-.057-.144a6.779 6.779 0 0 1-.262-.972 10.472 10.472 0 0 1-.145-.971 29.23 29.23 0 0 1-.11-1.86c-.026-.696-1.112-.7-1.085 0 .052 1.409.083 2.91.613 4.236.271.674.7 1.348 1.45 1.545.875.231 1.633-.364 2.066-1.086a5.2 5.2 0 0 0 .727-2.582.543.543 0 0 0-1.081 0l-.027-.004Z" fill="#32142A"/><path d="M60.267 93.107A16.702 16.702 0 0 1 59.2 85.99c-.005-.464.124-.92.372-1.313.263-.296.591-.527.96-.674 9.866-4.848 20.013-5.947 30.655-8.721 1.19-.31 2.522-.604 3.6 0 1.077.604 1.52 1.838 1.751 3.015.618 3.063.81 4.578-.499 7.4l-35.77 7.409Z" fill="#153A23"/><path d="M63.793 82.661a15.91 15.91 0 0 1 4.426-7.535 15.927 15.927 0 0 1 16.46-3.432c2.79 1.02 5.24 2.8 7.072 5.138" fill="#153A23"/><path d="M35.463 92.043c.442-.498.839-1.034 1.187-1.601 3.832-6.25.819-15.014-6.42-16.883-7.997-2.066-16.12 6.564-14.614 14.415 1.204 6.257 6.936 7.723 12.48 7.632a10.184 10.184 0 0 0 7.367-3.563Z" fill="#FAC7B7"/><path d="M8.635 79.068a3645.428 3645.428 0 0 1 39.06-11.859l-1.564-8.025C27.637 64.19 25.403 65.254 6.489 70.42l2.146 8.647Z" fill="#F7BC28"/><path d="M16.526 34.883c-3.573 3.015-8.447 9.453-9.332 11.855-3.565 9.68-1.9 19.544 10.073 20.13 18.467.875 16.794-20.152 13.34-32.777l-14.08.792Z" fill="#153A23"/><path d="M29.805 28.551c-1.034.753-2.12 1.527-3.381 1.75-1.261.224-2.755-.27-3.245-1.457a5.358 5.358 0 0 0-.495-1.26c-.71-.919-2.137-.372-3.232 0-2.527.875-5.693.127-7.125-2.131-1.432-2.258-.381-5.842 2.19-6.538a6.21 6.21 0 0 1-7.564-2.035 6.197 6.197 0 0 1 .911-7.785 6.208 6.208 0 0 1 7.84-.236 7.303 7.303 0 0 1 7.358-3.57 7.307 7.307 0 0 1 6.06 5.491c-.262-2.695.366-5.4 1.786-7.706A3.94 3.94 0 0 1 32.791 1.3c1.235-.437 2.593.228 3.622 1.042a12.142 12.142 0 0 1 4.423 7.732c.578-1.842 3.504-2.021 4.7-.525 1.195 1.497.901 3.803-.202 5.383-1.104 1.58-2.825 2.625-4.493 3.575 2.779.505 5.485 1.35 8.058 2.516.587.267 1.23.635 1.353 1.265a2 2 0 0 1-.407 1.374c-1.03 1.694-2.321 3.29-4.051 4.267-1.73.976-3.942 1.23-5.693.275.963 2.941-1.962 6.302-5.045 6.004-3.083-.297-5.317-3.802-4.55-6.8" fill="#E48929"/><path d="M54.495 195.205c5.05 7.496 10.599 14.655 15.876 21.989a210.025 210.025 0 0 1 3.621 5.16c.552.822 1.897.048 1.314-.784-5.045-7.496-10.598-14.655-15.87-21.989a204.173 204.173 0 0 1-3.622-5.155c-.556-.823-1.897-.049-1.34.779h.022ZM45.667 241.744l20.92 17.788 9.525-8.056v10.271l-8.435 8.48-22.01-28.483Z" fill="#122D1C"/><path d="M110.227 128.977c-.354 9.12-.14 18.253.64 27.346.087.985 1.637.993 1.55 0a220.084 220.084 0 0 1-.64-27.346c.04-.998-1.51-.993-1.55 0ZM116.135 133.677a160.326 160.326 0 0 1 16.576-1.164c.994 0 .998-1.558 0-1.549-5.542.101-11.075.49-16.576 1.164-.981.109-.99 1.663 0 1.549ZM28.368 107.373c4.257.214 8.759 0 12.643-1.921.876-.438.11-1.777-.78-1.339-3.625 1.785-7.882 1.912-11.863 1.711-.994-.049-.994 1.501 0 1.549Z" fill="#E48929"/><path d="M82.725 245.879c1.703 3.965 3.065 6.24 7.975 7.439.354.088.757.193.92.521a1.24 1.24 0 0 1-.15 1.033 3591.366 3591.366 0 0 0-3.24 6.853 16.64 16.64 0 0 0-5.05-3.063c.438 3.15.644 4.993 0 8.113-.644 3.12-4.3 8.962-7.007 10.642-1.287.797-3.157-1.094-4.16-2.66-1.16-1.803-2.023-2.678-.911-4.508 1.988-3.264 4.817-4.551 4.773-10.441-.026-3.663.438-4.814-.875-7.391l7.725-6.538Z" fill="#32142A"/><path d="M18.484 63.24c1.931.088 3.972.35 5.693-.556a7.342 7.342 0 0 0 2.058-1.75 14.814 14.814 0 0 0 3.583-9.548.314.314 0 0 0-.53-.22c-1.314 1.292-2.19 3.033-3.114 4.652-1.05 1.82-2.386 3.659-4.38 4.355a13.01 13.01 0 0 1-2.053.437 22.652 22.652 0 0 0-3.854 1.029s-.32 1.47 2.597 1.601Z" fill="#39B55D"/><path d="M32.358 14.828a3.445 3.445 0 0 1-2.054-3.939 3.444 3.444 0 0 1 3.757-2.402v-1.51c-1.559.517-3.288-.665-3.634-2.227-.346-1.562.972-2.626 2.36-2.814.656-.1 1.326.032 1.896.372.662.438.981 1.19 1.28 1.886a8.37 8.37 0 0 0 1.195 2.232c.678.792 1.537.98 2.513 1.19a2.19 2.19 0 0 1 1.862 2.188 2.187 2.187 0 0 1-1.95 2.018c-.98.153-.564 1.645.412 1.492a3.649 3.649 0 0 0 3.007-3.046 3.644 3.644 0 0 0-1.96-3.803c-.657-.324-1.384-.297-2.05-.56-1.024-.398-1.357-1.724-1.751-2.626A4.648 4.648 0 0 0 35.292.89a4.575 4.575 0 0 0-2.908-.437c-2.067.345-3.797 2.109-3.503 4.292.328 2.539 3.109 4.565 5.614 3.733.657-.219.81-1.36 0-1.492-2.426-.403-5.006 1.046-5.662 3.5-.657 2.456.832 4.994 3.135 5.865.933.35 1.314-1.147.412-1.497l-.022-.026Z" fill="#FAC7B7"/><path d="M34.307 17.637c1.05 2.565 4.291 2.696 6.595 2.005 2.628-.788 4.87-2.81 5.487-5.545a6.743 6.743 0 0 0-.547-4.582c-.438-.875-1.791-.105-1.34.784 1.274 2.49.105 5.527-2.15 7.001a7.273 7.273 0 0 1-3.758 1.178c-.963 0-2.374-.22-2.794-1.239a.8.8 0 0 0-.955-.542.784.784 0 0 0-.538.94ZM36.838 22.048a3.943 3.943 0 0 0-3.342 1.803 4.938 4.938 0 0 0-.503 4.114c.363 1.256 1.178 2.77 2.557 3.107 1.38.337 2.545-.652 2.843-1.93.367-1.58-.657-2.976-1.83-3.912a.802.802 0 0 0-1.096 0 .778.778 0 0 0 0 1.094c.758.608 1.778 1.597 1.362 2.625a.914.914 0 0 1-.705.626c-.438 0-.828-.411-1.06-.766a4.112 4.112 0 0 1-.551-3.597 2.46 2.46 0 0 1 2.325-1.632c.998.04.994-1.51 0-1.55v.018ZM20.358 22.193c-.083.114-.035 0 .08.066.113.065.196.087.262.21.25.463-.32 1.207-.565 1.557-.394.565.258 1.313.876 1.138.617-.175.81.617.626 1.029a2.14 2.14 0 0 1-1.585 1.063c-1.09.206-2.488-.263-2.864-1.392a.787.787 0 0 0-1.314-.34 16.5 16.5 0 0 1-1.323.984c-.192.127-.998.752-1.182.682-.184-.07-.285-.437-.355-.577-.105-.2-.2-.407-.284-.617a5.013 5.013 0 0 1-.35-1.493 2.904 2.904 0 0 1 .836-2.345 2.059 2.059 0 0 1 2.106-.534.784.784 0 0 0 .981-.748c0-.714.223-1.624.924-1.983.438-.232 1.226-.13 1.402.438.297.945 1.79.543 1.493-.438a2.537 2.537 0 0 0-3.258-1.527c-1.446.503-2.098 2.083-2.111 3.5l.98-.743a3.634 3.634 0 0 0-3.56.875 4.442 4.442 0 0 0-1.313 3.838c.09.744.299 1.47.617 2.149.28.612.63 1.313 1.27 1.623.77.359 1.524-.114 2.19-.512.72-.453 1.41-.952 2.067-1.492l-1.314-.341c.758 2.27 3.547 3.128 5.64 2.188 1.117-.508 2.094-1.633 1.906-2.932-.184-1.23-1.397-2.219-2.628-1.856l.876 1.138c.696-.993 1.279-2.52.263-3.5a1.751 1.751 0 0 0-2.715.117c-.574.819.766 1.593 1.34.784l-.014-.01ZM22.395 11.279c.074 0 .149.044.245.193a.875.875 0 0 1 .114.708c-.219.635-1.204.797-1.804.81a3.418 3.418 0 0 1-2.19-.556c-.67-.525-.394-1.286 0-1.895a4.02 4.02 0 0 1 4.108-1.619 3.621 3.621 0 0 1 2.684 3.55c-.07 1.798-1.852 3.159-3.586 2.962a.784.784 0 0 0-.776.774.792.792 0 0 0 .776.775c2.46.276 4.817-1.729 5.106-4.144A5.14 5.14 0 0 0 23.1 7.389a5.54 5.54 0 0 0-6.131 3.225 2.598 2.598 0 0 0 1.116 3.247 5.258 5.258 0 0 0 3.425.626c1.314-.171 2.742-.99 2.772-2.482.031-1.312-1.007-2.48-2.347-2.218-.981.188-.565 1.68.412 1.492h.048Z" fill="#FAC7B7"/><path d="M26.976 23.33c.14-1.4-.556-3.61.823-4.572a.736.736 0 0 1 1.17.358c.186.595.229 1.225.122 1.838a1.714 1.714 0 0 0 .836 1.725c.473.284.793.437.841 1.067.11 1.4-1.568 1.75-2.58 1.23a.784.784 0 0 0-1.138.875 2.75 2.75 0 0 1-.315 2.188 2.937 2.937 0 0 1-.815.875c-.24.171-.78.504-1.077.381-.298-.122-.438-.875-.5-1.133a3.975 3.975 0 0 1 .986-3.623c.692-.718-.403-1.817-1.095-1.095a5.55 5.55 0 0 0-1.537 3.707c-.03 1.181.364 3.247 1.695 3.64 1.331.395 2.733-.66 3.455-1.653a4.374 4.374 0 0 0 .7-3.724l-1.138.875c1.314.691 3.118.639 4.183-.525a2.914 2.914 0 0 0 .056-3.781 2.86 2.86 0 0 0-.801-.59c-.333-.194-.202-.439-.17-.789a4.567 4.567 0 0 0-.272-2.056 2.298 2.298 0 0 0-3.697-.92c-1.751 1.462-1.086 3.703-1.283 5.69-.1.988 1.45.984 1.55 0v.013ZM35.182 10.448c-1.431-.127-2.163 2.13-1.077 3.063 1.086.932 2.983.289 3.56-1.02a2.186 2.186 0 0 0-.205-2.245 1.52 1.52 0 0 0-2.111-.236M40 24.018c.32 1.75 2.054 2.831 3.757 2.862.92.05 1.835-.174 2.628-.644.657-.463 1.2-1.365.635-2.118l-.876 1.138a5.062 5.062 0 0 0 3.775-.499 3.559 3.559 0 0 0 1.362-1.26 1.435 1.435 0 0 0-.438-1.83c-2.058-1.71-4.879-1.614-7.392-1.4-.99.084-.999 1.633 0 1.55 1.752-.15 3.775-.342 5.439.437a4.529 4.529 0 0 1 .832.495c.079.06.25.267.193.096-.057-.17.044-.044-.062 0-.105.044-.18.188-.267.258-.16.135-.332.252-.517.35a3.427 3.427 0 0 1-2.522.328c-.596-.148-1.314.565-.876 1.138.18.24 0-.131.03-.136.031-.004-.117.136-.166.171a1.814 1.814 0 0 1-.678.263 3.668 3.668 0 0 1-1.586.087 2.12 2.12 0 0 1-1.778-1.68c-.175-.98-1.668-.565-1.493.411v-.017Z" fill="#FAC7B7"/><path d="M63.605 90.258v-5.251a.774.774 0 0 0-1.55 0v5.251a.774.774 0 0 0 1.55 0ZM69.368 89.803v-8.135a.775.775 0 0 0-1.55 0v8.135a.775.775 0 0 0 1.55 0ZM75.302 87.378v-7.793a.774.774 0 0 0-1.55 0v7.793a.774.774 0 1 0 1.55 0ZM81.065 87.15v-8.808a.774.774 0 0 0-1.55 0v8.809a.774.774 0 0 0 1.55 0ZM86.491 84.95v-5.93a.774.774 0 1 0-1.55 0v5.93a.774.774 0 0 0 1.55 0ZM91.41 84.38v-6.436a.774.774 0 0 0-1.551 0v6.437a.774.774 0 0 0 1.55 0ZM95.364 82.293v-4.231a.774.774 0 1 0-1.55 0v4.231a.774.774 0 1 0 1.55 0Z" fill="#122D1C"/><path d="m97.746 103.5.092-.022h.28c.127.041.245.103.35.184.251.243.407.567.439.914v.035c.004.062.004.123 0 .184v.464c-.018.082-.04.162-.066.241a.895.895 0 0 1-.044.131c.026-.07 0 .035 0 .048-.04.084-.085.164-.136.241 0 .022-.074.096-.026.044l-.092.1-.096.092c-.075.075.026 0-.066.053a.556.556 0 0 0-.193.739.55.55 0 0 0 .74.197 2.849 2.849 0 0 0 1.052-2.919c-.224-1.146-1.284-2.104-2.497-1.798a.542.542 0 0 0-.376.665.553.553 0 0 0 .665.381l-.026.026ZM58.034 109.898a2.294 2.294 0 0 1-1.598-.333 1.49 1.49 0 0 1-.237-.206 1.82 1.82 0 0 1-.122-.135c-.075-.083 0 0-.075-.097a2.026 2.026 0 0 1-.188-.315 1.237 1.237 0 0 1-.118-.28 3.641 3.641 0 0 1-.101-.376c0-.061-.022-.118-.03-.179v-.114a3.185 3.185 0 0 1 0-.355v-.17a.774.774 0 0 1 0-.101c0-.088-.027.127 0-.022.015-.108.04-.215.074-.319 0-.053.03-.101.048-.153.017-.053-.027.035.03-.071.13-.248.311-.467.53-.643a3.638 3.638 0 0 1 2.356-.661c.701.027.701-1.059 0-1.085-1.638-.061-3.63.709-4.046 2.46a3.64 3.64 0 0 0 1.025 3.527c.337.279.729.487 1.15.61.42.122.862.157 1.298.103a.566.566 0 0 0 .543-.543.546.546 0 0 0-.543-.542h.004Z" fill="#32142A"/><path d="M58.187 106.191c-.423.042-.812.25-1.081.578a2.266 2.266 0 0 0-.539 1.041 1.312 1.312 0 0 0 .263 1.169 1.5 1.5 0 0 0 .806.437c.315.066.634.079.954.118a.532.532 0 0 0 .543-.542.555.555 0 0 0-.157-.381.619.619 0 0 0-.386-.157c-.1 0-.201-.027-.306-.035H58.06c-.114 0 .14.021.027 0a2.002 2.002 0 0 1-.307-.066h-.074c-.101-.031.105.052.039 0l-.131-.074c-.066-.04.096.091.048.035l-.053-.053c-.065-.066.057.101.03.039l-.039-.065c-.03-.053.049.127.031.07-.017-.057 0 0 0-.035a.364.364 0 0 0 0-.066c.048.136 0 .096 0 .031a1.032 1.032 0 0 1 0-.114.111.111 0 0 1 0-.039s-.026.135 0 .078a.706.706 0 0 1 0-.092c.014-.064.033-.126.057-.188.03-.087-.057.123 0 0l.04-.078c.035-.07.074-.137.118-.202l.03-.035c.035-.057-.074.083-.03.035a.96.96 0 0 1 .083-.092.814.814 0 0 1 .083-.087l.035-.031c.053-.048-.026.022-.04.031l.097-.066a.699.699 0 0 0 .096-.052s-.113.039-.06.026h.052c.044 0 .184-.026 0 0a.572.572 0 0 0 .385-.158.562.562 0 0 0 .158-.38.548.548 0 0 0-.543-.543l-.005-.057ZM97.124 105.062l-.127.053a.507.507 0 0 1 .158-.04h-.145.167-.145a.655.655 0 0 1 .18.048l-.132-.057a.73.73 0 0 1 .158.092l-.11-.087a.742.742 0 0 1 .119.118l-.088-.109a.612.612 0 0 1 .07.118l-.052-.132a1 1 0 0 1 .043.162l-.021-.144a.617.617 0 0 1 0 .179v-.144a.788.788 0 0 1-.049.175l.057-.127a.679.679 0 0 1-.096.153l.088-.109a.635.635 0 0 1-.11.109l.114-.087-.079.052a.549.549 0 0 0-.25.324.545.545 0 0 0 .49.68.54.54 0 0 0 .308-.072 1.14 1.14 0 0 0 .438-.468c.106-.201.155-.429.14-.656a1.277 1.277 0 0 0-.119-.438 1.157 1.157 0 0 0-.762-.604 1.115 1.115 0 0 0-.363-.039 1.276 1.276 0 0 0-.477.122.578.578 0 0 0-.25.324.563.563 0 0 0 .057.438.545.545 0 0 0 .324.249h.145a.54.54 0 0 0 .271-.074l.048-.009Z" fill="#32142A"/></svg>