<svg width="260" height="280" fill="none" xmlns="http://www.w3.org/2000/svg"><path d="M114.994 103.923a70.558 70.558 0 0 1-2.264 10.77c6.54.31 13.091.253 19.624-.171a53.486 53.486 0 0 1-2.163-11.067l-15.197.468Z" fill="#EE9E7B"/><path d="M99.868 66.954a465.094 465.094 0 0 0 .105 20.384c.044 1.75.11 3.562.719 5.22.801 2.188 2.478 3.939 4.107 5.61l6.456 6.617a7.42 7.42 0 0 0 2.01 1.632c1.095.53 2.369.49 3.586.438l10.2-.407c1.314-.053 2.658-.114 3.858-.657 1.2-.542 2.12-1.496 3.022-2.437l9.394-9.772c.735-.77 1.493-1.575 1.799-2.59a6.86 6.86 0 0 0 .071-2.705l-2.19-19.88a3.626 3.626 0 0 0-.438-1.654 3.54 3.54 0 0 0-1.349-1.072 47.525 47.525 0 0 0-33.108-4.49 13.647 13.647 0 0 0-8.224 5.759l-.018.004Z" fill="#EE9E7B"/><path d="M100.297 81.592a2.575 2.575 0 0 0-2.837.206 4.336 4.336 0 0 0-1.529 2.534 5.593 5.593 0 0 0 .876 4.66 4.2 4.2 0 0 0 4.379 1.532" fill="#EE9E7B"/><path d="M136.957 63.484c1.174-2.735 5.019-5.22 7.988-5.413 2.969-.193 6.495.713 7.108 4.083.15.894.064 1.813-.25 2.664-.876 2.477-2.908 4.088-4.887 5.641a8.97 8.97 0 0 1 3.503-.114 3.247 3.247 0 0 1 2.698 2.836c.092 1.663-.937 3.138-3.153 3.698 2.316-.088 4.27 3.457 1.042 5.067a2.63 2.63 0 0 1-1.997 0c-.293-.096.648 1.466-.368 2.687-.762.92-1.314.11-1.642.254-1.104.481-2.212-2.11-3.32-1.628a151.333 151.333 0 0 1-2.019-11.01 14.654 14.654 0 0 0-4.712-8.752l.009-.013Z" fill="#632B25"/><path d="M142.112 79.137c.845-.547 2.627-.394 3.45.206a4.313 4.313 0 0 1 1.529 2.533 5.574 5.574 0 0 1-.876 4.661 4.196 4.196 0 0 1-4.357 1.532" fill="#EE9E7B"/><path d="M137.272 63.738c-.184-5.063-5.789-11.076-10.659-12.494-4.87-1.418-10.073-.613-15.017.604-6.179 1.523-12.464 3.85-16.75 8.555-4.288 4.704-5.891 12.336-2.19 17.504.437.617.972 1.221 1.142 1.965.28 1.204-.486 2.46-1.52 3.138-1.033.678-2.298.906-3.503 1.116 2.483 2.498 8.527 1.894 10.314-1.138.876-1.48 1.038-3.247 1.186-4.958.338-3.882-.551-7.768-.214-11.654l37.211-2.638Z" fill="#632B25"/><path d="M96.352 83.229c-2.882-5.111-3.867-11.816-.662-16.717 1.866-2.866 4.892-4.765 7.997-6.196a42.69 42.69 0 0 1 28.466-2.49c1.537.402 3.175.984 4.025 2.328.941 1.483.582 3.54-.504 4.927-1.086 1.387-2.75 2.188-4.432 2.713-7.204 2.188-14.947-.463-22.462 0-2.216.132-4.668.692-5.89 2.547-1.222 1.856-.784 4.219-1.104 6.376-.468 3.138-1.129 7.365-6.569 8.752l1.135-2.24ZM110.83 92.195a.97.97 0 0 1-.64-1.715 13.588 13.588 0 0 1 4.769-2.845 17.33 17.33 0 0 1 4.656-.556 270.37 270.37 0 0 1 12.209-.048c.66 0 1.3.225 1.813.64.758.651 1.008 1.53 1.345 2.533a1.203 1.203 0 0 1-.572 1.444 1.203 1.203 0 0 1-.54.14l-23.04.407Z" fill="#632B25"/><path d="M104.484 83.587a.659.659 0 0 0 .504.528.655.655 0 0 0 .679-.27c2.189-3.141 5.658-5.802 8.986-7.439a1.79 1.79 0 0 0 .797-.608 1.314 1.314 0 0 0-.276-1.405c-.595-.717-2.225-1.067-3.14-.875a5.04 5.04 0 0 0-1.611.779c-1.616 1.024-3.25 2.07-4.542 3.5-1.292 1.432-1.603 3.261-1.502 5.169l.105.621ZM140.697 82.117a.495.495 0 0 1-.326.464.5.5 0 0 1-.55-.14c-2.308-2.656-5.921-4.862-9.253-5.313-.754-.1-1.577-.162-1.752-1.527-.033-.45.048-.902.236-1.313.098-.416.303-.8.596-1.111.412-.31.994-.175 1.484 0a24.837 24.837 0 0 1 7.218 3.838c1.217.927 2.027 1.242 2.36 3.72l-.013 1.382Z" fill="#632B25"/><path d="M127.743 91.985c-.215.775-.407 1.553-.635 2.324-.092.31-.175.494-.517.547-.4.04-.802.055-1.204.044-1.734.05-3.47.05-5.207 0-.776 0-.776 1.194 0 1.207 2.005.04 4.007.03 6.008-.04.876-.03 1.607-.24 1.962-1.102.305-.877.558-1.771.758-2.678a.604.604 0 0 0-1.165-.32v.018Z" fill="#301629"/><path d="M119.383 85.929a1.467 1.467 0 0 0 1.405 1.916h4.559c.775 0 1.647-.048 2.19-.612.955-1.033 0-2.652-.95-3.69l-1.678-2.222a2.445 2.445 0 0 0-4.278.73l-1.248 3.878Z" fill="#C05929"/><path d="M120.464 99.013h4.958a.604.604 0 0 0 0-1.208h-4.958a.604.604 0 1 0 0 1.208ZM106.429 84.773c.202-1.656.716-3.26 1.515-4.726.197-.43.509-.798.902-1.063.36-.173.753-.264 1.152-.267a78.257 78.257 0 0 1 9.061-.223c.551 0 1.186.092 1.475.556.145.285.206.605.176.923v3.247a1.07 1.07 0 0 1-1.2 1.26 95.68 95.68 0 0 1-12.95.876M140.066 84.773a14.223 14.223 0 0 0-1.515-4.726 2.544 2.544 0 0 0-.902-1.063 2.708 2.708 0 0 0-1.147-.267 78.343 78.343 0 0 0-9.066-.223c-.547 0-1.182.092-1.476.556-.14.286-.199.605-.17.923v3.247c-.027.275.027.552.157.796a1.443 1.443 0 0 0 1.038.464c4.293.585 8.621.877 12.954.876 0 0 .228.07.127-.582Z" fill="#301629"/><path d="M120.552 82.493a3.779 3.779 0 0 1 2.785-1.452 2.36 2.36 0 0 1 2.19 1.4.608.608 0 0 0 .828.219.62.62 0 0 0 .219-.827 3.538 3.538 0 0 0-3.14-1.996 4.9 4.9 0 0 0-3.758 1.82.624.624 0 0 0-.182.438.621.621 0 0 0 .858.574.612.612 0 0 0 .2-.136v-.04Z" fill="#301629"/><path d="M134.014 62.189c-1.498 2.538-4.511 3.308-7.274 3.387-2.864.079-6.131 0-8.654-1.506-.67-.402-1.642-.621.022.95 2.413 2.28 5.47 2.359 8.702 2.162 3-.18 6.131-1.654 7.751-4.376.876-1.47-.153-1.313-.547-.626v.009Z" fill="#804342"/><path d="M132.915 58.832c-4.634-7.269-12.731-7.181-16.335-6.66-7.042 1.024-14.211 4.284-18.678 9.364-.753.876-3.442 5.93-2.133 10.03.237.736 1.248 2.355 1.007 1.61-2.277-7.128 3.158-13.653 9.053-16.908 5.737-3.169 16.26-2.236 18.831-1.313 1.314.464 6.253 3.61 8.369 6.498.438.626.906-1.002.438-1.628l-.552-.993Z" fill="#804342"/><path d="M112.77 59.887c5.194-.876 11.824-1.313 15.415 3.404.469.609 1.52 0 1.047-.612-3.981-5.221-10.949-4.95-16.786-3.96-.767.13-.438 1.312.324 1.168ZM142.19 62.64c.298-.18.57-.364.644-.408 1.069-.656 2.4-.73 3.622-.678h.298c.281.003.558.07.81.197.578.337.49 1.133.315 1.676-.263.836-.946 1.339-1.611 1.838a8.693 8.693 0 0 0-1.997 2.013c-.465.678-.097.875.591.24.438-.437.771-.673 1.209-1.15.836-.91 1.839-1.75 2.522-2.836.25-.394.753-1.151.705-1.65-.057-.612-.998-1.033-1.454-1.343-1.809-1.248-2.562-.053-5.728 1.457-.372.18-1.108.63-.924.998.079.162.569-.097.998-.355ZM149.631 78.669l-.035.73.298-.52c-.465.201-.346.542-.71.267-.438-.329-1.428-.587-1.752-1.007-.713-.875-1.953-2.127-3.14-2.236.176.306.784.223.959.53.841-1.694 1.454-3.252 3.289-3.733.53-.14 2.716-.075 2.317.875a1.813 1.813 0 0 1-1.975 1.09c-.328-.035-1.353-.027-1.095.126.365.213.778.332 1.2.346a4.74 4.74 0 0 0 2.474-.354c.438-.232.675-2.053.381-2.477-.648-.945-1.953-.727-2.907-.438a7.946 7.946 0 0 0-2.628 1.392 7.684 7.684 0 0 0-2.085 2.564c-.214.438.035.438.504.5 1.082.095 1.752 1.793 2.417 2.511.876.954 2.895 1.29 3.399 1.094a.597.597 0 0 0 .298-.525l.035-.73c.039-.78-1.17-.776-1.209 0l-.035-.005Z" fill="#804342"/><path d="M144.104 63.558c-.911.184-1.559.932-2.036 1.716-.329.547-.399 2.157-.114 3.207.258.972.928 1.729 1.633 2.473.964 1.01 1.656 0 2.54-.477.688-.363.324-.757-.363-.394-.534.28-1.204.53-1.66.175-.552-.438-.845-1.536-1.012-2.188-.306-1.22-.048-3.89 1.459-4.197.762-.153.311-.463-.438-.306l-.009-.009ZM125.89 57.182a48.37 48.37 0 0 0-10.974-1.973c-3.018-.17-4.953 1.247-8.483 3.277a2.918 2.918 0 0 0-1.034 3.633c.644 1.26 1.13 2.857 2.405 2.97 3.595.312 8.084-2.734 11.627-2.949 3.341-.2 6.928 1.13 8.667 4.123a.603.603 0 0 0 1.042-.609 9.583 9.583 0 0 0-5.882-4.323c-2.842-.77-5.618-.254-8.421.437a22.55 22.55 0 0 1-4.874.836c-1.209.026-4.104-.11-3.504-2.008.438-1.41 3.105-2.188 4.38-2.797 1.375-.665 1.883-1.203 3.398-1.313 3.871-.328 10.011.933 13.681 2.018.749.219-1.279-1.077-2.023-1.313l-.005-.009ZM93.072 65.707c-1.205 1.58-1.393 3.693-.942 5.58.504 2.126 2.19 3.837 3.64 5.417 1.615 1.75.963.276.499-.35-2.046-2.74-3.75-6.214-2.15-10.034 1.313-3.112-.583-1.226-1.047-.613Z" fill="#804342"/><path d="M96.11 83.443c2.317-2.52 4.052-7.242 3.942-9.054-.236-3.676-.648-8.673 1.91-11.723.499-.591.083-.552-.587-.154-1.752 1.033-2.343 6.416-2.43 9.864-.101 3.838-.877 4.083-2.138 8.62-.688 2.447-1.217 3.02-.688 2.447h-.008Z" fill="#804342"/><path d="M231.7 183.344c-31.339 4.976-47.577 7.028-95.098 10.717-3.941.306-19.847.727-23.74 1.431 0 0-41.206 14.441-52.947 15.413 2.943 11.815 12.232 26.335 16.988 37.529l-11.78 3.754a280.363 280.363 0 0 1-34.47-38.216c-2.527-3.383-5.102-7.238-4.708-11.448.512-5.478 5.728-9.146 10.51-11.881 18.696-10.708 45.782-21.604 67.81-28.374l34.391 3.063 101.325 5.392-8.281 12.62Z" fill="#153A23"/><path d="M100.928 140.445a43.715 43.715 0 0 1-18.477-21.687c3.184-.875 6.745-8.555 8.676-11.238 7.673 4.219 22.865 4.472 33.147 4.564" fill="#FAC7B7"/><path d="M91.648 166.575s3.609-1.514 4.38-7.247h47.135s-.189 5.728 4.024 6.455l-55.539.792Z" fill="#153A23"/><path d="M84.641 76.748a57.978 57.978 0 0 1 5.426-21.443 91.028 91.028 0 0 1 17.649-25.237c2.474-2.529 5.216-5.058 8.903-5.194.876-.035 1.752-.061 2.571-.1 2.417-.114 4.537-1.375 6.53-2.626 4.975-3.138 11.473-5.138 15.362-9.71 2.457-2.889 3.845-8.836-2.093-6.565-5.938 2.271-12.004 4.595-17.802 7.247-19.475 8.892-35.937 22.825-44.17 42.483-4.38 10.437-6.622 22.624-5.067 33.866a80.349 80.349 0 0 0 11.553 31.805l7.61-13.732s-7.348-10.984-6.472-30.794ZM158.004 131.286l34.151 36.908-14.238-.757-25.637-22.957 5.724-13.194Z" fill="#EE9E7B"/><path d="M124.253 112.084c7.799.722 14.189 1.418 19.164 4.547 4.975 3.129 12.174 10.275 16.597 16.826-1.909 4.402-5.829 6.625-7.734 11.023l-10.147-5.711-17.88-26.685Z" fill="#FAC7B7"/><path d="M230.601 183.431a41.928 41.928 0 0 0 10.541-1.238c1.213-.302 2.461-.687 3.363-1.549.981-.937 1.41-3.694 1.787-4.993a178.86 178.86 0 0 0 4.734-21.071c.241-1.492.438-3.033.079-4.49-.359-1.457-1.533-2.827-3.031-2.993-2.448-.276-4.037 2.442-4.953 4.726l-4.23 10.56c-1.178 2.936-2.496 6.052-5.12 7.824l-3.17 13.224Z" fill="#EE9E7B"/><path d="M206.992 50.745c9.993 12.28 15.796 20.93 21.117 35.783 4.909 13.715 7.852 21.981 11.868 42.654 1.314 6.835 2.562 13.298 2.755 7.968 1.094-30.168-7.06-64.284-24.153-89.38a79.523 79.523 0 0 0-34.723-28.388c-9.635-4.083-20.334-8.752-30.814-9.627-1.375-.114-3.849-.35-5.255.087a.737.737 0 0 0-.38 1.144c.095.127.228.22.38.265 6.118 1.703 36.266 11.282 59.205 39.494Z" fill="#227B3D"/><path d="M172.355 10.297c12.263 3.786 23.487 9.785 33.284 18.638 11.346 10.275 20.074 23.193 26.49 37.013 6.539 14.1 10.787 29.24 13.042 44.6a173.17 173.17 0 0 1 1.857 24.729c0 7.317 2.308-8.949 2.627-12.126 1.45-13.565.158-14.287-.661-24.838-2.531-32.571-15.823-62.683-43.071-81.552-13.182-9.129-29.407-10.166-44.805-12.047-1.752-.215-3.696-.688-5.356.096-2.225 1.046 3.692 2.35 4.379 2.477 4.126.77 8.204 1.775 12.214 3.01Z" fill="#F4BA24"/><path d="M167.03 2.679c12.599.083 30.704 4.966 36.651 7.876 6.928 3.392 14.99 8.94 22.243 16.555 13.865 14.555 18.87 27.784 23.425 47.187 2.798 11.93 3.867 33.617 4.686 45.826.359 5.295 2.816-2.7 3.157-8.039 1.542-23.937 5.256-44.487-4.379-65.146-8.614-18.506-16.532-28.913-35.127-37.525-20.885-9.67-36.83-8.393-48.173-8.83-9.048-.355-10.195.66-4.97 1.75l2.487.346Z" fill="#F1673C"/><path d="m76.561 247.724 8.29 14.472a1.875 1.875 0 0 1 .031 2.411c-2.001 3.379-5.43 7.12-7.922 10.153a7.89 7.89 0 0 1-2.417 2.188c-1.047.52-2.256.577-3.42.612-5.926.171-18.775 0-24.683-.437-1.24-.097-2.68-.337-3.267-1.431a2.806 2.806 0 0 1 .166-2.543c1.161-2.236 3.837-3.264 6.35-3.501 2.514-.236 5.059.136 7.555-.218 2.496-.355 12.021-1.672 12.845-4.053.876-2.468-.438-5.111-1.726-7.395l-3.293-5.912 11.491-4.346Z" fill="#EE9E7B"/><path d="M101.09 132.892a45.35 45.35 0 0 1-17.11-17.018c-.784-1.475-3.022-.166-2.238 1.313a48.023 48.023 0 0 0 18.043 17.942c1.476.774 2.785-1.462 1.314-2.237h-.009Z" fill="#fff"/><path d="M102.281 126.341c-6.678-1.991-11.303-7.986-15.814-12.918-1.13-1.234-2.96.6-1.835 1.83 4.857 5.312 9.784 11.447 16.962 13.587 1.603.477 2.286-2.022.687-2.499ZM105.286 119.331c-1.752.28-3.464-.626-4.962-1.37a154.99 154.99 0 0 1-5.023-2.625c-2.82-1.576-5.593-3.256-7.787-5.663-1.125-1.238-2.956.6-1.835 1.829 2.483 2.731 5.693 4.63 8.895 6.394 1.79.984 3.6 1.952 5.452 2.814 1.852.862 3.823 1.487 5.947 1.142.329-.095.608-.315.778-.612.169-.298.215-.65.129-.981a1.312 1.312 0 0 0-1.594-.906v-.022Z" fill="#fff"/><path d="M87.676 108.881a32.915 32.915 0 0 0 24.288 8.013c1.651-.14 1.664-2.735 0-2.591a30.313 30.313 0 0 1-22.453-7.264c-1.253-1.094-3.092.731-1.835 1.829v.013ZM138.455 132.485a192.465 192.465 0 0 1 13.681 11.133c1.244 1.107 3.066-.722 1.835-1.833a199.82 199.82 0 0 0-14.207-11.536c-.56-.437-1.445-.092-1.752.464a1.316 1.316 0 0 0 .465 1.751l-.022.021ZM137.653 125.418a119.018 119.018 0 0 1 19.309 15.999c1.169 1.195 3-.639 1.835-1.833a122.804 122.804 0 0 0-19.852-16.415c-1.392-.923-2.693 1.313-1.314 2.241l.022.008ZM131.833 117.139c11.855 1.44 20.145 11.347 27.266 19.946 1.069 1.282 2.89-.56 1.835-1.834-7.69-9.264-16.409-19.162-29.101-20.703-.696-.083-1.314.657-1.314 1.313a1.313 1.313 0 0 0 1.314 1.313v-.035Z" fill="#fff"/><path d="M143.136 159.823c.127-14.074 0-16.463-2.597-30.265-1.598-8.551-3.267-11.137-3.267-11.137-13.764-14.257-32.845 0-32.845 0-2.08 2.625-3.385 9.382-4.024 12.712-2.374 12.376-3.618 16.297-4.485 28.882" fill="#FAC7B7"/><path d="M81.602 244.482c-6.079.092-14.89.096-16.992-7.085-1.914-6.459 5.693-8.861 10.699-8.809 1.314 0 2.816.083 4.038.608.58.227 1.079.625 1.427 1.142.157.207.243.459.245.718-.039.271.136-.114 0 .044a3.292 3.292 0 0 1-.766.219c-4.003 1.041-8.294 1.531-12.407 1.943a88.38 88.38 0 0 1-13.138.214c-4.186-.206-8.382-.494-12.573-.162-4.76.381-9.398 1.659-14.132 2.289-4.152.556-9.757 1.256-13.366-1.177a4.842 4.842 0 0 1-1.515-1.725c-.736-1.382-1.37-2.805-2.16-4.165-1.65-2.836-3.503-5.541-5.097-8.42-1.077-1.96-2.448-4.503-2.005-6.796.403-2.109 2.421-2.718 3.639-4.227 2.658-3.291 4.305-7.584 7.322-10.472.105-.101.407-.359.132-.123.267-.227.363-.035.074-.074.293.044-.876-.18-.311.026.484.143.977.251 1.476.324 1.828.332 3.675.547 5.531.643 3.731.223 7.524.101 11.215.77 3.67.63 7.082 2.301 9.828 4.814 2.759 2.49 5.067 5.461 8.023 7.733a23.52 23.52 0 0 0 18.253 4.441 27.811 27.811 0 0 0 9.13-3.286c2.773-1.567 5.125-3.715 7.84-5.37 2.518-1.536 4.817-3.435 4.896-6.616.066-2.293-1.051-4.411-2.553-6.074-3.197-3.54-8.479-5.65-13.213-5.65-2.25 0-4.537.552-6.284 2.027-2.448 2.061-2.842 5.443-2.028 8.38 1.686 6.1 7.349 10.463 12.976 12.773 5.47 2.25 11.96 2.749 17.518.486a17.954 17.954 0 0 0 7.388-5.536c2.395-3.041 3.854-6.594 5.224-10.178 2.873-7.501 5.834-15.505 5.505-23.67-.236-5.873-2.807-12.485-8.491-15.054-3.74-1.694-7.8-1.098-11.759-1.645-4.068-.561-7.975-1.908-11.986-2.749-1.927-.402-4.038-.875-6.017-.757-1.98.119-3.447 1.086-4.59 2.714a16.53 16.53 0 0 0-2.794 8.078c-.477 5.588 1.852 11.307 5.737 15.294a18.957 18.957 0 0 0 6.915 4.516c3.503 1.313 7.445 1.313 11.163 1.059a120.933 120.933 0 0 0 23.018-3.842c14.5-3.939 28.312-10.126 42.992-13.448 7.055-1.597 14.478-2.625 21.722-1.995 5.859.521 12.551 2.665 15.248 8.371 3.355 7.085-.906 15.001-5.255 20.568-4.348 5.566-9.411 11.132-15.765 14.441-5.624 2.945-12.534 3.579-17.916-.241-2.348-1.672-4.038-4.267-4.231-7.181-.241-3.58 1.314-7.002 3.696-9.627 4.818-5.3 12.105-7.374 18.761-9.273 7.962-2.271 16.051-4.184 23.614-7.623 6.131-2.779 11.912-6.753 16.081-12.074 2.023-2.582 3.871-5.566 4.769-8.752.727-2.578.609-6.253-1.936-7.833-2.864-1.781-5.741.315-6.818 3.041-1.253 3.168-.578 6.831-.092 10.091 1.138 7.593 3.591 14.901 5.146 22.406 1.432 6.905 1.94 14.003-.6 20.729l2.159-1.238c-2.063-.832-2.628-3.597-2.37-5.558.364-2.906 2.536-5.321 4.406-7.439 4.533-5.063 8.207-10.503 10.55-16.909a47.499 47.499 0 0 0 2.536-11.111c.1-.928-.876-1.75-1.752-1.75-1.016 0-1.625.796-1.726 1.75a43.836 43.836 0 0 1-7.405 19.845c-1.958 2.858-4.423 5.252-6.569 7.96-2.006 2.539-3.648 5.449-3.565 8.779.083 3.33 1.752 6.446 4.949 7.741.919.372 1.826-.416 2.124-1.208 5.526-14.598-2.094-29.788-4.428-44.198a49.634 49.634 0 0 1-.587-5.452 7.439 7.439 0 0 1 .613-3.641c.281-.569.876-1.427 1.616-.963.819.512.736 2.166.635 2.958-.354 2.923-2.316 5.921-4.059 8.214a33.5 33.5 0 0 1-7.077 6.787c-6.105 4.403-13.187 6.963-20.36 9.059-7.445 2.188-15.236 3.759-22.335 7.032-6.433 2.976-12.384 8.266-13.335 15.649-.876 6.848 3.552 12.406 9.753 14.751 6.416 2.425 13.493.731 19.177-2.739 6.215-3.79 11.268-9.43 15.643-15.172 4.524-5.929 8.058-13.522 5.891-21.097-1.884-6.564-7.883-10.367-14.238-11.815-6.932-1.58-14.32-.967-21.27.136-7.331 1.164-14.483 3.238-21.52 5.562-14.137 4.66-28.133 10.467-43.05 12.126-6.831.757-14.61 2.223-20.556-2.153a16.77 16.77 0 0 1-6.714-13.339 13.274 13.274 0 0 1 2.278-7.404 2.218 2.218 0 0 1 1.707-1.151c.956-.036 1.913.037 2.851.219 2.057.338 4.095.784 6.105 1.335 3.942 1.006 7.835 2.017 11.908 2.188 3.503.144 7.046.1 9.748 2.625 4.787 4.495 4.682 11.943 3.552 17.89a75.454 75.454 0 0 1-3.504 11.924c-1.314 3.549-2.553 7.203-4.554 10.437-3.254 5.252-8.733 7.777-14.833 7.488a22.782 22.782 0 0 1-15.398-7.146c-1.8-1.952-3.565-4.906-3.131-7.68.337-2.188 2.19-3.064 4.007-3.304 4.235-.512 9.24 1.479 12.052 4.656 1.125 1.278 2.006 3.063 1.174 4.726-.548 1.085-1.752 1.75-2.768 2.381a32.897 32.897 0 0 0-3.832 2.599c-4.817 3.995-11.005 6.433-17.33 5.96a19.275 19.275 0 0 1-8.618-2.827c-3.065-1.882-5.343-4.665-7.883-7.177-2.737-2.721-5.754-5.001-9.437-6.27-3.534-1.213-7.327-1.445-11.032-1.585-1.83-.07-3.665-.113-5.496-.253a45.8 45.8 0 0 1-5.325-.827c-1.988-.381-3.377 1.312-4.463 2.708-1.458 1.882-2.693 3.939-3.972 5.934-.573.906-1.156 1.803-1.752 2.683-.147.23-.319.445-.512.639a6.31 6.31 0 0 1-.289.297c-.1.097.17-.127.158-.118-.145.11-.307.201-.438.302-2.29 1.562-3.845 3.868-3.806 6.704.04 2.766 1.314 5.409 2.628 7.776 1.594 2.876 3.464 5.584 5.106 8.429 1.266 2.188 2.058 4.791 4.086 6.428 3.77 3.028 9.337 2.875 13.887 2.429 4.62-.438 9.118-1.554 13.699-2.249 8.058-1.226 16.282.372 24.388-.04 4.291-.291 8.565-.798 12.805-1.518 1.849-.28 4.095-.438 5.76-1.353 1.751-.94 2.11-3.037 1.414-4.761-1.283-3.19-4.818-4.021-7.927-4.201-3.054-.186-6.11.33-8.934 1.51-2.776 1.19-5.207 3.286-6.074 6.271-.867 2.984-.03 6.258 1.69 8.752 4.21 6.087 12.004 6.35 18.722 6.245 2.225-.031 2.23-3.501 0-3.453l-.004.022Z" fill="#227B3D"/><path d="M190.622 189.212c-.5.062-2.243-3.063-2.51-3.562-1.349-2.42-1.563-5.299-.214-4.625 1.984.998 1.984-1.996 4.756.402 1.252 1.081 2.426 2.258 3.652 3.379.521.472 3 3.382 3.56 3.317l-9.244 1.089Z" fill="#EE9E7B"/><path d="M92.708 155.49c13.392.292 26.788.292 40.189 0 3.778-.079 7.556-.184 11.334-.315 2.22-.074 2.229-3.527 0-3.453a939.732 939.732 0 0 1-51.523.329c-2.23-.049-2.23 3.409 0 3.452v-.013ZM95.695 146.091a211.82 211.82 0 0 0 37.277 1.601 218.25 218.25 0 0 0 10.51-.744 1.77 1.77 0 0 0 1.726-1.728c0-.875-.793-1.816-1.726-1.724a211.738 211.738 0 0 1-37.312.262 223.7 223.7 0 0 1-10.466-1.12c-.929-.123-1.752.875-1.752 1.728 0 1.033.797 1.602 1.752 1.725h-.01ZM97.867 137.745a182.157 182.157 0 0 0 34.084.705c3.212-.236 6.423-.559 9.635-.967.924-.118 1.725-.714 1.725-1.729 0-.844-.792-1.846-1.725-1.728a182.214 182.214 0 0 1-34.076 1.116 186.39 186.39 0 0 1-9.634-.849c-.929-.105-1.752.875-1.752 1.75 0 1.02.797 1.619 1.752 1.724l-.01-.022ZM101.002 128.565a126.253 126.253 0 0 0 38.876-2.263c2.19-.468 1.253-3.798-.92-3.33a123.248 123.248 0 0 1-37.956 2.14c-.932-.092-1.73.875-1.73 1.728a1.752 1.752 0 0 0 1.73 1.725ZM101.642 120.604c11.719-.529 25.488.486 37.036-2.139 2.168-.495-.525-3.357-2.693-2.867-5.558 1.265-11.312 1.431-16.992 1.462-5.785.035-11.57-.171-17.351.092-2.216.1-2.23 3.553 0 3.452Z" fill="#fff"/><path d="M227.36 169.104c1.958.298 7.559-.332 8.956-1.75a6.345 6.345 0 0 0 1.314-2.512c1.313-3.785 2.601-6.743 3.902-10.529 1.029-2.989 2.124-6.091 4.379-8.336a10.654 10.654 0 0 1 7.97-3.063 397.338 397.338 0 0 1-8.824 38.163 3.987 3.987 0 0 1-.845 1.777c-.552.564-1.371.748-2.146.875-3.981.731-11.36.989-15.398.779l.692-15.404Z" fill="#301629"/><path d="M233.027 174.023a3.79 3.79 0 0 0-1.174.477c-3.275 1.991-1.677 7.479 2.295 7.522a4.01 4.01 0 0 0 3.342-1.706c1.786-2.718-1.179-7.015-4.463-6.293ZM246.196 183.41c.53-1.628.876-3.331 1.261-4.994a403.244 403.244 0 0 0 1.914-8.55c1.169-5.339 2.299-10.682 3.464-16.021.731-3.365 1.673-6.678 2.303-10.065.197-1.063-.293-2.284-1.449-2.547-1.016-.232-2.339.306-2.549 1.444-.596 3.208-1.485 6.341-2.19 9.527-.468 2.135-.924 4.275-1.384 6.415-1.274 5.934-2.54 11.868-3.897 17.785-.438 1.969-.845 3.986-1.476 5.912a2.087 2.087 0 0 0 1.445 2.546 2.126 2.126 0 0 0 2.553-1.448l.005-.004Z" fill="#fff"/><path d="M244.435 184.534c.565-1.724.911-3.54 1.314-5.308.679-2.993 1.314-5.995 1.958-9.001 1.164-5.484 2.281-10.976 3.459-16.459.876-4.118 2.426-8.069 3.202-12.213.122-.652-.876-.933-.999-.276-.744 3.986-2.233 7.776-3.096 11.732-.464 2.114-.876 4.236-1.34 6.35-1.314 6.231-2.588 12.463-3.977 18.672-.438 2.07-.876 4.206-1.515 6.228-.206.634.793.905.999.275h-.005Z" fill="#301629"/><path d="M236.268 166.518c1.024 0 2.115.118 3.092-.267a1.532 1.532 0 0 0 .875-2.232 7.02 7.02 0 0 0-.77-1.12c-.193-.254-.635-.7-.627-1.05 0-.25.565-.381.815-.438a16.409 16.409 0 0 0 1.642-.494c.92-.359 1.84-.98 1.752-2.092-.07-.74-.53-1.313-.911-1.912-.258-.412-.644-1.121-.061-1.418.928-.477 2.408-.267 2.724-1.571.258-1.081-.946-1.624-1.59-2.236a3.948 3.948 0 0 1-.32-.364c.062 0-.092.324-.118.302-.026-.021.039 0 .057 0a2 2 0 0 0 .464 0c.605.053 1.283.184 1.853-.105a1.195 1.195 0 0 0 .547-1.579 2.576 2.576 0 0 0-1.625-1.182c-.635-.206-.906.797-.276.998.219.07 1.209.437.942.805-.21.276-1.108.061-1.393.035a1.57 1.57 0 0 0-1.261.258.822.822 0 0 0-.061 1.029c.24.345.536.648.876.897.297.24.749.468.876.748.179.477-.758.639-1.073.713a3.84 3.84 0 0 0-1.292.438c-1.156.77-.526 2.188.087 3.094.254.372.701.962.5 1.444-.141.346-.579.534-.876.665-.902.376-2.19.389-2.899 1.094-.657.643-.285 1.501.17 2.136.281.398 1.454 1.505.951 2.004-.342.341-1.038.345-1.485.367-.512.022-1.025 0-1.542 0a.516.516 0 0 0 0 1.033h-.043Z" fill="#fff"/><path d="M232.585 175.598a14.826 14.826 0 0 0-.535 2.455c-.105.784-.245 1.65.119 2.385a.523.523 0 0 0 .381.251.53.53 0 0 0 .433-.146 149.54 149.54 0 0 0 1.677-1.951l.811-.972a1.491 1.491 0 0 0 .477-1.212.509.509 0 0 0-.499-.381c-.771.123-1.533.294-2.282.512-.394.101-.793.206-1.195.298-.184.044-.368.079-.552.114l-.228.035h-.158a.523.523 0 0 0-.363.875 5.705 5.705 0 0 0 1.979 1.177c.718.259 1.406.592 2.054.993a.514.514 0 0 0 .769-.383.53.53 0 0 0-.064-.326l-1.642-3.382-.236-.49a.515.515 0 0 0-.888.166.516.516 0 0 0 .012.359l1.642 3.378.236.49.71-.709a11.077 11.077 0 0 0-1.993-.967 14.577 14.577 0 0 1-1.108-.525 4.876 4.876 0 0 1-.438-.276l-.092-.065c-.052-.035.057.052 0 0-.056-.053-.113-.101-.166-.158l-.368.875c.774-.091 1.539-.25 2.286-.472.399-.101.793-.21 1.196-.307l.551-.127.224-.043.157-.027-.499-.38c0-.132 0-.04-.07.026-.035.05-.073.098-.114.144-.118.145-.241.289-.359.438l-.7.836c-.482.563-.968 1.124-1.459 1.685l.815.105a1.692 1.692 0 0 1-.079-.849c0-.35.057-.696.109-1.042.109-.729.273-1.449.491-2.153.153-.617-.85-.888-1.042-.254Z" fill="#301629"/><path d="M112.52 91.42a10.954 10.954 0 0 1 6.131-3.203l-.407-.534a12.556 12.556 0 0 1-2.159 2.95c-.28.284.092.818.438.569a18.659 18.659 0 0 1 4.379-2.302l-.438-.25a4.78 4.78 0 0 1 .07 1.808c-.056.368.487.691.662.28a7.877 7.877 0 0 1 1.835-2.652l-.57-.074a15.18 15.18 0 0 1 1.516 3.667.362.362 0 0 0 .661.083 59.657 59.657 0 0 0 1.752-3.29l-.57.074c.914.752 1.818 1.515 2.711 2.288a.365.365 0 0 0 .57-.437 9.501 9.501 0 0 0-1.687-2.525l-.254.621c1.984 0 3.697 1.094 5.304 2.136.289.183.722-.206.499-.5a8.135 8.135 0 0 0-3.832-2.76c-.438-.154-.63.546-.193.7a7.25 7.25 0 0 1 3.399 2.428l.495-.494c-1.721-1.116-3.556-2.232-5.693-2.236a.366.366 0 0 0-.351.431c.012.07.044.134.092.186a8.805 8.805 0 0 1 1.572 2.38l.57-.437a92.726 92.726 0 0 0-2.711-2.289.365.365 0 0 0-.569.07 62.902 62.902 0 0 1-1.752 3.295l.661.088a15.823 15.823 0 0 0-1.585-3.843.375.375 0 0 0-.267-.173.371.371 0 0 0-.303.1 8.385 8.385 0 0 0-1.948 2.804l.661.276c.12-.727.098-1.47-.066-2.188a.356.356 0 0 0-.438-.254 19.273 19.273 0 0 0-4.532 2.372l.438.569a13.358 13.358 0 0 0 2.272-3.094.371.371 0 0 0-.411-.534 11.653 11.653 0 0 0-6.451 3.391c-.324.337.188.85.512.512l-.013-.008Z" fill="#804342"/><path d="M130.8 108.076c-5.851.823-11.247 2.726-17.01 2.56l.758-3.75c4.817.358 10.983.459 15.923-.915l.329 2.105Z" fill="#B26D55"/><path d="M64.058 251.79c4.353-2.118 9.604-3.781 13.957-5.904l6.858 14.704a7 7 0 0 1 .876 2.796c0 1.313-.705 2.538-1.41 3.667l-4.515 7.238c-.578.924-1.187 1.887-2.115 2.455-.994.613-2.212.692-3.377.753-10.26.56-20.688 1.107-30.69-1.243-.465-.109-.994-.275-1.178-.717a1.402 1.402 0 0 1-.027-.806c.644-3.422 3.867-5.868 7.24-6.765 3.372-.897 6.919-.569 10.4-.438 1.752.066 3.605.053 5.115-.835 2.225-1.313 3.066-4.236 2.668-6.788-.399-2.551-1.778-4.813-3.132-7.028" fill="#301629"/><path d="m42.424 277.814 21.17.911 10.637.437c.877.07 1.76.036 2.628-.101a4.653 4.653 0 0 0 2.461-1.479 32.311 32.311 0 0 0 2.952-4.017 52.21 52.21 0 0 0 5.01-9.846c.394-1.011-.438-2.315-1.445-2.547a2.134 2.134 0 0 0-2.553 1.444 41.4 41.4 0 0 1-.408 1.033c0 .044-.263.608-.079.184-.074.17-.144.341-.218.507a56.835 56.835 0 0 1-1.025 2.188 50.17 50.17 0 0 1-2.264 4.026 55.458 55.458 0 0 1-2.514 3.65c-.364.486.258-.293-.11.14-.11.131-.214.263-.332.385a3.379 3.379 0 0 1-.368.35c.438-.363-.36.101.197-.109a1.6 1.6 0 0 1-.49.122h-.128c-.438 0-.876-.026-1.314-.043l-20.24-.876-11.567-.498a2.087 2.087 0 0 0-2.071 2.074 2.113 2.113 0 0 0 2.071 2.07v-.005Z" fill="#fff"/><path d="M41.058 276.261c7.348.315 14.697.607 22.045.875l10.949.438c.831.081 1.669.081 2.5 0a3.344 3.344 0 0 0 2.002-1.169 28.575 28.575 0 0 0 2.798-3.982 63.229 63.229 0 0 0 5.12-10.376c.24-.621-.762-.875-1.003-.275a62.777 62.777 0 0 1-4.331 9.019 44.094 44.094 0 0 1-2.628 4.048c-.464.625-.968 1.391-1.752 1.662-.783.272-1.72.114-2.535.079-7.112-.302-14.224-.577-21.34-.875a4156.81 4156.81 0 0 1-11.825-.49c-.67-.026-.666 1.011 0 1.037v.009Z" fill="#301629"/><path d="M54.503 267.64c-.04 1.046.538 2.866 1.948 2.24.57-.249.758-.822 1.065-1.312.573-.919 1.545-.206 2.137.302.963.827 2.47 1.75 3.534.494.214-.251.33-.571.324-.901a2.588 2.588 0 0 0-.066-.412c-.026-.092-.048-.184-.074-.275-.027-.092-.053-.175.035-.097.105-.057.543.097.67.123l.674.122 1.537.285a.532.532 0 0 0 .448-.096.535.535 0 0 0 .21-.407c.082-.617-.355-1.09-.728-1.528-.092-.109-.337-.337-.297-.499.07-.262.836-.315 1.037-.354.929-.188 1.905-.306 2.816-.573.675-.197 1.165-.823.727-1.51-.438-.687-1.357-.875-1.826-1.51a.812.812 0 0 1-.057-1.05c.25-.254.679-.337.964-.543.551-.398.876-1.164.438-1.75a1.954 1.954 0 0 0-.942-.556l-1.38-.516.228.875c.395-.393.703-.864.907-1.383a.527.527 0 0 0-.364-.639l-2.68-.875c-.635-.21-.906.792-.271.998l2.675.875-.359-.639a2.789 2.789 0 0 1-.64.924.521.521 0 0 0-.135.502.532.532 0 0 0 .364.373l1.208.437c.088.031.548.14.578.25.031.109-.188.258-.267.315-.582.437-1.257.521-1.471 1.313a2.08 2.08 0 0 0 .477 1.82c.259.281.553.527.876.731.184.127.377.241.556.372.091.052.174.116.245.192.062-.065.049-.078-.03-.035-.41.136-.832.226-1.261.267l-1.314.267c-.653.132-1.467.197-1.88.797a1.242 1.242 0 0 0 .08 1.448c.232.346.797.735.736 1.195l.656-.499-2.693-.495c-.582-.1-1.314-.144-1.528.561-.154.498.403 1.221-.092 1.544-.613.399-1.314-.192-1.752-.573-1.007-.875-2.566-1.838-3.666-.512-.188.223-.547 1.234-.875 1.225-.438 0-.438-1.046-.438-1.312.026-.67-1.012-.67-1.034 0l-.03.004ZM71.941 253.803v.262c.114 3.716 4.327 4.503 6.079 1.313.77-1.391.92-3.531-.727-4.319-2.321-1.098-5.352.031-5.352 2.744Z" fill="#fff"/><path d="M75.221 255.755v-3.536l-.136.232.036-.04-.228.132h.057-.276c.081.049.159.105.232.166l.302.214c.193.14.377.289.556.438.37.31.703.661.994 1.046l.438-.784a88.406 88.406 0 0 1-4.309.346l.263.963a31.06 31.06 0 0 1 1.914-1.26c.324-.197.643-.386.972-.574l.486-.271c.11-.074.233-.126.363-.153l-.438-.779a26.785 26.785 0 0 1-1.93 3.418.52.52 0 0 0 .183.709.536.536 0 0 0 .415.063.516.516 0 0 0 .33-.26 26.27 26.27 0 0 0 1.93-3.418c.15-.315-.021-.827-.437-.779a2.883 2.883 0 0 0-1.126.438c-.363.205-.722.411-1.081.63-.697.437-1.384.875-2.05 1.343a.533.533 0 0 0-.24.582.522.522 0 0 0 .499.381 89.969 89.969 0 0 0 4.309-.341c.346-.035.705-.438.438-.779a7.858 7.858 0 0 0-1.467-1.514 13.349 13.349 0 0 0-.815-.604 1.01 1.01 0 0 0-.56-.245.628.628 0 0 0-.592.437 3.42 3.42 0 0 0-.052.924v2.883a.514.514 0 0 0 .517.517.517.517 0 0 0 .516-.517l-.013-.008Z" fill="#301629"/><path d="M189.444 184.057c.438.875.876 1.751 1.362 2.626.486.875 1.042 1.663 1.589 2.477.373.551 1.27.035.876-.521-.552-.814-1.108-1.624-1.589-2.477-.482-.853-.916-1.75-1.367-2.626-.306-.59-1.2-.07-.876.526l.005-.005ZM190.731 182.902c1.537 1.965 3.455 3.58 5.067 5.479a.522.522 0 0 0 .734-.002.517.517 0 0 0-.003-.733c-1.611-1.9-3.503-3.501-5.066-5.475a.523.523 0 0 0-.732 0 .531.531 0 0 0 0 .731Z" fill="#B26D55"/><path d="M108.754 160.956c.079 2.027.403 4.037.963 5.987.056.255.166.496.325.704.21.213.475.364.766.438a13 13 0 0 0 3.538.516c4.796.2 9.596-.265 14.264-1.383a3.215 3.215 0 0 0 1.134-.437c.354-.282.637-.641.828-1.051a12.494 12.494 0 0 0 1.485-5.111" fill="#C05929"/><path d="m143.535 162.151-48.414.459.84-3.282h47.18l.394 2.823Z" fill="#C05929"/><path d="M115.533 162.798a6.67 6.67 0 0 0 .342 2.005c.56 1.142 1.857 1.207 3.065 1.151 1.8-.084 3.635-.031 5.422-.263s1.493-1.75 1.436-2.998l-10.265.105Z" fill="#F1673C"/><path d="M115.012 162.855a4.535 4.535 0 0 0 .276 1.615.287.287 0 0 0 .083.14c.035.02.073.033.113.039.04.005.081.002.119-.008.301-.039.596-.117.876-.232.053-.022.114-.057.118-.11a.16.16 0 0 0-.018-.067.164.164 0 0 0-.043-.055l-1.042-1.099" fill="#fff"/><path d="M113.252 163.184c4.734-.097 9.468-.136 14.202-.145a.364.364 0 0 0 .257-.62.364.364 0 0 0-.257-.106c-4.733 0-9.467.048-14.202.144a.363.363 0 1 0 0 .727Z" fill="#FAA933"/><path d="M128.19 13.873c4.817-2.508 10.011-3.904 15.056-5.803.657-.245.372-1.313-.289-1.06-5.142 1.935-10.432 3.362-15.328 5.913-.626.328-.074 1.273.552.95h.009ZM127.559 17.128l15.433-6.126c.648-.258.363-1.313-.294-1.06L127.27 16.07c-.653.259-.368 1.313.289 1.06Z" fill="#B26D55"/><path d="m121.428 20.76 7.826-1.973c.792-.197 1.896-.232 2.128.547.197.656-.438 1.23-1.047 1.584-2.553 1.553-4.213 2.114-7.063 3.006-2.054.64-6.197 1.164-7.371.78" fill="#EE9E7B"/><path d="m121.577 21.754 7.305-1.654c.227-.048 2.316-.385 1.751.372-.28.385-.915.604-1.313.81-.513.253-1.03.485-1.555.7a27.728 27.728 0 0 1-12.534 1.982c-.705-.057-.701 1.041 0 1.098a28.57 28.57 0 0 0 11.89-1.667 26.61 26.61 0 0 0 2.654-1.116c.714-.35 1.638-.735 1.979-1.51.675-1.51-1.357-2.06-2.443-1.881-2.689.437-5.361 1.207-8.023 1.807-.688.157-.399 1.216.293 1.059h-.004Z" fill="#B26D55"/></svg>